<svg id="Layer_1" data-name="Layer 1" xmlns="http://www.w3.org/2000/svg" viewBox="0 0 500 300"><defs><style>.cls-1,.cls-10,.cls-11,.cls-12,.cls-14,.cls-3,.cls-5,.cls-6,.cls-7,.cls-8,.cls-9{fill:none;}.cls-1,.cls-10,.cls-11,.cls-12,.cls-3,.cls-5,.cls-6,.cls-7,.cls-8,.cls-9{stroke:#d2f7ff;}.cls-1,.cls-10,.cls-11,.cls-12,.cls-14,.cls-7,.cls-8,.cls-9{stroke-linecap:round;stroke-linejoin:round;}.cls-1,.cls-12,.cls-3{stroke-width:0.5px;}.cls-2{font-size:6.1px;font-family:CourierPrime;letter-spacing:-0.08em;}.cls-2,.cls-4{fill:#d2f7ff;}.cls-3,.cls-5,.cls-6{stroke-miterlimit:10;}.cls-6{stroke-width:3px;}.cls-8{stroke-dasharray:1.01 2.02;}.cls-9{stroke-dasharray:1.01 2.02;}.cls-10{stroke-dasharray:1.01 2.02;}.cls-11{stroke-dasharray:0.99 1.99;}.cls-12{stroke-dasharray:2 2;}.cls-13{fill:#ff1439;}.cls-14{stroke:#fff;stroke-width:2px;}</style></defs><line class="cls-1" x1="442.84" y1="267.52" x2="448.29" y2="267.52"/><line class="cls-1" x1="436.37" y1="278.1" x2="436.37" y2="272.65"/><line class="cls-1" x1="436.37" y1="54.21" x2="436.37" y2="48.77"/><line class="cls-1" x1="411.91" y1="54.21" x2="411.91" y2="48.77"/><line class="cls-1" x1="390.24" y1="54.21" x2="390.24" y2="48.77"/><line class="cls-1" x1="368.27" y1="54.21" x2="368.27" y2="48.77"/><line class="cls-1" x1="346.59" y1="54.21" x2="346.59" y2="48.77"/><line class="cls-1" x1="320.46" y1="54.21" x2="320.46" y2="48.77"/><line class="cls-1" x1="294.72" y1="54.21" x2="294.72" y2="48.77"/><line class="cls-1" x1="272.65" y1="54.21" x2="272.65" y2="48.77"/><line class="cls-1" x1="250.26" y1="54.21" x2="250.26" y2="48.77"/><line class="cls-1" x1="228.54" y1="54.21" x2="228.54" y2="48.77"/><line class="cls-1" x1="207.17" y1="54.21" x2="207.17" y2="48.77"/><line class="cls-1" x1="176.79" y1="15.21" x2="176.79" y2="9.77"/><line class="cls-1" x1="179.1" y1="16.34" x2="182.95" y2="12.49"/><line class="cls-1" x1="203.32" y1="41.46" x2="207.17" y2="37.61"/><line class="cls-1" x1="133.19" y1="15.21" x2="133.19" y2="9.77"/><line class="cls-1" x1="132.19" y1="16.34" x2="128.34" y2="12.49"/><line class="cls-1" x1="107.44" y1="40.13" x2="103.59" y2="36.28"/><line class="cls-1" x1="436.37" y1="292.94" x2="436.37" y2="287.49"/><line class="cls-1" x1="81.4" y1="292.94" x2="81.4" y2="287.49"/><line class="cls-1" x1="320.99" y1="278.1" x2="320.99" y2="272.65"/><line class="cls-1" x1="286.26" y1="278.1" x2="286.26" y2="272.65"/><line class="cls-1" x1="241.41" y1="278.1" x2="241.41" y2="272.65"/><line class="cls-1" x1="207.17" y1="278.1" x2="207.17" y2="272.65"/><line class="cls-1" x1="184.06" y1="278.1" x2="184.06" y2="272.65"/><line class="cls-1" x1="162.06" y1="278.1" x2="162.06" y2="272.65"/><line class="cls-1" x1="139.27" y1="278.1" x2="139.27" y2="272.65"/><line class="cls-1" x1="81.4" y1="278.1" x2="81.4" y2="272.65"/><line class="cls-1" x1="75.25" y1="266.87" x2="69.81" y2="266.87"/><line class="cls-1" x1="75.25" y1="239.31" x2="69.81" y2="239.31"/><line class="cls-1" x1="75.25" y1="217.6" x2="69.81" y2="217.6"/><line class="cls-1" x1="75.25" y1="206.51" x2="69.81" y2="206.51"/><line class="cls-1" x1="72.24" y1="184.83" x2="66.79" y2="184.83"/><line class="cls-1" x1="75.25" y1="139.65" x2="69.81" y2="139.65"/><line class="cls-1" x1="75.25" y1="117.97" x2="69.81" y2="117.97"/><line class="cls-1" x1="75.25" y1="106.86" x2="69.81" y2="106.86"/><line class="cls-1" x1="75.25" y1="85.43" x2="69.81" y2="85.43"/><line class="cls-1" x1="75.25" y1="61.86" x2="69.81" y2="61.86"/><line class="cls-1" x1="442.84" y1="213.67" x2="448.29" y2="213.67"/><line class="cls-1" x1="442.84" y1="191.19" x2="448.29" y2="191.19"/><line class="cls-1" x1="442.84" y1="167.46" x2="448.29" y2="167.46"/><line class="cls-1" x1="442.84" y1="145.78" x2="448.29" y2="145.78"/><line class="cls-1" x1="442.84" y1="96.02" x2="448.29" y2="96.02"/><line class="cls-1" x1="442.84" y1="74.34" x2="448.29" y2="74.34"/><line class="cls-1" x1="442.84" y1="60.66" x2="448.29" y2="60.66"/><line class="cls-1" x1="460.94" y1="267.52" x2="466.39" y2="267.52"/><line class="cls-1" x1="460.94" y1="60.66" x2="466.39" y2="60.66"/><text class="cls-2" transform="translate(451.91 236.63) rotate(90)">200</text><text class="cls-2" transform="translate(374.72 281.74)">480</text><text class="cls-2" transform="translate(398.43 46.84)">80</text><text class="cls-2" transform="translate(376.61 46.84)">80</text><text class="cls-2" transform="translate(354.79 46.84)">80</text><text class="cls-2" transform="translate(280.83 46.84)">80</text><text class="cls-2" transform="translate(236.4 46.84)">80</text><text class="cls-2" transform="translate(329.56 46.84)">100</text><text class="cls-2" transform="translate(303.63 46.84)">100</text><text class="cls-2" transform="translate(215.22 46.84)">80</text><text class="cls-2" transform="translate(193.45 21.36) rotate(45)">100</text><text class="cls-2" transform="translate(112.24 28.67) rotate(-45)">100</text><text class="cls-2" transform="translate(151.02 9.77)">160</text><text class="cls-2" transform="translate(258.57 46.84)">80</text><text class="cls-2" transform="translate(419.94 46.84)">100</text><text class="cls-2" transform="translate(299.66 281.74)">140</text><text class="cls-2" transform="translate(217.63 281.74)">140</text><text class="cls-2" transform="translate(190.73 281.74)">100</text><text class="cls-2" transform="translate(145.51 281.74)">100</text><text class="cls-2" transform="translate(106.37 281.74)">240</text><text class="cls-2" transform="translate(67.66 257.05) rotate(-90)">120</text><text class="cls-2" transform="translate(67.66 231.1) rotate(-90)">80</text><text class="cls-2" transform="translate(67.66 198.31) rotate(-90)">80</text><text class="cls-2" transform="translate(67.66 131.45) rotate(-90)">80</text><text class="cls-2" transform="translate(67.66 98.79) rotate(-90)">80</text><text class="cls-2" transform="translate(67.66 77.61) rotate(-90)">100</text><text class="cls-2" transform="translate(67.66 115.06) rotate(-90)">40</text><text class="cls-2" transform="translate(67.66 166.2) rotate(-90)">180</text><text class="cls-2" transform="translate(67.66 214.7) rotate(-90)">40</text><text class="cls-2" transform="translate(170.17 281.74)">80</text><text class="cls-2" transform="translate(259.87 281.74)">200</text><text class="cls-2" transform="translate(253.6 298.54)">1480</text><text class="cls-2" transform="translate(451.91 199.79) rotate(90)">80</text><text class="cls-2" transform="translate(451.91 176.4) rotate(90)">80</text><text class="cls-2" transform="translate(451.91 153.73) rotate(90)">80</text><text class="cls-2" transform="translate(469.91 160.12) rotate(90)">780</text><text class="cls-2" transform="translate(451.91 82.54) rotate(90)">80</text><text class="cls-2" transform="translate(451.91 64.62) rotate(90)">60</text><text class="cls-2" transform="translate(451.91 116.94) rotate(90)">200</text><line class="cls-3" x1="463.66" y1="265.48" x2="463.66" y2="62.42"/><path class="cls-4" d="M463.66,265l-.9-.55,0,0,.59,1.47.33,1.54c.12-.52.23-1,.34-1.54l.59-1.47,0,0Z"/><polygon class="cls-4" points="463.67 60.66 464.68 63.15 463.67 62.56 462.65 63.15 463.67 60.66"/><line class="cls-3" x1="83.44" y1="290.22" x2="434.61" y2="290.22"/><path class="cls-4" d="M83.89,290.22l.55-.91,0,0-1.47.59-1.54.34,1.54.33,1.47.59,0,0Z"/><polygon class="cls-4" points="436.37 290.21 433.89 291.23 434.48 290.21 433.89 289.2 436.37 290.21"/><rect class="cls-5" x="83.12" y="63.65" width="18.2" height="18.38"/><path class="cls-5" d="M91.65,68.84a3,3,0,1,1-3.05-3A3,3,0,0,1,91.65,68.84Z"/><path class="cls-5" d="M90.09,68.84a1.49,1.49,0,1,1-1.49-1.49A1.49,1.49,0,0,1,90.09,68.84Z"/><path class="cls-5" d="M91.65,76.83a3,3,0,1,1-3.05-3A3.06,3.06,0,0,1,91.65,76.83Z"/><path class="cls-5" d="M90.09,76.83a1.49,1.49,0,1,1-3,0,1.49,1.49,0,0,1,3,0Z"/><circle class="cls-5" cx="96.48" cy="68.84" r="3.05"/><path class="cls-5" d="M98,68.84a1.49,1.49,0,1,1-1.49-1.49A1.49,1.49,0,0,1,98,68.84Z"/><path class="cls-5" d="M99.53,76.83a3,3,0,1,1-3-3A3,3,0,0,1,99.53,76.83Z"/><path class="cls-5" d="M98,76.83a1.49,1.49,0,1,1-3,0,1.49,1.49,0,0,1,3,0Z"/><line class="cls-6" x1="207.17" y1="82.81" x2="207.17" y2="196.49"/><line class="cls-6" x1="320.99" y1="179.62" x2="320.99" y2="265.78"/><line class="cls-6" x1="436.37" y1="145.78" x2="436.37" y2="96.02"/><line class="cls-6" x1="436.37" y1="191.19" x2="436.37" y2="167.46"/><polyline class="cls-6" points="285.81 265.78 436.37 265.78 436.37 212.87"/><line class="cls-6" x1="184.06" y1="265.78" x2="241.98" y2="265.78"/><polyline class="cls-6" points="81.4 239.3 81.4 265.78 162.38 265.78"/><line class="cls-6" x1="81.4" y1="206.51" x2="81.4" y2="217.61"/><line class="cls-6" x1="81.4" y1="139.65" x2="81.4" y2="184.83"/><line class="cls-6" x1="81.4" y1="106.86" x2="81.4" y2="117.97"/><polyline class="cls-6" points="115.22 38.2 110.42 42.99 110.5 62.64 81.4 62.64 81.4 85.18"/><polyline class="cls-6" points="144.29 19.43 133.99 19.43 127.77 25.64"/><polyline class="cls-6" points="182.38 25.64 176.16 19.43 165.97 19.43"/><polyline class="cls-6" points="228.58 82.81 199.72 82.81 199.72 42.99 194.93 38.2"/><line class="cls-6" x1="272.65" y1="82.81" x2="250.26" y2="82.81"/><polyline class="cls-6" points="346.59 60.66 322.51 60.66 322.51 82.81 294.33 82.81"/><line class="cls-6" x1="390.24" y1="60.66" x2="368.27" y2="60.66"/><polyline class="cls-6" points="436.37 74.34 436.37 60.66 411.92 60.66"/><rect class="cls-5" x="434.64" y="145.78" width="3.48" height="21.68"/><rect class="cls-5" x="434.64" y="191.19" width="3.48" height="21.68"/><rect class="cls-5" x="434.64" y="74.34" width="3.48" height="21.68"/><rect class="cls-5" x="390.24" y="58.92" width="21.68" height="3.48"/><rect class="cls-5" x="346.59" y="58.92" width="21.68" height="3.48"/><rect class="cls-5" x="272.65" y="81.07" width="21.68" height="3.48"/><rect class="cls-5" x="228.58" y="81.07" width="21.68" height="3.48"/><rect class="cls-5" x="144.29" y="17.69" width="21.68" height="3.48"/><rect class="cls-5" x="79.66" y="85.18" width="3.48" height="21.68"/><rect class="cls-5" x="79.66" y="117.97" width="3.48" height="21.68"/><rect class="cls-5" x="79.66" y="184.83" width="3.48" height="21.68"/><rect class="cls-5" x="79.66" y="217.61" width="3.48" height="21.68"/><rect class="cls-5" x="162.38" y="264.04" width="21.68" height="3.48"/><rect class="cls-5" x="186.8" y="23.13" width="3.48" height="17.77" transform="translate(32.58 142.69) rotate(-45)"/><rect class="cls-5" x="112.56" y="30.28" width="17.77" height="3.48" transform="translate(12.93 95.25) rotate(-45)"/><path class="cls-5" d="M361.3,179.29S361.53,199.67,339,201V179.29"/><line class="cls-7" x1="338.04" y1="179.29" x2="338.54" y2="179.29"/><line class="cls-8" x1="340.55" y1="179.29" x2="360.73" y2="179.29"/><line class="cls-7" x1="361.74" y1="179.29" x2="362.24" y2="179.29"/><path class="cls-5" d="M244.12,179.62s.23-20.38-22.28-21.71v21.71"/><line class="cls-7" x1="220.86" y1="179.62" x2="221.36" y2="179.62"/><line class="cls-9" x1="223.37" y1="179.62" x2="243.55" y2="179.62"/><line class="cls-7" x1="244.56" y1="179.62" x2="245.06" y2="179.62"/><path class="cls-5" d="M163,150s-.23-20.37,22.28-21.71V150"/><line class="cls-7" x1="186.26" y1="150" x2="185.76" y2="150"/><line class="cls-10" x1="183.74" y1="150" x2="163.57" y2="150"/><line class="cls-7" x1="162.56" y1="150" x2="162.06" y2="150"/><path class="cls-5" d="M149.47,182.43s-20.37-.22-21.7,22.29h21.7"/><line class="cls-7" x1="149.47" y1="205.7" x2="149.47" y2="205.2"/><line class="cls-8" x1="149.47" y1="203.18" x2="149.47" y2="183"/><line class="cls-7" x1="149.47" y1="181.99" x2="149.47" y2="181.49"/><path class="cls-5" d="M163.32,217.6S163.1,238,185.6,239.31V217.6"/><line class="cls-7" x1="186.59" y1="217.6" x2="186.09" y2="217.6"/><line class="cls-8" x1="184.07" y1="217.6" x2="163.89" y2="217.6"/><line class="cls-7" x1="162.88" y1="217.6" x2="162.38" y2="217.6"/><path class="cls-5" d="M263.84,265.78s.22-20.38-22.43-21.71v21.71"/><path class="cls-5" d="M263.84,265.78s-.23-20.38,22.42-21.71v21.71"/><line class="cls-7" x1="240.42" y1="265.78" x2="240.92" y2="265.78"/><line class="cls-11" x1="242.91" y1="265.78" x2="286.67" y2="265.78"/><line class="cls-7" x1="287.67" y1="265.78" x2="288.17" y2="265.78"/><line class="cls-6" x1="339" y1="179.62" x2="243.47" y2="179.62"/><line class="cls-6" x1="434.8" y1="179.62" x2="360.68" y2="179.62"/><line class="cls-6" x1="221.79" y1="179.62" x2="207.17" y2="179.62"/><line class="cls-6" x1="207.17" y1="150.42" x2="185.01" y2="150.42"/><line class="cls-6" x1="163.33" y1="150.42" x2="81.4" y2="150.42"/><polyline class="cls-6" points="207.17 266.87 207.17 217.62 185.01 217.62"/><polyline class="cls-6" points="163.33 217.62 139.27 217.62 139.27 265.78"/><line class="cls-6" x1="149.47" y1="217.61" x2="149.47" y2="204.74"/><line class="cls-6" x1="149.47" y1="183.06" x2="149.47" y2="150.42"/><rect class="cls-5" x="374.77" y="209.08" width="18.92" height="4.59" rx="1"/><rect class="cls-5" x="374.77" y="253.81" width="18.92" height="4.59" rx="1"/><rect class="cls-5" x="376.3" y="213.67" width="13" height="13.38" rx="1"/><rect class="cls-5" x="389.29" y="213.67" width="4.4" height="13.38" rx="1"/><rect class="cls-5" x="376.3" y="227.05" width="13" height="13.38" rx="1"/><rect class="cls-5" x="389.29" y="227.05" width="4.4" height="13.38" rx="1"/><rect class="cls-5" x="376.3" y="240.43" width="13" height="13.38" rx="1"/><rect class="cls-5" x="389.29" y="240.43" width="4.4" height="13.38" rx="1"/><rect class="cls-5" x="340.68" y="141.51" width="18.92" height="4.59" rx="1"/><rect class="cls-5" x="340.68" y="96.78" width="18.92" height="4.59" rx="1"/><rect class="cls-5" x="345.07" y="128.13" width="13" height="13.38" rx="1"/><rect class="cls-5" x="340.68" y="128.13" width="4.4" height="13.38" rx="1"/><rect class="cls-5" x="345.07" y="114.75" width="13" height="13.38" rx="1"/><rect class="cls-5" x="340.68" y="114.75" width="4.4" height="13.38" rx="1"/><rect class="cls-5" x="345.07" y="101.37" width="13" height="13.38" rx="1"/><rect class="cls-5" x="340.68" y="101.37" width="4.4" height="13.38" rx="1"/><rect class="cls-5" x="367.54" y="73.35" width="4.59" height="18.92" rx="1"/><rect class="cls-5" x="412.26" y="73.35" width="4.59" height="18.92" rx="1"/><rect class="cls-5" x="372.13" y="77.74" width="13.38" height="13" rx="1"/><rect class="cls-5" x="372.13" y="73.35" width="13.38" height="4.39" rx="1"/><rect class="cls-5" x="385.51" y="77.74" width="13.38" height="13" rx="1"/><rect class="cls-5" x="385.51" y="73.35" width="13.38" height="4.39" rx="1"/><rect class="cls-5" x="398.88" y="77.74" width="13.38" height="13" rx="1"/><rect class="cls-5" x="398.88" y="73.35" width="13.38" height="4.39" rx="1"/><rect class="cls-5" x="429.03" y="217.61" width="6.48" height="12.07"/><rect class="cls-5" x="429.03" y="229.69" width="6.48" height="12.07"/><rect class="cls-5" x="429.03" y="241.76" width="6.48" height="12.07"/><rect class="cls-5" x="324.23" y="215.27" width="3.62" height="36.93"/><polyline class="cls-5" points="273.59 179.62 273.59 196.49 304.33 196.49 304.33 226.06 320.99 226.06"/><line class="cls-3" x1="304.33" y1="222.7" x2="320.99" y2="222.7"/><line class="cls-3" x1="304.33" y1="219.11" x2="320.99" y2="219.11"/><line class="cls-3" x1="304.33" y1="215.53" x2="320.99" y2="215.53"/><line class="cls-3" x1="304.33" y1="211.95" x2="320.99" y2="211.95"/><line class="cls-3" x1="304.33" y1="208.36" x2="320.99" y2="208.36"/><line class="cls-3" x1="304.33" y1="204.78" x2="320.99" y2="204.78"/><line class="cls-3" x1="304.33" y1="201.19" x2="320.99" y2="201.19"/><line class="cls-3" x1="304.33" y1="197.61" x2="320.99" y2="197.61"/><line class="cls-3" x1="302.5" y1="196.49" x2="302.5" y2="179.83"/><line class="cls-3" x1="298.92" y1="196.49" x2="298.92" y2="179.83"/><line class="cls-3" x1="295.34" y1="196.49" x2="295.34" y2="179.83"/><line class="cls-3" x1="291.75" y1="196.49" x2="291.75" y2="179.83"/><line class="cls-3" x1="288.17" y1="196.49" x2="288.17" y2="179.83"/><line class="cls-3" x1="284.58" y1="196.49" x2="284.58" y2="179.83"/><line class="cls-3" x1="281" y1="196.49" x2="281" y2="179.83"/><line class="cls-3" x1="277.41" y1="196.49" x2="277.41" y2="179.83"/><polyline class="cls-5" points="311.72 231.81 311.72 188.38 270.53 188.38"/><path class="cls-4" d="M313.6,231.81a1.88,1.88,0,1,1-1.88-1.88A1.88,1.88,0,0,1,313.6,231.81Z"/><polygon class="cls-4" points="271.26 185.89 266.94 188.38 271.26 190.87 271.26 185.89"/><rect class="cls-5" x="195.51" y="224.17" width="10.43" height="14.42"/><path class="cls-5" d="M200.73,225.78c1.58,0,2.87,2.51,2.87,5.61s-1.29,5.6-2.87,5.6-2.88-2.51-2.88-5.6S199.14,225.78,200.73,225.78Z"/><rect class="cls-5" x="195.51" y="241.06" width="10.43" height="14.42"/><path class="cls-5" d="M200.73,242.67c1.58,0,2.87,2.51,2.87,5.6s-1.29,5.6-2.87,5.6-2.88-2.51-2.88-5.6S199.14,242.67,200.73,242.67Z"/><rect class="cls-5" x="139.54" y="244.69" width="5.45" height="9.28" rx="1"/><path class="cls-5" d="M142,250.39a1.06,1.06,0,0,1,0-2.12,1.06,1.06,0,0,1,0,2.12Z"/><path class="cls-5" d="M145,245.86h5s4.44,0,4.44,3.47c0,3-3.8,3.38-4.29,3.38H145"/><path class="cls-5" d="M150.09,251.35c-1.7,0-3.08-.92-3.08-2.07s1.38-2.07,3.08-2.07,3.08.93,3.08,2.07S151.79,251.35,150.09,251.35Z"/><rect class="cls-5" x="85.92" y="151.49" width="16.77" height="6.42"/><rect class="cls-5" x="102.69" y="151.49" width="16.77" height="6.42"/><rect class="cls-5" x="85.92" y="248.9" width="13.88" height="12.54"/><rect class="cls-5" x="89.76" y="259.17" width="8.15" height="2.28"/><rect class="cls-5" x="102.58" y="248.9" width="13.88" height="12.54"/><rect class="cls-5" x="106.41" y="259.17" width="8.15" height="2.28"/><rect class="cls-5" x="83.14" y="90.82" width="12.49" height="26.08"/><rect class="cls-5" x="86.52" y="100.4" width="6.02" height="6.02" rx="1"/><rect class="cls-5" x="86.52" y="108.03" width="6.02" height="6.02" rx="1"/><line class="cls-5" x1="86.83" y1="92.48" x2="86.83" y2="98.65"/><line class="cls-5" x1="88.18" y1="92.48" x2="88.18" y2="98.65"/><line class="cls-5" x1="89.53" y1="92.48" x2="89.53" y2="98.65"/><line class="cls-5" x1="90.88" y1="92.48" x2="90.88" y2="98.65"/><line class="cls-5" x1="92.22" y1="92.48" x2="92.22" y2="98.65"/><rect class="cls-5" x="83.14" y="116.9" width="12.49" height="15.88"/><rect class="cls-5" x="83.14" y="132.78" width="12.49" height="15.88"/><rect class="cls-5" x="83.14" y="82.02" width="14.27" height="8.79"/><path class="cls-5" d="M167.86,52.77A12.88,12.88,0,1,1,155,39.89,12.87,12.87,0,0,1,167.86,52.77Z"/><rect class="cls-5" x="152.18" y="31.92" width="5.61" height="5.57"/><rect class="cls-5" x="151.4" y="30.02" width="7.18" height="1.9"/><rect class="cls-5" x="152.18" y="68.05" width="5.61" height="5.57"/><rect class="cls-5" x="151.4" y="73.62" width="7.18" height="1.9"/><rect class="cls-5" x="134.14" y="49.96" width="5.57" height="5.61"/><rect class="cls-5" x="132.24" y="49.18" width="1.9" height="7.18"/><rect class="cls-5" x="170.27" y="49.96" width="5.57" height="5.61"/><rect class="cls-5" x="175.84" y="49.18" width="1.9" height="7.18"/><rect class="cls-5" x="128.45" y="86.41" width="15.33" height="45.61"/><path class="cls-5" d="M153.21,120.25a3.35,3.35,0,1,1-3.34-3.35A3.35,3.35,0,0,1,153.21,120.25Z"/><path class="cls-5" d="M153.21,109.21a3.35,3.35,0,1,1-3.34-3.35A3.35,3.35,0,0,1,153.21,109.21Z"/><path class="cls-5" d="M153.21,98.17a3.35,3.35,0,1,1-3.34-3.35A3.35,3.35,0,0,1,153.21,98.17Z"/><path class="cls-5" d="M125.71,120.25a3.35,3.35,0,1,1-3.34-3.35A3.34,3.34,0,0,1,125.71,120.25Z"/><path class="cls-5" d="M125.71,109.21a3.35,3.35,0,1,1-3.34-3.35A3.34,3.34,0,0,1,125.71,109.21Z"/><path class="cls-5" d="M125.71,98.17a3.35,3.35,0,1,1-3.34-3.35A3.34,3.34,0,0,1,125.71,98.17Z"/><path class="cls-5" d="M404.77,121A12.58,12.58,0,1,1,392.2,108.4,12.57,12.57,0,0,1,404.77,121Z"/><path class="cls-5" d="M357.69,85.18a6.12,6.12,0,1,1-6.12-6.11A6.12,6.12,0,0,1,357.69,85.18Z"/><rect class="cls-5" x="429.03" y="100.23" width="5.61" height="39.95"/><path class="cls-5" d="M283.72,121.45a11.91,11.91,0,0,1-11.91,11.91H251.19a11.91,11.91,0,0,1-11.91-11.91h0a11.91,11.91,0,0,1,11.91-11.91h20.62a11.91,11.91,0,0,1,11.91,11.91Z"/><rect class="cls-5" x="252.81" y="98.39" width="6.79" height="7.19" rx="1"/><rect class="cls-5" x="263.4" y="98.39" width="6.79" height="7.19" rx="1"/><rect class="cls-5" x="252.81" y="137.06" width="6.79" height="7.19" rx="1"/><rect class="cls-5" x="263.4" y="137.06" width="6.79" height="7.19" rx="1"/><rect class="cls-5" x="287.54" y="118.05" width="7.19" height="6.79" rx="1"/><rect class="cls-5" x="228.54" y="118.05" width="7.19" height="6.79" rx="1"/><line class="cls-1" x1="445.57" y1="267.52" x2="445.57" y2="60.66"/><line class="cls-1" x1="81.4" y1="275.37" x2="436.37" y2="275.37"/><line class="cls-1" x1="72.53" y1="61.86" x2="72.53" y2="266.87"/><polyline class="cls-1" points="207.17 51.49 320.46 51.49 436.37 51.49"/><line class="cls-1" x1="133.19" y1="12.49" x2="176.79" y2="12.49"/><line class="cls-1" x1="181.02" y1="14.41" x2="205.69" y2="39.09"/><line class="cls-1" x1="130.26" y1="14.41" x2="105.99" y2="38.68"/><polyline class="cls-12" points="365.32 184.3 426.35 184.3 426.35 260.31 330.06 260.31 330.06 184.3 335.4 184.3"/><rect class="cls-12" x="155.23" y="156.62" width="45.5" height="54.56"/><rect class="cls-12" x="213.02" y="188.16" width="55.43" height="51.16"/><rect class="cls-12" x="214.48" y="90.74" width="119.29" height="61.84"/><path class="cls-13" d="M135.79,6.12a11.31,11.31,0,0,0-3,22.2l3,4.29,3-4.29a11.31,11.31,0,0,0-3-22.2Z"/><path class="cls-14" d="M131.72,18a7.12,7.12,0,0,1,9.1,0"/><path class="cls-14" d="M129.41,15.75a10.32,10.32,0,0,1,13.67,0"/><path class="cls-14" d="M134,20.34a3.89,3.89,0,0,1,4.49,0"/><line class="cls-14" x1="136.24" y1="22.86" x2="136.25" y2="22.86"/><path class="cls-13" d="M177.79,21.12a11.31,11.31,0,0,0-3,22.2l3,4.29,3-4.29a11.31,11.31,0,0,0-3-22.2Z"/><path class="cls-14" d="M173.72,33a7.12,7.12,0,0,1,9.1,0"/><path class="cls-14" d="M171.41,30.75a10.32,10.32,0,0,1,13.67,0"/><path class="cls-14" d="M176,35.34a3.89,3.89,0,0,1,4.49,0"/><line class="cls-14" x1="178.24" y1="37.86" x2="178.25" y2="37.86"/><path class="cls-13" d="M133.79,46.12a11.31,11.31,0,0,0-3,22.2l3,4.29,3-4.29a11.31,11.31,0,0,0-3-22.2Z"/><path class="cls-14" d="M129.72,58a7.12,7.12,0,0,1,9.1,0"/><path class="cls-14" d="M127.41,55.75a10.32,10.32,0,0,1,13.67,0"/><path class="cls-14" d="M132,60.34a3.89,3.89,0,0,1,4.49,0"/><line class="cls-14" x1="134.24" y1="62.86" x2="134.25" y2="62.86"/></svg>