<?xml version="1.0" encoding="utf-8"?>
<!-- Generator: Adobe Illustrator 25.0.0, SVG Export Plug-In . SVG Version: 6.00 Build 0)  -->
<svg version="1.1" id="Layer_1" xmlns="http://www.w3.org/2000/svg" xmlns:xlink="http://www.w3.org/1999/xlink" x="0px" y="0px"
	 viewBox="0 0 500 300" style="enable-background:new 0 0 500 300;" xml:space="preserve">
<style type="text/css">
	.st0{fill:none;stroke:#D2F7FF;stroke-width:0.5;stroke-linecap:round;stroke-linejoin:round;stroke-miterlimit:10;}
	.st1{fill:#D2F7FF;}
	.st2{font-family:'CourierPrime';}
	.st3{font-size:6.1034px;}
	.st4{fill:none;stroke:#D2F7FF;stroke-width:0.5;stroke-miterlimit:10;}
	.st5{fill:none;stroke:#D2F7FF;stroke-miterlimit:10;}
	.st6{fill:none;stroke:#D2F7FF;stroke-width:3;stroke-miterlimit:10;}
	.st7{fill:none;stroke:#D2F7FF;stroke-linecap:round;stroke-linejoin:round;}
	.st8{fill:none;stroke:#D2F7FF;stroke-linecap:round;stroke-linejoin:round;stroke-dasharray:1.0088,2.0177;}
	.st9{fill:none;stroke:#D2F7FF;stroke-linecap:round;stroke-linejoin:round;stroke-dasharray:1.0089,2.0177;}
	.st10{fill:none;stroke:#D2F7FF;stroke-linecap:round;stroke-linejoin:round;stroke-dasharray:0.9946,1.9893;}
	
		.st11{fill:none;stroke:#D2F7FF;stroke-width:0.5;stroke-linecap:round;stroke-linejoin:round;stroke-miterlimit:10;stroke-dasharray:2,2;}
	.st12{fill:#FF1439;}
	.st13{fill:none;stroke:#FFFFFF;stroke-width:2;stroke-linecap:round;stroke-linejoin:round;}
</style>
<g>
	<line class="st0" x1="442.84" y1="267.52" x2="448.29" y2="267.52"/>
	<line class="st0" x1="436.37" y1="278.1" x2="436.37" y2="272.65"/>
	<line class="st0" x1="436.37" y1="54.21" x2="436.37" y2="48.77"/>
	<line class="st0" x1="411.91" y1="54.21" x2="411.91" y2="48.77"/>
	<line class="st0" x1="390.24" y1="54.21" x2="390.24" y2="48.77"/>
	<line class="st0" x1="368.27" y1="54.21" x2="368.27" y2="48.77"/>
	<line class="st0" x1="346.59" y1="54.21" x2="346.59" y2="48.77"/>
	<line class="st0" x1="320.46" y1="54.21" x2="320.46" y2="48.77"/>
	<line class="st0" x1="294.72" y1="54.21" x2="294.72" y2="48.77"/>
	<line class="st0" x1="272.65" y1="54.21" x2="272.65" y2="48.77"/>
	<line class="st0" x1="250.26" y1="54.21" x2="250.26" y2="48.77"/>
	<line class="st0" x1="228.54" y1="54.21" x2="228.54" y2="48.77"/>
	<line class="st0" x1="207.17" y1="54.21" x2="207.17" y2="48.77"/>
	<line class="st0" x1="176.79" y1="15.21" x2="176.79" y2="9.77"/>
	<line class="st0" x1="179.1" y1="16.34" x2="182.95" y2="12.49"/>
	<line class="st0" x1="203.32" y1="41.46" x2="207.17" y2="37.61"/>
	<line class="st0" x1="133.19" y1="15.21" x2="133.19" y2="9.77"/>
	<line class="st0" x1="132.19" y1="16.34" x2="128.34" y2="12.49"/>
	<line class="st0" x1="107.44" y1="40.13" x2="103.59" y2="36.28"/>
	<line class="st0" x1="436.37" y1="292.94" x2="436.37" y2="287.49"/>
	<line class="st0" x1="81.4" y1="292.94" x2="81.4" y2="287.49"/>
	<line class="st0" x1="320.99" y1="278.1" x2="320.99" y2="272.65"/>
	<line class="st0" x1="286.26" y1="278.1" x2="286.26" y2="272.65"/>
	<line class="st0" x1="241.41" y1="278.1" x2="241.41" y2="272.65"/>
	<line class="st0" x1="207.17" y1="278.1" x2="207.17" y2="272.65"/>
	<line class="st0" x1="184.06" y1="278.1" x2="184.06" y2="272.65"/>
	<line class="st0" x1="162.06" y1="278.1" x2="162.06" y2="272.65"/>
	<line class="st0" x1="139.27" y1="278.1" x2="139.27" y2="272.65"/>
	<line class="st0" x1="81.4" y1="278.1" x2="81.4" y2="272.65"/>
	<line class="st0" x1="75.25" y1="266.87" x2="69.81" y2="266.87"/>
	<line class="st0" x1="75.25" y1="239.31" x2="69.81" y2="239.31"/>
	<line class="st0" x1="75.25" y1="217.6" x2="69.81" y2="217.6"/>
	<line class="st0" x1="75.25" y1="206.51" x2="69.81" y2="206.51"/>
	<line class="st0" x1="72.24" y1="184.83" x2="66.79" y2="184.83"/>
	<line class="st0" x1="75.25" y1="139.65" x2="69.81" y2="139.65"/>
	<line class="st0" x1="75.25" y1="117.97" x2="69.81" y2="117.97"/>
	<line class="st0" x1="75.25" y1="106.86" x2="69.81" y2="106.86"/>
	<line class="st0" x1="75.25" y1="85.43" x2="69.81" y2="85.43"/>
	<line class="st0" x1="75.25" y1="61.86" x2="69.81" y2="61.86"/>
	<line class="st0" x1="442.84" y1="213.67" x2="448.29" y2="213.67"/>
	<line class="st0" x1="442.84" y1="191.19" x2="448.29" y2="191.19"/>
	<line class="st0" x1="442.84" y1="167.46" x2="448.29" y2="167.46"/>
	<line class="st0" x1="442.84" y1="145.78" x2="448.29" y2="145.78"/>
	<line class="st0" x1="442.84" y1="96.02" x2="448.29" y2="96.02"/>
	<line class="st0" x1="442.84" y1="74.34" x2="448.29" y2="74.34"/>
	<line class="st0" x1="442.84" y1="60.66" x2="448.29" y2="60.66"/>
	<line class="st0" x1="460.94" y1="267.52" x2="466.39" y2="267.52"/>
	<line class="st0" x1="460.94" y1="60.66" x2="466.39" y2="60.66"/>
	<text transform="matrix(0 1 -1 0 451.9141 236.6299)" class="st1 st2 st3">200</text>
	<text transform="matrix(1 0 0 1 374.7178 281.7359)" class="st1 st2 st3">480</text>
	<text transform="matrix(1 0 0 1 398.4336 46.8443)" class="st1 st2 st3">80</text>
	<text transform="matrix(1 0 0 1 376.6094 46.8443)" class="st1 st2 st3">80</text>
	<text transform="matrix(1 0 0 1 354.7871 46.8443)" class="st1 st2 st3">80</text>
	<text transform="matrix(1 0 0 1 280.832 46.8443)" class="st1 st2 st3">80</text>
	<text transform="matrix(1 0 0 1 236.3984 46.8443)" class="st1 st2 st3">80</text>
	<text transform="matrix(1 0 0 1 329.5615 46.8443)" class="st1 st2 st3">100</text>
	<text transform="matrix(1 0 0 1 303.6299 46.8443)" class="st1 st2 st3">100</text>
	<text transform="matrix(1 0 0 1 215.2168 46.8443)" class="st1 st2 st3">80</text>
	<text transform="matrix(0.7071 0.7071 -0.7071 0.7071 193.4467 21.3646)" class="st1 st2 st3">100</text>
	<text transform="matrix(0.7071 -0.7071 0.7071 0.7071 112.2396 28.6722)" class="st1 st2 st3">100</text>
	<text transform="matrix(1 0 0 1 151.0244 9.7657)" class="st1 st2 st3">160</text>
	<text transform="matrix(1 0 0 1 258.5703 46.8443)" class="st1 st2 st3">80</text>
	<text transform="matrix(1 0 0 1 419.9365 46.8443)" class="st1 st2 st3">100</text>
	<text transform="matrix(1 0 0 1 299.6631 281.7359)" class="st1 st2 st3">140</text>
	<text transform="matrix(1 0 0 1 217.6338 281.7359)" class="st1 st2 st3">140</text>
	<text transform="matrix(1 0 0 1 190.7275 281.7359)" class="st1 st2 st3">100</text>
	<text transform="matrix(1 0 0 1 145.5146 281.7359)" class="st1 st2 st3">100</text>
	<text transform="matrix(1 0 0 1 106.373 281.7359)" class="st1 st2 st3">240</text>
	<text transform="matrix(0 -1 1 0 67.6611 257.0533)" class="st1 st2 st3">120</text>
	<text transform="matrix(0 -1 1 0 67.6611 231.0972)" class="st1 st2 st3">80</text>
	<text transform="matrix(0 -1 1 0 67.6611 198.3121)" class="st1 st2 st3">80</text>
	<text transform="matrix(0 -1 1 0 67.6611 131.4517)" class="st1 st2 st3">80</text>
	<text transform="matrix(0 -1 1 0 67.6611 98.7891)" class="st1 st2 st3">80</text>
	<text transform="matrix(0 -1 1 0 67.6611 77.6065)" class="st1 st2 st3">100</text>
	<text transform="matrix(0 -1 1 0 67.6611 115.0596)" class="st1 st2 st3">40</text>
	<text transform="matrix(0 -1 1 0 67.6611 166.2037)" class="st1 st2 st3">180</text>
	<text transform="matrix(0 -1 1 0 67.6611 214.6978)" class="st1 st2 st3">40</text>
	<text transform="matrix(1 0 0 1 170.166 281.7359)" class="st1 st2 st3">80</text>
	<text transform="matrix(1 0 0 1 259.874 281.7359)" class="st1 st2 st3">200</text>
	<text transform="matrix(1 0 0 1 253.6035 298.5405)" class="st1 st2 st3">1480</text>
	<text transform="matrix(0 1 -1 0 451.9141 199.7871)" class="st1 st2 st3">80</text>
	<text transform="matrix(0 1 -1 0 451.9141 176.4043)" class="st1 st2 st3">80</text>
	<text transform="matrix(0 1 -1 0 451.9141 153.7344)" class="st1 st2 st3">80</text>
	<text transform="matrix(0 1 -1 0 469.9141 160.124)" class="st1 st2 st3">780</text>
	<text transform="matrix(0 1 -1 0 451.9141 82.541)" class="st1 st2 st3">80</text>
	<text transform="matrix(0 1 -1 0 451.9141 64.6152)" class="st1 st2 st3">60</text>
	<text transform="matrix(0 1 -1 0 451.9141 116.9385)" class="st1 st2 st3">200</text>
	<g>
		<g>
			<line class="st4" x1="463.66" y1="265.48" x2="463.66" y2="62.42"/>
			<g>
				<path class="st1" d="M463.66,265.03l-0.9-0.55l-0.02,0.03l0.58,1.47c0.11,0.51,0.23,1.02,0.34,1.54
					c0.11-0.51,0.23-1.02,0.34-1.54l0.58-1.47l-0.02-0.03L463.66,265.03z"/>
			</g>
			<g>
				<polygon class="st1" points="463.66,60.66 464.68,63.15 463.66,62.56 462.65,63.15 				"/>
			</g>
		</g>
	</g>
	<g>
		<g>
			<line class="st4" x1="83.44" y1="290.22" x2="434.61" y2="290.22"/>
			<g>
				<path class="st1" d="M83.89,290.22l0.55-0.9l-0.03-0.02l-1.47,0.58c-0.51,0.11-1.02,0.23-1.54,0.34
					c0.51,0.11,1.02,0.23,1.54,0.34l1.47,0.58l0.03-0.02L83.89,290.22z"/>
			</g>
			<g>
				<polygon class="st1" points="436.37,290.22 433.89,291.23 434.48,290.22 433.89,289.2 				"/>
			</g>
		</g>
	</g>
	<g>
		<g>
			<rect x="83.12" y="63.65" class="st5" width="18.2" height="18.38"/>
			<g>
				<path class="st5" d="M91.65,68.84c0,1.68-1.37,3.05-3.05,3.05c-1.68,0-3.05-1.36-3.05-3.05c0-1.68,1.36-3.05,3.05-3.05
					C90.28,65.79,91.65,67.16,91.65,68.84z"/>
				<path class="st5" d="M90.09,68.84c0,0.82-0.66,1.48-1.48,1.48c-0.82,0-1.48-0.66-1.48-1.48c0-0.82,0.67-1.48,1.48-1.48
					C89.42,67.35,90.09,68.02,90.09,68.84z"/>
				<path class="st5" d="M91.65,76.83c0,1.68-1.37,3.05-3.05,3.05c-1.68,0-3.05-1.37-3.05-3.05c0-1.68,1.36-3.05,3.05-3.05
					C90.28,73.79,91.65,75.15,91.65,76.83z"/>
				<path class="st5" d="M90.09,76.83c0,0.82-0.66,1.48-1.48,1.48c-0.82,0-1.48-0.66-1.48-1.48c0-0.82,0.67-1.48,1.48-1.48
					C89.42,75.35,90.09,76.01,90.09,76.83z"/>
				<circle class="st5" cx="96.48" cy="68.84" r="3.05"/>
				<path class="st5" d="M97.97,68.84c0,0.82-0.66,1.48-1.48,1.48c-0.82,0-1.48-0.66-1.48-1.48c0-0.82,0.66-1.48,1.48-1.48
					C97.3,67.35,97.97,68.02,97.97,68.84z"/>
				<path class="st5" d="M99.53,76.83c0,1.68-1.36,3.05-3.05,3.05c-1.68,0-3.05-1.37-3.05-3.05c0-1.68,1.36-3.05,3.05-3.05
					C98.17,73.79,99.53,75.15,99.53,76.83z"/>
				<path class="st5" d="M97.97,76.83c0,0.82-0.66,1.48-1.48,1.48c-0.82,0-1.48-0.66-1.48-1.48c0-0.82,0.66-1.48,1.48-1.48
					C97.3,75.35,97.97,76.01,97.97,76.83z"/>
			</g>
		</g>
		<line class="st6" x1="207.17" y1="82.81" x2="207.17" y2="196.49"/>
		<line class="st6" x1="320.99" y1="179.62" x2="320.99" y2="265.78"/>
		<line class="st6" x1="436.37" y1="145.78" x2="436.37" y2="96.02"/>
		<line class="st6" x1="436.37" y1="191.19" x2="436.37" y2="167.46"/>
		<polyline class="st6" points="285.82,265.78 436.37,265.78 436.37,212.87 		"/>
		<line class="st6" x1="184.06" y1="265.78" x2="241.98" y2="265.78"/>
		<polyline class="st6" points="81.4,239.3 81.4,265.78 162.38,265.78 		"/>
		<line class="st6" x1="81.4" y1="206.51" x2="81.4" y2="217.61"/>
		<line class="st6" x1="81.4" y1="139.65" x2="81.4" y2="184.83"/>
		<line class="st6" x1="81.4" y1="106.86" x2="81.4" y2="117.97"/>
		<polyline class="st6" points="115.22,38.2 110.42,42.99 110.5,62.64 81.4,62.64 81.4,85.18 		"/>
		<polyline class="st6" points="144.29,19.43 133.99,19.43 127.77,25.64 		"/>
		<polyline class="st6" points="182.38,25.64 176.16,19.43 165.97,19.43 		"/>
		<polyline class="st6" points="228.58,82.81 199.73,82.81 199.73,42.99 194.93,38.2 		"/>
		<line class="st6" x1="272.65" y1="82.81" x2="250.26" y2="82.81"/>
		<polyline class="st6" points="346.59,60.66 322.51,60.66 322.51,82.81 294.33,82.81 		"/>
		<line class="st6" x1="390.24" y1="60.66" x2="368.27" y2="60.66"/>
		<polyline class="st6" points="436.37,74.34 436.37,60.66 411.91,60.66 		"/>
		<rect x="434.64" y="145.78" class="st5" width="3.48" height="21.68"/>
		<rect x="434.64" y="191.19" class="st5" width="3.48" height="21.68"/>
		<rect x="434.64" y="74.34" class="st5" width="3.48" height="21.68"/>
		<rect x="390.24" y="58.92" class="st5" width="21.68" height="3.48"/>
		<rect x="346.59" y="58.92" class="st5" width="21.68" height="3.48"/>
		<rect x="272.65" y="81.07" class="st5" width="21.68" height="3.48"/>
		<rect x="228.58" y="81.07" class="st5" width="21.68" height="3.48"/>
		<rect x="144.29" y="17.69" class="st5" width="21.68" height="3.48"/>
		<rect x="79.66" y="85.18" class="st5" width="3.48" height="21.68"/>
		<rect x="79.66" y="117.97" class="st5" width="3.48" height="21.68"/>
		<rect x="79.66" y="184.83" class="st5" width="3.48" height="21.68"/>
		<rect x="79.66" y="217.61" class="st5" width="3.48" height="21.68"/>
		<rect x="162.38" y="264.04" class="st5" width="21.68" height="3.48"/>
		
			<rect x="186.8" y="23.13" transform="matrix(0.7071 -0.7071 0.7071 0.7071 32.5792 142.6918)" class="st5" width="3.48" height="17.77"/>
		
			<rect x="112.56" y="30.28" transform="matrix(0.7071 -0.7071 0.7071 0.7071 12.9297 95.2537)" class="st5" width="17.77" height="3.48"/>
		<g>
			<path class="st5" d="M361.3,179.29c0,0,0.22,20.38-22.28,21.71v-21.71"/>
			<g>
				<g>
					<line class="st7" x1="338.04" y1="179.29" x2="338.54" y2="179.29"/>
					<line class="st8" x1="340.55" y1="179.29" x2="360.73" y2="179.29"/>
					<line class="st7" x1="361.74" y1="179.29" x2="362.24" y2="179.29"/>
				</g>
			</g>
		</g>
		<g>
			<path class="st5" d="M244.12,179.62c0,0,0.22-20.38-22.28-21.71v21.71"/>
			<g>
				<g>
					<line class="st7" x1="220.86" y1="179.62" x2="221.36" y2="179.62"/>
					<line class="st9" x1="223.37" y1="179.62" x2="243.55" y2="179.62"/>
					<line class="st7" x1="244.56" y1="179.62" x2="245.06" y2="179.62"/>
				</g>
			</g>
		</g>
		<g>
			<path class="st5" d="M163,150c0,0-0.22-20.38,22.28-21.71V150"/>
			<g>
				<g>
					<line class="st7" x1="186.26" y1="150" x2="185.76" y2="150"/>
					<line class="st8" x1="183.74" y1="150" x2="163.57" y2="150"/>
					<line class="st7" x1="162.56" y1="150" x2="162.06" y2="150"/>
				</g>
			</g>
		</g>
		<g>
			<path class="st5" d="M149.47,182.43c0,0-20.38-0.22-21.71,22.28h21.71"/>
			<g>
				<g>
					<line class="st7" x1="149.47" y1="205.7" x2="149.47" y2="205.2"/>
					<line class="st8" x1="149.47" y1="203.18" x2="149.47" y2="183"/>
					<line class="st7" x1="149.47" y1="181.99" x2="149.47" y2="181.49"/>
				</g>
			</g>
		</g>
		<g>
			<path class="st5" d="M163.32,217.6c0,0-0.22,20.38,22.28,21.71V217.6"/>
			<g>
				<g>
					<line class="st7" x1="186.59" y1="217.6" x2="186.09" y2="217.6"/>
					<line class="st8" x1="184.07" y1="217.6" x2="163.89" y2="217.6"/>
					<line class="st7" x1="162.88" y1="217.6" x2="162.38" y2="217.6"/>
				</g>
			</g>
		</g>
		<g>
			<path class="st5" d="M263.84,265.78c0,0,0.23-20.38-22.43-21.71v21.71"/>
			<path class="st5" d="M263.84,265.78c0,0-0.23-20.38,22.43-21.71v21.71"/>
			<g>
				<g>
					<line class="st7" x1="240.42" y1="265.78" x2="240.92" y2="265.78"/>
					<line class="st10" x1="242.91" y1="265.78" x2="286.67" y2="265.78"/>
					<line class="st7" x1="287.67" y1="265.78" x2="288.17" y2="265.78"/>
				</g>
			</g>
		</g>
		<g>
			<line class="st6" x1="339" y1="179.62" x2="243.47" y2="179.62"/>
			<line class="st6" x1="434.8" y1="179.62" x2="360.68" y2="179.62"/>
			<line class="st6" x1="221.79" y1="179.62" x2="207.17" y2="179.62"/>
		</g>
		<g>
			<line class="st6" x1="207.17" y1="150.42" x2="185.01" y2="150.42"/>
			<line class="st6" x1="163.33" y1="150.42" x2="81.4" y2="150.42"/>
		</g>
		<g>
			<polyline class="st6" points="207.17,266.87 207.17,217.61 185.01,217.61 			"/>
			<polyline class="st6" points="163.33,217.61 139.27,217.61 139.27,265.78 			"/>
		</g>
		<g>
			<line class="st6" x1="149.47" y1="217.61" x2="149.47" y2="204.74"/>
			<line class="st6" x1="149.47" y1="183.06" x2="149.47" y2="150.42"/>
		</g>
		<g>
			<g>
				<path class="st5" d="M393.69,212.67c0,0.55-0.45,1-1,1h-16.92c-0.55,0-1-0.45-1-1v-2.59c0-0.55,0.45-1,1-1h16.92
					c0.55,0,1,0.45,1,1V212.67z"/>
			</g>
			<g>
				<path class="st5" d="M393.69,257.39c0,0.55-0.45,1-1,1h-16.92c-0.55,0-1-0.45-1-1v-2.59c0-0.55,0.45-1,1-1h16.92
					c0.55,0,1,0.45,1,1V257.39z"/>
			</g>
			<g>
				<path class="st5" d="M389.29,226.05c0,0.55-0.45,1-1,1h-11c-0.55,0-1-0.45-1-1v-11.38c0-0.55,0.45-1,1-1h11c0.55,0,1,0.45,1,1
					V226.05z"/>
			</g>
			<g>
				<path class="st5" d="M393.69,226.05c0,0.55-0.45,1-1,1h-2.4c-0.55,0-1-0.45-1-1v-11.38c0-0.55,0.45-1,1-1h2.4c0.55,0,1,0.45,1,1
					V226.05z"/>
			</g>
			<g>
				<path class="st5" d="M389.29,239.43c0,0.55-0.45,1-1,1h-11c-0.55,0-1-0.45-1-1v-11.38c0-0.55,0.45-1,1-1h11c0.55,0,1,0.45,1,1
					V239.43z"/>
			</g>
			<g>
				<path class="st5" d="M393.69,239.43c0,0.55-0.45,1-1,1h-2.4c-0.55,0-1-0.45-1-1v-11.38c0-0.55,0.45-1,1-1h2.4c0.55,0,1,0.45,1,1
					V239.43z"/>
			</g>
			<g>
				<path class="st5" d="M389.29,252.81c0,0.55-0.45,1-1,1h-11c-0.55,0-1-0.45-1-1v-11.38c0-0.55,0.45-1,1-1h11c0.55,0,1,0.45,1,1
					V252.81z"/>
			</g>
			<g>
				<path class="st5" d="M393.69,252.81c0,0.55-0.45,1-1,1h-2.4c-0.55,0-1-0.45-1-1v-11.38c0-0.55,0.45-1,1-1h2.4c0.55,0,1,0.45,1,1
					V252.81z"/>
			</g>
		</g>
		<g>
			<g>
				<path class="st5" d="M340.68,142.51c0-0.55,0.45-1,1-1h16.92c0.55,0,1,0.45,1,1v2.59c0,0.55-0.45,1-1,1h-16.92
					c-0.55,0-1-0.45-1-1V142.51z"/>
			</g>
			<g>
				<path class="st5" d="M340.68,97.78c0-0.55,0.45-1,1-1h16.92c0.55,0,1,0.45,1,1v2.59c0,0.55-0.45,1-1,1h-16.92
					c-0.55,0-1-0.45-1-1V97.78z"/>
			</g>
			<g>
				<path class="st5" d="M345.07,129.13c0-0.55,0.45-1,1-1h11c0.55,0,1,0.45,1,1v11.38c0,0.55-0.45,1-1,1h-11c-0.55,0-1-0.45-1-1
					V129.13z"/>
			</g>
			<g>
				<path class="st5" d="M340.68,129.13c0-0.55,0.45-1,1-1h2.4c0.55,0,1,0.45,1,1v11.38c0,0.55-0.45,1-1,1h-2.4c-0.55,0-1-0.45-1-1
					V129.13z"/>
			</g>
			<g>
				<path class="st5" d="M345.07,115.75c0-0.55,0.45-1,1-1h11c0.55,0,1,0.45,1,1v11.38c0,0.55-0.45,1-1,1h-11c-0.55,0-1-0.45-1-1
					V115.75z"/>
			</g>
			<g>
				<path class="st5" d="M340.68,115.75c0-0.55,0.45-1,1-1h2.4c0.55,0,1,0.45,1,1v11.38c0,0.55-0.45,1-1,1h-2.4c-0.55,0-1-0.45-1-1
					V115.75z"/>
			</g>
			<g>
				<path class="st5" d="M345.07,102.37c0-0.55,0.45-1,1-1h11c0.55,0,1,0.45,1,1v11.38c0,0.55-0.45,1-1,1h-11c-0.55,0-1-0.45-1-1
					V102.37z"/>
			</g>
			<g>
				<path class="st5" d="M340.68,102.37c0-0.55,0.45-1,1-1h2.4c0.55,0,1,0.45,1,1v11.38c0,0.55-0.45,1-1,1h-2.4c-0.55,0-1-0.45-1-1
					V102.37z"/>
			</g>
		</g>
		<g>
			<g>
				<path class="st5" d="M371.13,73.35c0.55,0,1,0.45,1,1v16.92c0,0.55-0.45,1-1,1h-2.59c-0.55,0-1-0.45-1-1V74.35
					c0-0.55,0.45-1,1-1H371.13z"/>
			</g>
			<g>
				<path class="st5" d="M415.85,73.35c0.55,0,1,0.45,1,1v16.92c0,0.55-0.45,1-1,1h-2.59c-0.55,0-1-0.45-1-1V74.35
					c0-0.55,0.45-1,1-1H415.85z"/>
			</g>
			<g>
				<path class="st5" d="M384.51,77.74c0.55,0,1,0.45,1,1v11c0,0.55-0.45,1-1,1h-11.38c-0.55,0-1-0.45-1-1v-11c0-0.55,0.45-1,1-1
					H384.51z"/>
			</g>
			<g>
				<path class="st5" d="M384.51,73.35c0.55,0,1,0.45,1,1v2.39c0,0.55-0.45,1-1,1h-11.38c-0.55,0-1-0.45-1-1v-2.39
					c0-0.55,0.45-1,1-1H384.51z"/>
			</g>
			<g>
				<path class="st5" d="M397.88,77.74c0.55,0,1,0.45,1,1v11c0,0.55-0.45,1-1,1h-11.38c-0.55,0-1-0.45-1-1v-11c0-0.55,0.45-1,1-1
					H397.88z"/>
			</g>
			<g>
				<path class="st5" d="M397.88,73.35c0.55,0,1,0.45,1,1v2.39c0,0.55-0.45,1-1,1h-11.38c-0.55,0-1-0.45-1-1v-2.39
					c0-0.55,0.45-1,1-1H397.88z"/>
			</g>
			<g>
				<path class="st5" d="M411.26,77.74c0.55,0,1,0.45,1,1v11c0,0.55-0.45,1-1,1h-11.38c-0.55,0-1-0.45-1-1v-11c0-0.55,0.45-1,1-1
					H411.26z"/>
			</g>
			<g>
				<path class="st5" d="M411.26,73.35c0.55,0,1,0.45,1,1v2.39c0,0.55-0.45,1-1,1h-11.38c-0.55,0-1-0.45-1-1v-2.39
					c0-0.55,0.45-1,1-1H411.26z"/>
			</g>
		</g>
		<rect x="429.03" y="217.61" class="st5" width="6.48" height="12.07"/>
		<rect x="429.03" y="229.69" class="st5" width="6.48" height="12.07"/>
		<rect x="429.03" y="241.76" class="st5" width="6.48" height="12.07"/>
		<rect x="324.23" y="215.27" class="st5" width="3.62" height="36.93"/>
		<polyline class="st5" points="273.59,179.62 273.59,196.49 304.33,196.49 304.33,226.06 320.99,226.06 		"/>
		<g>
			<line class="st4" x1="304.33" y1="222.7" x2="320.99" y2="222.7"/>
			<line class="st4" x1="304.33" y1="219.11" x2="320.99" y2="219.11"/>
			<line class="st4" x1="304.33" y1="215.53" x2="320.99" y2="215.53"/>
			<line class="st4" x1="304.33" y1="211.95" x2="320.99" y2="211.95"/>
			<line class="st4" x1="304.33" y1="208.36" x2="320.99" y2="208.36"/>
			<line class="st4" x1="304.33" y1="204.78" x2="320.99" y2="204.78"/>
			<line class="st4" x1="304.33" y1="201.19" x2="320.99" y2="201.19"/>
			<line class="st4" x1="304.33" y1="197.61" x2="320.99" y2="197.61"/>
		</g>
		<g>
			<line class="st4" x1="302.5" y1="196.49" x2="302.5" y2="179.83"/>
			<line class="st4" x1="298.92" y1="196.49" x2="298.92" y2="179.83"/>
			<line class="st4" x1="295.34" y1="196.49" x2="295.34" y2="179.83"/>
			<line class="st4" x1="291.75" y1="196.49" x2="291.75" y2="179.83"/>
			<line class="st4" x1="288.17" y1="196.49" x2="288.17" y2="179.83"/>
			<line class="st4" x1="284.58" y1="196.49" x2="284.58" y2="179.83"/>
			<line class="st4" x1="281" y1="196.49" x2="281" y2="179.83"/>
			<line class="st4" x1="277.41" y1="196.49" x2="277.41" y2="179.83"/>
		</g>
		<g>
			<g>
				<polyline class="st5" points="311.72,231.81 311.72,188.38 270.53,188.38 				"/>
				<g>
					<path class="st1" d="M313.6,231.81c0,1.04-0.84,1.88-1.88,1.88s-1.88-0.84-1.88-1.88c0-1.04,0.84-1.88,1.88-1.88
						S313.6,230.77,313.6,231.81z"/>
				</g>
				<g>
					<polygon class="st1" points="271.26,185.89 266.94,188.38 271.26,190.87 					"/>
				</g>
			</g>
		</g>
		<g>
			<rect x="195.51" y="224.17" class="st5" width="10.43" height="14.42"/>
			<path class="st5" d="M200.73,225.78c1.59,0,2.87,2.51,2.87,5.6c0,3.09-1.29,5.6-2.87,5.6c-1.59,0-2.87-2.51-2.87-5.6
				C197.85,228.29,199.14,225.78,200.73,225.78z"/>
		</g>
		<g>
			<rect x="195.51" y="241.06" class="st5" width="10.43" height="14.42"/>
			<path class="st5" d="M200.73,242.67c1.59,0,2.87,2.51,2.87,5.6c0,3.09-1.29,5.6-2.87,5.6c-1.59,0-2.87-2.51-2.87-5.6
				C197.85,245.18,199.14,242.67,200.73,242.67z"/>
		</g>
		<g>
			<g>
				<path class="st5" d="M140.54,253.97c-0.55,0-1-0.45-1-1v-7.28c0-0.55,0.45-1,1-1h3.45c0.55,0,1,0.45,1,1v7.28c0,0.55-0.45,1-1,1
					H140.54z"/>
			</g>
			<path class="st5" d="M141.98,250.39c-0.58,0-1.06-0.47-1.06-1.06c0-0.59,0.47-1.06,1.06-1.06c0.58,0,1.06,0.47,1.06,1.06
				C143.04,249.91,142.57,250.39,141.98,250.39z"/>
			<path class="st5" d="M144.99,245.86h5.03c0,0,4.44,0,4.44,3.47c0,2.99-3.8,3.38-4.29,3.38c-0.49,0-5.18,0-5.18,0"/>
			<path class="st5" d="M150.09,251.35c-1.7,0-3.08-0.93-3.08-2.07c0-1.14,1.38-2.07,3.08-2.07c1.7,0,3.08,0.93,3.08,2.07
				C153.17,250.43,151.79,251.35,150.09,251.35z"/>
		</g>
		<rect x="85.92" y="151.49" class="st5" width="16.77" height="6.42"/>
		<rect x="102.69" y="151.49" class="st5" width="16.77" height="6.42"/>
		<rect x="85.92" y="248.9" class="st5" width="13.88" height="12.55"/>
		<rect x="89.76" y="259.17" class="st5" width="8.15" height="2.28"/>
		<rect x="102.58" y="248.9" class="st5" width="13.88" height="12.55"/>
		<rect x="106.41" y="259.17" class="st5" width="8.15" height="2.28"/>
		<g>
			<rect x="83.14" y="90.82" class="st5" width="12.49" height="26.08"/>
			<g>
				<path class="st5" d="M92.54,105.42c0,0.55-0.45,1-1,1h-4.02c-0.55,0-1-0.45-1-1v-4.02c0-0.55,0.45-1,1-1h4.02c0.55,0,1,0.45,1,1
					V105.42z"/>
			</g>
			<g>
				<path class="st5" d="M92.54,113.05c0,0.55-0.45,1-1,1h-4.02c-0.55,0-1-0.45-1-1v-4.02c0-0.55,0.45-1,1-1h4.02c0.55,0,1,0.45,1,1
					V113.05z"/>
			</g>
			<g>
				<line class="st5" x1="86.83" y1="92.48" x2="86.83" y2="98.65"/>
				<line class="st5" x1="88.18" y1="92.48" x2="88.18" y2="98.65"/>
				<line class="st5" x1="89.53" y1="92.48" x2="89.53" y2="98.65"/>
				<line class="st5" x1="90.88" y1="92.48" x2="90.88" y2="98.65"/>
				<line class="st5" x1="92.22" y1="92.48" x2="92.22" y2="98.65"/>
			</g>
		</g>
		<rect x="83.14" y="116.9" class="st5" width="12.49" height="15.88"/>
		<rect x="83.14" y="132.78" class="st5" width="12.49" height="15.88"/>
		<rect x="83.14" y="82.02" class="st5" width="14.27" height="8.79"/>
		<g>
			<path class="st5" d="M167.86,52.77c0,7.11-5.76,12.88-12.88,12.88c-7.11,0-12.88-5.76-12.88-12.88c0-7.11,5.76-12.88,12.88-12.88
				C162.1,39.89,167.86,45.65,167.86,52.77z"/>
			<g>
				<rect x="152.18" y="31.92" class="st5" width="5.61" height="5.57"/>
				<rect x="151.4" y="30.02" class="st5" width="7.18" height="1.9"/>
			</g>
			<g>
				<rect x="152.18" y="68.05" class="st5" width="5.61" height="5.57"/>
				<rect x="151.4" y="73.62" class="st5" width="7.18" height="1.9"/>
			</g>
			<g>
				<rect x="134.14" y="49.96" class="st5" width="5.57" height="5.61"/>
				<rect x="132.24" y="49.18" class="st5" width="1.9" height="7.18"/>
			</g>
			<g>
				<rect x="170.27" y="49.96" class="st5" width="5.57" height="5.61"/>
				<rect x="175.84" y="49.18" class="st5" width="1.9" height="7.18"/>
			</g>
		</g>
		<rect x="128.45" y="86.41" class="st5" width="15.33" height="45.61"/>
		<g>
			<path class="st5" d="M153.21,120.25c0,1.85-1.5,3.35-3.35,3.35c-1.85,0-3.35-1.5-3.35-3.35c0-1.85,1.5-3.35,3.35-3.35
				C151.71,116.9,153.21,118.4,153.21,120.25z"/>
			<path class="st5" d="M153.21,109.21c0,1.85-1.5,3.35-3.35,3.35c-1.85,0-3.35-1.5-3.35-3.35c0-1.85,1.5-3.35,3.35-3.35
				C151.71,105.86,153.21,107.36,153.21,109.21z"/>
			<path class="st5" d="M153.21,98.17c0,1.85-1.5,3.35-3.35,3.35c-1.85,0-3.35-1.5-3.35-3.35c0-1.85,1.5-3.35,3.35-3.35
				C151.71,94.82,153.21,96.32,153.21,98.17z"/>
		</g>
		<g>
			<path class="st5" d="M125.71,120.25c0,1.85-1.5,3.35-3.35,3.35c-1.85,0-3.35-1.5-3.35-3.35c0-1.85,1.5-3.35,3.35-3.35
				C124.22,116.9,125.71,118.4,125.71,120.25z"/>
			<path class="st5" d="M125.71,109.21c0,1.85-1.5,3.35-3.35,3.35c-1.85,0-3.35-1.5-3.35-3.35c0-1.85,1.5-3.35,3.35-3.35
				C124.22,105.86,125.71,107.36,125.71,109.21z"/>
			<path class="st5" d="M125.71,98.17c0,1.85-1.5,3.35-3.35,3.35c-1.85,0-3.35-1.5-3.35-3.35c0-1.85,1.5-3.35,3.35-3.35
				C124.22,94.82,125.71,96.32,125.71,98.17z"/>
		</g>
		<path class="st5" d="M404.77,120.97c0,6.94-5.63,12.57-12.57,12.57c-6.95,0-12.57-5.63-12.57-12.57c0-6.94,5.63-12.57,12.57-12.57
			C399.14,108.4,404.77,114.03,404.77,120.97z"/>
		<path class="st5" d="M357.69,85.18c0,3.38-2.74,6.11-6.12,6.11c-3.38,0-6.12-2.74-6.12-6.11c0-3.38,2.74-6.12,6.12-6.12
			C354.95,79.07,357.69,81.81,357.69,85.18z"/>
		<rect x="429.03" y="100.23" class="st5" width="5.61" height="39.95"/>
		<g>
			<path class="st5" d="M283.72,121.45c0,6.58-5.33,11.91-11.91,11.91h-20.62c-6.58,0-11.91-5.33-11.91-11.91l0,0
				c0-6.58,5.33-11.91,11.91-11.91h20.62C278.39,109.54,283.72,114.87,283.72,121.45L283.72,121.45z"/>
			<g>
				<g>
					<path class="st5" d="M259.6,104.58c0,0.55-0.45,1-1,1h-4.79c-0.55,0-1-0.45-1-1v-5.19c0-0.55,0.45-1,1-1h4.79
						c0.55,0,1,0.45,1,1V104.58z"/>
				</g>
				<g>
					<path class="st5" d="M270.19,104.58c0,0.55-0.45,1-1,1h-4.79c-0.55,0-1-0.45-1-1v-5.19c0-0.55,0.45-1,1-1h4.79
						c0.55,0,1,0.45,1,1V104.58z"/>
				</g>
			</g>
			<g>
				<g>
					<path class="st5" d="M259.6,143.25c0,0.55-0.45,1-1,1h-4.79c-0.55,0-1-0.45-1-1v-5.19c0-0.55,0.45-1,1-1h4.79
						c0.55,0,1,0.45,1,1V143.25z"/>
				</g>
				<g>
					<path class="st5" d="M270.19,143.25c0,0.55-0.45,1-1,1h-4.79c-0.55,0-1-0.45-1-1v-5.19c0-0.55,0.45-1,1-1h4.79
						c0.55,0,1,0.45,1,1V143.25z"/>
				</g>
			</g>
			<g>
				<path class="st5" d="M293.72,118.05c0.55,0,1,0.45,1,1v4.79c0,0.55-0.45,1-1,1h-5.19c-0.55,0-1-0.45-1-1v-4.79
					c0-0.55,0.45-1,1-1H293.72z"/>
			</g>
			<g>
				<path class="st5" d="M234.73,118.05c0.55,0,1,0.45,1,1v4.79c0,0.55-0.45,1-1,1h-5.19c-0.55,0-1-0.45-1-1v-4.79
					c0-0.55,0.45-1,1-1H234.73z"/>
			</g>
		</g>
	</g>
	<line class="st0" x1="445.57" y1="267.52" x2="445.57" y2="60.66"/>
	<line class="st0" x1="81.4" y1="275.37" x2="436.37" y2="275.37"/>
	<line class="st0" x1="72.53" y1="61.86" x2="72.53" y2="266.87"/>
	<polyline class="st0" points="207.17,51.49 320.46,51.49 436.37,51.49 	"/>
	<line class="st0" x1="133.19" y1="12.49" x2="176.79" y2="12.49"/>
	<line class="st0" x1="181.02" y1="14.41" x2="205.69" y2="39.09"/>
	<line class="st0" x1="130.26" y1="14.41" x2="105.99" y2="38.68"/>
	<polyline class="st11" points="365.32,184.3 426.35,184.3 426.35,260.31 330.06,260.31 330.06,184.3 335.4,184.3 	"/>
	<rect x="155.23" y="156.62" class="st11" width="45.5" height="54.56"/>
	<rect x="213.02" y="188.16" class="st11" width="55.43" height="51.16"/>
	<rect x="214.48" y="90.74" class="st11" width="119.29" height="61.84"/>
</g>
<g>
	<g>
		<g>
			<path class="st12" d="M135.79,6.12c-6.25,0-11.31,5.06-11.31,11.31c0,5.19,3.5,9.57,8.27,10.89l3.04,4.29l3.04-4.29
				c4.77-1.33,8.27-5.7,8.27-10.89C147.1,11.18,142.03,6.12,135.79,6.12z"/>
		</g>
	</g>
	<g>
		<path class="st13" d="M131.72,18.04c2.64-2.2,6.46-2.2,9.1,0"/>
		<path class="st13" d="M129.41,15.75c3.91-3.44,9.77-3.44,13.68,0"/>
		<path class="st13" d="M134,20.34c1.34-0.96,3.15-0.96,4.49,0"/>
		<line class="st13" x1="136.24" y1="22.86" x2="136.25" y2="22.86"/>
	</g>
</g>
<g>
	<g>
		<g>
			<path class="st12" d="M426.79,149.12c-6.25,0-11.31,5.06-11.31,11.31c0,5.19,3.5,9.57,8.27,10.89l3.04,4.29l3.04-4.29
				c4.77-1.33,8.27-5.7,8.27-10.89C438.1,154.18,433.03,149.12,426.79,149.12z"/>
		</g>
	</g>
	<g>
		<path class="st13" d="M422.72,161.04c2.64-2.2,6.46-2.2,9.1,0"/>
		<path class="st13" d="M420.41,158.75c3.91-3.44,9.77-3.44,13.68,0"/>
		<path class="st13" d="M425,163.34c1.34-0.96,3.15-0.96,4.49,0"/>
		<line class="st13" x1="427.24" y1="165.86" x2="427.25" y2="165.86"/>
	</g>
</g>
</svg>
