<?xml version="1.0" encoding="utf-8"?>
<!-- Generator: Adobe Illustrator 25.0.0, SVG Export Plug-In . SVG Version: 6.00 Build 0)  -->
<svg version="1.1" id="Layer_1" xmlns="http://www.w3.org/2000/svg" xmlns:xlink="http://www.w3.org/1999/xlink" x="0px" y="0px"
	 viewBox="0 0 24 24" style="enable-background:new 0 0 24 24;" xml:space="preserve">
<style type="text/css">
	.st0{fill:none;stroke:#000000;stroke-width:2;stroke-linecap:round;stroke-linejoin:round;}
	.st1{fill:#FFFFFF;}
	.st2{display:none;}
	.st3{display:inline;fill:none;stroke:#32D893;stroke-linecap:round;stroke-linejoin:round;}
	.st4{fill:none;stroke:#32D893;stroke-linecap:round;stroke-linejoin:round;}
</style>
<g>
	<path class="st0" d="M1.9,9.6l9-7l9,7v11c0,1.1-0.9,2-2,2h-14c-1.1,0-2-0.9-2-2C1.9,20.6,1.9,9.6,1.9,9.6z"/>
	<polyline class="st0" points="7.9,22.6 7.9,12.6 13.9,12.6 13.9,22.6 	"/>
</g>
<circle class="st1" cx="20.7" cy="3.9" r="8.7"/>
<g class="st2">
	<path class="st3" d="M9.3,6.1c0,0,2.5-5,6.9-5s6.9,5,6.9,5s-2.5,5-6.9,5S9.3,6.1,9.3,6.1z"/>
	<circle class="st3" cx="16.2" cy="6.1" r="1.9"/>
</g>
<g>
	<line class="st4" x1="19" y1="1.3" x2="19" y2="9.6"/>
	<line class="st4" x1="14.8" y1="5.5" x2="23.2" y2="5.5"/>
</g>
</svg>
