<?xml version="1.0" encoding="utf-8"?>
<!-- Generator: Adobe Illustrator 25.0.0, SVG Export Plug-In . SVG Version: 6.00 Build 0)  -->
<svg version="1.1" id="Layer_1" xmlns="http://www.w3.org/2000/svg" xmlns:xlink="http://www.w3.org/1999/xlink" x="0px" y="0px"
	 viewBox="0 0 24 24" style="enable-background:new 0 0 24 24;" xml:space="preserve">
<style type="text/css">
	.st0{fill:none;stroke:#000000;stroke-width:2;stroke-linecap:round;stroke-linejoin:round;}
	.st1{fill:#FFFFFF;}
	.st2{fill:none;stroke:#32D893;stroke-linecap:round;stroke-linejoin:round;}
</style>
<g>
	<path class="st0" d="M1.9,9.6l9-7l9,7v11c0,1.1-0.9,2-2,2h-14c-1.1,0-2-0.9-2-2C1.9,20.6,1.9,9.6,1.9,9.6z"/>
	<polyline class="st0" points="7.9,22.6 7.9,12.6 13.9,12.6 13.9,22.6 	"/>
</g>
<circle class="st1" cx="16.2" cy="4.9" r="8.7"/>
<g>
	<path class="st2" d="M20.1,10c-1.1,0.8-2.4,1.3-3.8,1.3c-4.5,0-7-5.1-7-5.1c0.8-1.5,1.9-2.8,3.2-3.8 M15,1.2
		c0.4-0.1,0.9-0.2,1.3-0.2c4.5,0,7,5.1,7,5.1c-0.4,0.7-0.9,1.4-1.4,2 M17.7,7.6C17,8.3,15.8,8.4,15,7.7c-0.8-0.7-0.8-1.9-0.1-2.7
		c0,0,0.1-0.1,0.1-0.1"/>
	<line class="st2" x1="9.3" y1="-0.8" x2="23.4" y2="13.2"/>
</g>
</svg>
