<svg id="Layer_1" data-name="Layer 1" xmlns="http://www.w3.org/2000/svg" viewBox="0 0 236 146.84"><defs><style>.cls-1{fill:#f3f7fd;}.cls-2{fill:#e8f0fa;}.cls-3,.cls-5{fill:#fff;}.cls-3,.cls-4,.cls-5,.cls-6{stroke:#7c9dd2;stroke-miterlimit:10;}.cls-3,.cls-6,.cls-7{stroke-linecap:round;}.cls-3,.cls-4,.cls-5,.cls-6,.cls-7{stroke-width:2.5px;}.cls-4,.cls-6,.cls-7{fill:none;}.cls-7{stroke:#a7c1e6;stroke-linejoin:round;}</style></defs><path id="Background" class="cls-1" d="M212,103a7,7,0,1,1,7,7A7,7,0,0,1,212,103Zm-62,7a6.9,6.9,0,0,1-1.5-.17,6.9,6.9,0,0,1-1.5.17H56a7,7,0,1,1,0-14H17a7,7,0,0,1,0-14H57a7,7,0,0,0,0-14H32a7,7,0,0,1,0-14H72a7,7,0,0,1,0-14h57a7,7,0,0,1,0,14h64a7,7,0,0,1,0,14h22a7,7,0,0,1,0,14H196a7,7,0,0,0,0,14h6a7,7,0,0,1,0,14Z"/><path id="Rectangle" class="cls-2" d="M89,42h67l-6,9,8,6H87l9-6Z"/><path id="bag" class="cls-3" d="M156.54,135H90A4,4,0,0,1,86,131V59a3,3,0,0,1,3-3h69.48a2,2,0,0,1,2,2v73A4,4,0,0,1,156.54,135Z"/><path id="Rectangle-2" class="cls-4" d="M88,56V44a1.91,1.91,0,0,1,1.79-2h66.42A1.91,1.91,0,0,1,158,44V56"/><circle id="Oval" class="cls-5" cx="106.5" cy="73.45" r="3.5"/><circle id="Oval-2" class="cls-5" cx="139.5" cy="73.45" r="3.5"/><path id="Oval-3" class="cls-6" d="M139,77a16,16,0,0,1-32,0"/><path id="Path_3" data-name="Path 3" class="cls-6" d="M89.06,42.94l7.11,7a1,1,0,0,1,0,1.41.91.91,0,0,1-.23.17l-8,4.4"/><path id="Path_3-2" data-name="Path 3-2" class="cls-6" d="M157.11,43,150.31,50a1,1,0,0,0,0,1.42,1.12,1.12,0,0,0,.22.16l8.1,4.42"/><path id="lines" class="cls-7" d="M149.1,17.25,138,29.7ZM123,13Zm-26,4.3L108.1,29.7Z"/></svg>