<svg id="Layer_1" data-name="Layer 1" xmlns="http://www.w3.org/2000/svg" viewBox="0 0 236 125.89"><defs><style>.cls-1{fill:#f3f7fd;}.cls-2{fill:#fff;}.cls-3,.cls-5,.cls-6{fill:none;stroke:#7c9dd2;stroke-width:2.5px;}.cls-3,.cls-6{stroke-linecap:round;}.cls-3,.cls-5{stroke-miterlimit:10;}.cls-4{fill:#e8f0fa;}.cls-6{stroke-linejoin:round;}</style></defs><path id="Background" class="cls-1" d="M80.5,102a7,7,0,0,1,0-14h-39a7,7,0,0,1,0-14h40a7,7,0,0,0,0-14h-25a7,7,0,0,1,0-14h40a7,7,0,1,1,0-14h98a7,7,0,0,1,0,14h-40a7,7,0,0,1,0,14h22a7,7,0,0,1,0,14H166.33c-4.88,0-8.83,3.13-8.83,7s6,7,6,7a7,7,0,0,1,0,14Zm107-35a7,7,0,1,1,7,7A7,7,0,0,1,187.5,67Z"/><path id="Rectangle" class="cls-2" d="M55,40.89a3,3,0,0,1,2.49-3.43l83-13.29a3,3,0,0,1,3.43,2.49h0L152,78.5a3,3,0,0,1-2.49,3.43l-83,13.29a3,3,0,0,1-3.43-2.49h0Z"/><path id="Shape" class="cls-3" d="M67,95a4,4,0,0,1-4-3.52L55.55,42a4.17,4.17,0,0,1,3.33-4.78L139.06,24a3.87,3.87,0,0,1,3.22.94,4.21,4.21,0,0,1,1.37,2.53l.44,2.92v.05c.13.89.25,1.66.35,2.33l-73.6,61.6-3.19.52A4.48,4.48,0,0,1,67,95Z"/><path id="Rectangle-2" class="cls-4" d="M59,43.18a3,3,0,0,1,2.48-3.44h0l75.76-11.83a3,3,0,0,1,3.42,2.49L148,76.21a3,3,0,0,1-2.48,3.44h0L69.76,91.49A3,3,0,0,1,66.34,89Z"/><g id="Rectangle-3"><rect class="cls-2" x="74.5" y="42.95" width="89" height="59" rx="4"/><rect class="cls-5" x="75.75" y="44.2" width="86.5" height="56.5" rx="2.75"/></g><rect id="Rectangle-4" class="cls-4" x="77" y="55.95" width="84" height="14"/><path id="lines" class="cls-6" d="M84.26,88ZM76.83,69Zm19-13ZM83.59,56Z"/></svg>