<svg id="Layer_1" data-name="Layer 1" xmlns="http://www.w3.org/2000/svg" viewBox="0 0 236 136.03"><defs><style>.cls-1{fill:#f3f7fd;}.cls-2,.cls-4{fill:#fff;stroke-miterlimit:10;stroke-width:2.5px;}.cls-2,.cls-5{stroke:#7c9dd2;}.cls-2,.cls-3,.cls-4{stroke-linecap:round;}.cls-3{fill:none;stroke-linejoin:round;}.cls-3,.cls-4{stroke:#a7c1e6;}.cls-3,.cls-5{stroke-width:2.5px;}.cls-5{fill:#e8f0fa;stroke-miterlimit:10;}</style></defs><path id="BG" class="cls-1" d="M212,92.43a7,7,0,1,1,7,7A7,7,0,0,1,212,92.43Zm-156,7a7,7,0,0,1,0-14H17a7,7,0,0,1,0-14H57a7,7,0,0,0,0-14H32a7,7,0,0,1,0-14H72a7,7,0,0,1,0-14h57a7,7,0,0,1,0,14h64a7,7,0,0,1,0,14h22a7,7,0,0,1,0,14H196a7,7,0,0,0,0,14h6a7,7,0,0,1,0,14Z"/><path id="Shape" class="cls-2" d="M155.72,102.86a39,39,0,0,1-5.83,4.65l7.5-6.37C156.88,101.71,156.32,102.29,155.72,102.86Zm4.5-5h0l-13.95,11.68a47.6,47.6,0,0,1-18.7,5.77A48.38,48.38,0,0,1,80.83,90.64a48,48,0,0,1,67.54-63.9,48.73,48.73,0,0,1,14.08,13.51A47.93,47.93,0,0,1,160.22,97.86Z"/><g id="bling"><path id="Line" class="cls-3" d="M169.5,10.43v6"/><path id="Line-2" class="cls-3" d="M169.5,24.43v6"/><path id="Line-3" class="cls-3" d="M159.5,20.43h6"/><path id="Line-4" class="cls-3" d="M173.5,20.43h6"/></g><g id="bling-2"><path id="Line-5" class="cls-3" d="M86.5,113.43v4"/><path id="Line-6" class="cls-3" d="M86.5,125.43v4"/><path id="Line-7" class="cls-3" d="M78.5,121.43h4"/><path id="Line-8" class="cls-3" d="M90.5,121.43h4"/></g><path id="Shape-2" class="cls-4" d="M108.17,28.13,90.84,40.41q1.41-1.66,3-3.2a41.81,41.81,0,0,1,14.35-9.09ZM84.66,50.29h0c.39-.89.82-1.76,1.27-2.6a38.14,38.14,0,0,1,2-3.43Z"/><path id="Path_7" data-name="Path 7" class="cls-5" d="M104,66.8a3.61,3.61,0,0,0-5,.23A3.49,3.49,0,0,0,99.11,72l0,0L116,87.14a5,5,0,0,0,7.06-.31l.16-.18,24-28.44a3.49,3.49,0,0,0-.4-4.92l-.06,0a3.61,3.61,0,0,0-5,.45L119.13,80.45Z"/></svg>