<svg id="Layer_1" data-name="Layer 1" xmlns="http://www.w3.org/2000/svg" viewBox="0 0 236 136.03"><defs><style>.cls-1{fill:#f3f7fd;}.cls-2{fill:#fff;}.cls-3{fill:#7c9dd2;}.cls-4{fill:none;stroke:#a7c1e6;stroke-linecap:round;stroke-miterlimit:10;stroke-width:2.5px;}</style></defs><path id="Background" class="cls-1" d="M77.84,106.67a7,7,0,0,1,0-14h-39a7,7,0,0,1,0-14h40a7,7,0,0,0,0-14h-25a7,7,0,0,1,0-14h40a7,7,0,0,1,0-14h98a7,7,0,0,1,0,14h-40a7,7,0,0,1,0,14h22a7,7,0,0,1,0,14H163.66c-4.87,0-8.82,3.13-8.82,7s6,7,6,7a7,7,0,0,1,0,14Zm107-35a7,7,0,1,1,7,7A7,7,0,0,1,184.84,71.67Z"/><g id="Shape"><path class="cls-2" d="M144.84,115.42h-45a.75.75,0,0,1-.75-.75V96.37l-1.29,0h-.46a13.51,13.51,0,0,1-10-4.58,16.94,16.94,0,0,1,0-22.35,13.5,13.5,0,0,1,10-4.57h.46l1.29,0V53.67a2.75,2.75,0,0,1,2.75-2.75h41a2.75,2.75,0,0,1,2.75,2.75v61A.76.76,0,0,1,144.84,115.42Zm-47.5-44.5c-4.68,0-8.49,4.37-8.49,9.75s3.81,9.75,8.49,9.75l.59,0,1.16-.09V71l-1.15-.09C97.74,70.92,97.54,70.92,97.34,70.92Z"/><path class="cls-3" d="M144.34,114.17V53.67a1.5,1.5,0,0,0-1.5-1.5h-41a1.5,1.5,0,0,0-1.5,1.5V66.26l-2.58-.09h-.42a12.23,12.23,0,0,0-9.11,4.16,15.67,15.67,0,0,0,0,20.67,12.24,12.24,0,0,0,9.11,4.17h.42l2.58-.08v19.09h44m-47-44.5.7,0,2.3.19V91.46L98,91.64l-.69,0c-5.37,0-9.74-4.94-9.74-11s4.37-11,9.74-11m47.5,47h-45a2,2,0,0,1-2-2v-17h-.5a14.75,14.75,0,0,1-11-5,18.2,18.2,0,0,1,0-24,14.74,14.74,0,0,1,11-5h.5v-10a4,4,0,0,1,4-4h41a4,4,0,0,1,4,4v61A2,2,0,0,1,144.84,116.67Zm-47.5-44.5c-4,0-7.24,3.81-7.24,8.5s3.25,8.5,7.24,8.5l.5,0v-17A4.1,4.1,0,0,0,97.34,72.17Z"/></g><path id="line-2" class="cls-4" d="M124.84,8.67s-4,6.32-4,11c0,5.55,4.65,8,4.65,14.06,0,4.58-4.65,9.1-4.65,9.1"/><path id="line-3" class="cls-4" d="M112.84,19.67c-.88,5.51,3,6.53,3,11.47,0,3.76-3,7.53-3,7.53"/><path id="line-4" class="cls-4" d="M131.63,17.14c-1.32,3.42-.58,5.5,0,6.73,1.24,2.62,3.2,4.88,3.2,7.55,0,4.65-3.2,8.95-3.2,8.95"/></svg>