<?xml version="1.0" encoding="utf-8"?>
<!-- Generator: Adobe Illustrator 25.0.0, SVG Export Plug-In . SVG Version: 6.00 Build 0)  -->
<svg version="1.1" id="Layer_1" xmlns="http://www.w3.org/2000/svg" xmlns:xlink="http://www.w3.org/1999/xlink" x="0px" y="0px"
	 viewBox="0 0 236 125.89" style="enable-background:new 0 0 236 125.89;" xml:space="preserve">
<style type="text/css">
	.st0{fill:#F3F7FD;}
	.st1{fill:#FFFFFF;stroke:#7C9DD2;stroke-width:2.5;stroke-linecap:round;stroke-miterlimit:10;}
	.st2{fill:#E8F0FA;}
	.st3{fill:#FFFFFF;}
	.st4{fill:#7C9DD2;}
	.st5{fill:none;stroke:#7C9DD2;stroke-width:2.5;stroke-linecap:round;stroke-linejoin:round;stroke-miterlimit:10;}
	.st6{fill:none;stroke:#A7C1E6;stroke-width:2.5;stroke-linecap:round;stroke-linejoin:round;stroke-miterlimit:10;}
</style>
<path id="Background" class="st0" d="M77.84,97.78c-3.87,0-7-3.13-7-7c0-3.87,3.13-7,7-7h-39c-3.87,0-7-3.13-7-7c0-3.87,3.13-7,7-7
	h40c3.87,0,7-3.13,7-7s-3.13-7-7-7h-25c-3.87,0-7-3.13-7-7s3.13-7,7-7h40c-3.87,0-7-3.13-7-7s3.13-7,7-7h98c3.87,0,7,3.13,7,7
	s-3.13,7-7,7h-40c3.87,0,7,3.13,7,7s-3.13,7-7,7h22c3.87,0,7,3.13,7,7s-3.13,7-7,7h-10.17c-4.88,0-8.83,3.13-8.83,7c0,3.87,6,7,6,7
	c3.87,0,7,3.13,7,7c0,3.87-3.13,7-7,7H77.84z M184.84,62.78c0-3.87,3.13-7,7-7s7,3.13,7,7s-3.13,7-7,7S184.84,66.65,184.84,62.78z"
	/>
<path id="Shape" class="st1" d="M145.16,105.89l-58.56,7.19c-2.19,0.27-4.19-1.29-4.46-3.48l-9.02-73.43
	c-0.13-1.1,0.65-2.09,1.74-2.23l0.02,0l4.86-0.55l3.93-0.44l2.82-0.32l52.01-5.85l9.3,67.84l0.84,6.81
	C148.92,103.62,147.36,105.62,145.16,105.89z"/>
<path id="Rectangle" class="st2" d="M135.98,31.05l8.42,61.48l0.76,6.17c0.26,1.97-1.13,3.78-3.11,4.03c0,0,0,0-0.01,0l-52.44,6.44
	c-1.97,0.23-3.76-1.18-4-3.15c0,0,0,0,0-0.01l-8.15-66.38c-0.13-1.1,0.65-2.09,1.74-2.23l6.49-0.8"/>
<g id="Rectangle-2" transform="translate(106.672 50)">
	<path class="st3" d="M47.84,45.53h-59c-1.52,0-2.75-1.23-2.75-2.75v-76c0-1.52,1.23-2.75,2.75-2.75h45.56
		c0.73,0,1.42,0.29,1.94,0.8l13.44,13.43c0.52,0.52,0.81,1.21,0.81,1.95v62.57C50.59,44.3,49.35,45.53,47.84,45.53z"/>
	<path class="st4" d="M-11.16-34.72c-0.83,0-1.5,0.67-1.5,1.5v76c0,0.83,0.67,1.5,1.5,1.5h59c0.83,0,1.5-0.67,1.5-1.5v-62.57
		c0-0.4-0.16-0.78-0.44-1.06L35.45-34.28c-0.28-0.28-0.66-0.44-1.06-0.44H-11.16 M-11.16-37.22h45.56c1.06,0,2.08,0.42,2.83,1.17
		l13.44,13.43c0.75,0.75,1.17,1.77,1.17,2.83v62.57c0,2.21-1.79,4-4,4h-59c-2.21,0-4-1.79-4-4v-76
		C-15.16-35.43-13.37-37.22-11.16-37.22z"/>
</g>
<path id="Shape-2" class="st5" d="M141.51,15.19v11.6c0,1.66,1.34,3,3,3h7.93"/>
</svg>
