<svg id="Layer_1" data-name="Layer 1" xmlns="http://www.w3.org/2000/svg" viewBox="0 0 236 125.89"><defs><style>.cls-1{fill:#f3f7fd;}.cls-2{fill:#fff;}.cls-3,.cls-8{fill:#e8f0fa;}.cls-4,.cls-5,.cls-6,.cls-7,.cls-9{fill:none;}.cls-4,.cls-5,.cls-6,.cls-8,.cls-9{stroke:#7c9dd2;}.cls-4,.cls-5,.cls-9{stroke-linecap:round;}.cls-4{stroke-miterlimit:10;stroke-width:2.5px;}.cls-5{stroke-miterlimit:10;stroke-width:2.5px;}.cls-6,.cls-8,.cls-9{stroke-miterlimit:10.01;stroke-width:2.5px;}</style></defs><path id="Background" class="cls-1" d="M212,92.85a7,7,0,1,1,7,7A7,7,0,0,1,212,92.85Zm-62,7a7.57,7.57,0,0,1-1.5-.16,7.57,7.57,0,0,1-1.5.16H56a7,7,0,0,1,0-14H17a7,7,0,0,1,0-14H57a7,7,0,1,0,0-14H32a7,7,0,1,1,0-14H72a7,7,0,0,1,0-14h57a7,7,0,0,1,0,14h64a7,7,0,0,1,0,14h22a7,7,0,1,1,0,14H196a7,7,0,0,0,0,14h6a7,7,0,0,1,0,14Z"/><g id="Photo2"><path id="Rectangle" class="cls-2" d="M79.28,105l-4.07.57a4,4,0,0,1-4.52-3.4L59.56,22.92A4,4,0,0,1,63,18.4l78.23-11a4,4,0,0,1,4.52,3.4l1,6.81"/><path id="Rectangle-2" class="cls-3" d="M81.81,100.56l-3.7.53A3.62,3.62,0,0,1,74,98v0L64,26.08A3.64,3.64,0,0,1,67.11,22l71-10.1a3.62,3.62,0,0,1,4.1,3.07v0l.86,6.18q.06.49,9.2,66.6a4,4,0,0,1-3.4,4.56h-.07Z"/><path id="Rectangle-3" class="cls-4" d="M79.28,105l-4.07.57a4,4,0,0,1-4.52-3.4L59.56,22.92A4,4,0,0,1,63,18.4l78.23-11a4,4,0,0,1,4.52,3.4l1,6.81"/><path id="Line" class="cls-5" d="M147.5,22.23l.5,3.12"/></g><g id="Photo1"><g id="Rectangle-4"><rect class="cls-2" x="86.64" y="27.05" width="88.05" height="87.05" rx="4" transform="matrix(0.1, -0.99, 0.99, 0.1, 46.76, 193.11)"/><rect class="cls-6" x="87.89" y="28.3" width="85.54" height="84.54" rx="2.75" transform="matrix(0.1, -0.99, 0.99, 0.1, 46.76, 193.11)"/></g><rect id="Rectangle-5" class="cls-2" x="101.72" y="30.58" width="59.03" height="69.04" rx="3" transform="translate(52.73 188.78) rotate(-83.98)"/><path id="Path_2" data-name="Path 2" class="cls-3" d="M102.73,75.74l9.81-6.61a4,4,0,0,1,5.17.59l7.17,7.73a1,1,0,0,0,1.37.1L141.6,65.12a4,4,0,0,1,5.63.6c.09.11.17.22.25.34l10,15.45,1.43,2.39L158.2,92a1,1,0,0,1-1.08.91h0l-57-6.35a1,1,0,0,1-.88-1.09l.76-8.2Z"/><g id="Rectangle-6"><rect class="cls-7" x="101.72" y="30.58" width="59.03" height="69.04" rx="3" transform="translate(52.73 188.78) rotate(-83.98)"/><rect class="cls-6" x="102.97" y="31.83" width="56.53" height="66.53" rx="1.75" transform="translate(52.73 188.78) rotate(-83.98)"/></g><circle id="Oval" class="cls-8" cx="115.03" cy="51.8" r="6"/><path id="Path_2-2" data-name="Path 2-2" class="cls-9" d="M100.72,77.28l11.82-8.15a4,4,0,0,1,5.17.59l7.17,7.73a1,1,0,0,0,1.37.1L141.6,65.12a4,4,0,0,1,5.63.59c.09.11.17.23.25.35l11.06,17.57"/></g></svg>