<?xml version="1.0" encoding="utf-8"?>
<!-- Generator: Adobe Illustrator 25.0.0, SVG Export Plug-In . SVG Version: 6.00 Build 0)  -->
<svg version="1.1" id="Layer_1" xmlns="http://www.w3.org/2000/svg" xmlns:xlink="http://www.w3.org/1999/xlink" x="0px" y="0px"
	 viewBox="0 0 236 125.89" style="enable-background:new 0 0 236 125.89;" xml:space="preserve">
<style type="text/css">
	.st0{fill:#F3F7FD;}
	.st1{fill:#FFFFFF;}
	.st2{fill:#E8F0FA;}
	.st3{fill:none;}
	.st4{fill:#7C9DD2;}
	.st5{fill:none;stroke:#7C9DD2;stroke-width:2.5;stroke-linecap:round;stroke-linejoin:round;stroke-miterlimit:10;}
	.st6{fill:none;stroke:#A7C1E6;stroke-width:2.5;stroke-linecap:round;stroke-linejoin:round;stroke-miterlimit:10;}
</style>
<path id="Background" class="st0" d="M83.64,98.95c-3.87,0-7-3.13-7-7s3.13-7,7-7h-39c-3.87,0-7-3.13-7-7c0-3.87,3.13-7,7-7h40
	c3.87,0,7-3.13,7-7s-3.13-7-7-7h-25c-3.87,0-7-3.13-7-7s3.13-7,7-7h40c-3.87,0-7-3.13-7-7s3.13-7,7-7h98c3.87,0,7,3.13,7,7
	s-3.13,7-7,7h-40c3.87,0,7,3.13,7,7s-3.13,7-7,7h22c3.87,0,7,3.13,7,7s-3.13,7-7,7h-10.17c-4.88,0-8.83,3.13-8.83,7c0,3.87,6,7,6,7
	c3.87,0,7,3.13,7,7s-3.13,7-7,7H83.64z M190.64,63.95c0-3.87,3.13-7,7-7s7,3.13,7,7s-3.13,7-7,7S190.64,67.81,190.64,63.95z"/>
<path id="Path" class="st1" d="M108.75,77.25c-0.93,6.56,3.63,12.64,10.2,13.57c6.56,0.93,12.64-3.63,13.57-10.2
	c0.16-1.12,0.16-2.25,0-3.37h29.12v26.69c0,1.66-1.34,3-3,3h-76c-1.66,0-3-1.34-3-3V77.25H108.75z"/>
<path id="Path-2" class="st1" d="M133.64,76.95c0,7.18-5.82,13-13,13s-13-5.82-13-13c0-0.23,0.01-0.46,0.02-0.69H79.64l9.56-28.27
	c0.41-1.22,1.55-2.04,2.84-2.04h57.2c1.29,0,2.43,0.82,2.84,2.04l9.56,28.27h-28.02C133.63,76.48,133.64,76.71,133.64,76.95z"/>
<path id="Path-3" class="st2" d="M131.74,77.9c-0.21,6.03-5.07,10.87-11.1,11.04c-6.03-0.18-10.89-5.01-11.1-11.04
	c0-0.18,0-1.36,0.02-1.54H88.64l8.16-19.84c0.4-0.98,1.37-1.6,2.43-1.58h42.83c1.06-0.03,2.02,0.6,2.43,1.58l8.16,19.84h-20.92
	C131.73,76.55,131.74,77.72,131.74,77.9z"/>
<g id="Rectangle" transform="translate(89 82)">
	<path class="st3" d="M0.2-34.02c0.41-1.22,1.55-2.04,2.84-2.04h57.2c1.29,0,2.43,0.82,2.84,2.04l9.56,28.27v26.69
		c0,1.66-1.34,3-3,3h-76c-1.66,0-3-1.34-3-3V-5.75L0.2-34.02z"/>
	<path class="st4" d="M3.04-33.55c-0.21,0-0.4,0.14-0.47,0.34L-6.86-5.34v26.28c0,0.28,0.22,0.5,0.5,0.5h76c0.28,0,0.5-0.22,0.5-0.5
		V-5.34l-9.43-27.88c-0.07-0.2-0.26-0.34-0.47-0.34H3.04 M3.04-36.05h57.2c1.29,0,2.43,0.82,2.84,2.04l9.56,28.27v26.69
		c0,1.66-1.34,3-3,3h-76c-1.66,0-3-1.34-3-3V-5.75L0.2-34.02C0.61-35.23,1.75-36.05,3.04-36.05z"/>
</g>
<path id="Shape" class="st5" d="M120.53,89.95c-3.24,0.01-6.36-1.25-8.68-3.51c-2.3-2.22-3.6-5.29-3.6-8.49c0-0.7,0-2-1.88-2h28.21
	c-1.78,0.04-1.78,1.32-1.78,2c0,3.2-1.3,6.26-3.6,8.49C126.89,88.7,123.77,89.96,120.53,89.95z"/>
<path id="lines" class="st6" d="M145.74,23.25l-11.1,12.46L145.74,23.25z M119.74,18.95L119.74,18.95z M93.64,23.25l11.1,12.46
	L93.64,23.25z"/>
</svg>
