<svg id="Layer_1" data-name="Layer 1" xmlns="http://www.w3.org/2000/svg" viewBox="0 0 236 125.89"><defs><style>.cls-1{fill:#f3f7fd;}.cls-2{fill:#fff;}.cls-2,.cls-3{stroke:#7c9dd2;}.cls-2,.cls-4{stroke-linecap:round;}.cls-2,.cls-3,.cls-4{stroke-miterlimit:10;stroke-width:2.5px;}.cls-3{fill:#e8f0fa;}.cls-4{fill:none;stroke:#a7c1e6;}</style></defs><path id="Background" class="cls-1" d="M212,91.71a7,7,0,1,1,7,7A7,7,0,0,1,212,91.71Zm-62,7a6.9,6.9,0,0,1-1.5-.17,6.9,6.9,0,0,1-1.5.17H56a7,7,0,1,1,0-14H17a7,7,0,0,1,0-14H57a7,7,0,1,0,0-14H32a7,7,0,0,1,0-14H72a7,7,0,0,1,0-14h57a7,7,0,0,1,0,14h64a7,7,0,0,1,0,14h22a7,7,0,1,1,0,14H196a7,7,0,0,0,0,14h6a7,7,0,0,1,0,14Z"/><path id="Shape" class="cls-2" d="M151.81,112.19a2,2,0,0,1-1.22-.42L137.93,102A67,67,0,0,1,123,103.71a65.54,65.54,0,0,1-21.41-3.54,56.86,56.86,0,0,1-17.48-9.64,45.62,45.62,0,0,1-11.79-14.3,37.69,37.69,0,0,1,0-35,45.62,45.62,0,0,1,11.79-14.3,56.89,56.89,0,0,1,17.48-9.65,66.65,66.65,0,0,1,42.82,0,56.68,56.68,0,0,1,17.48,9.65,45.39,45.39,0,0,1,11.79,14.3,37.72,37.72,0,0,1-.94,36.74c-.61,1.06-1.29,2.12-2,3.15l-9.15,9.7a54.87,54.87,0,0,1-7.94,5.3l.17,14.08a2,2,0,0,1-2,2h0Zm13.51-24.74h0l2.87-3.09C167.29,85.42,166.32,86.46,165.32,87.45Z"/><path id="Shape-2" class="cls-3" d="M135,58.71a6,6,0,1,1,6,6A6,6,0,0,1,135,58.71Zm-19,0a6,6,0,1,1,6,6A6,6,0,0,1,116,58.71Zm-19,0a6,6,0,1,1,6,6A6,6,0,0,1,97,58.71Z"/><path id="Line" class="cls-4" d="M82.66,44a34.49,34.49,0,0,0-2.35,4.76"/><path id="Line-2" class="cls-4" d="M101,27.78A43.48,43.48,0,0,0,84.94,40.63"/></svg>