<svg id="Layer_1" data-name="Layer 1" xmlns="http://www.w3.org/2000/svg" viewBox="0 0 195.05 125.89"><defs><style>.cls-1{fill:#f3f7fd;}.cls-2,.cls-3{fill:#fff;}.cls-2,.cls-5{stroke:#a7c1e6;}.cls-2{stroke-linecap:round;stroke-miterlimit:10;stroke-width:2.5px;}.cls-4{fill:#7c9dd2;}.cls-5{fill:none;stroke-linejoin:round;stroke-width:2.5px;}</style></defs><path id="Background" class="cls-1" d="M59.5,96.64a7,7,0,1,1,0-14h-39a7,7,0,0,1,0-14h40a7,7,0,0,0,0-14h-25a7,7,0,0,1,0-14h40a7,7,0,0,1,0-14h98a7,7,0,0,1,0,14h-40a7,7,0,0,1,0,14h22a7,7,0,0,1,0,14H145.33c-4.88,0-8.83,3.13-8.83,7s6,7,6,7a7,7,0,0,1,0,14Zm107-35a7,7,0,1,1,7,7A7,7,0,0,1,166.5,61.64Z"/><path id="cloud" class="cls-2" d="M39.27,54.64h-1a11,11,0,0,1,0-21.93h.12A16.73,16.73,0,0,1,54.79,17.64c8.88,0,16.12,7.31,16.45,16.47,5.38.34,10.1,5.57,10.1,11,0,4.48-3.31,9.51-7.24,9.51H46.8"/><g id="Shape"><path class="cls-3" d="M96.5,115a4.73,4.73,0,0,1-3.69-1.76C81.13,98.79,72.26,86.11,66.43,75.51s-8.68-19.19-8.68-25.87a38.75,38.75,0,1,1,77.5,0c0,6.68-2.92,15.38-8.68,25.87s-14.7,23.28-26.38,37.68a4.63,4.63,0,0,1-.7.7A4.71,4.71,0,0,1,96.5,115Z"/><path class="cls-4" d="M96.5,113.7a3.46,3.46,0,0,0,2.2-.78,3.2,3.2,0,0,0,.52-.52c11.63-14.34,20.46-26.95,26.25-37.5C131.13,64.6,134,56.1,134,49.64a37.5,37.5,0,1,0-75,0c0,6.46,2.87,15,8.53,25.26,5.79,10.55,14.62,23.16,26.25,37.5a3.48,3.48,0,0,0,2.72,1.3m0,2.5A6,6,0,0,1,91.84,114Q56.5,70.41,56.5,49.64a40,40,0,0,1,80,0q0,20.76-35.34,64.34a6.1,6.1,0,0,1-.88.88A6,6,0,0,1,96.5,116.2Z"/></g><g id="Oval"><path class="cls-1" d="M96.5,68.39a18.7,18.7,0,0,1-10.18-3,19,19,0,0,1-4.52-4.11,18.79,18.79,0,0,1-2.58-18.94A18.77,18.77,0,1,1,96.5,68.39Z"/><path class="cls-4" d="M96.5,67.14A17.49,17.49,0,1,0,79,49.64,17.37,17.37,0,0,0,82.78,60.5,17.46,17.46,0,0,0,96.5,67.14m0,2.5a20,20,0,1,1,20-20A19.85,19.85,0,0,1,96.5,69.64Z"/></g><path id="Star" class="cls-5" d="M139.29,18.86a9.06,9.06,0,0,0-5-5l-1.78-.71,1.78-.71a9,9,0,0,0,5-5l.7-1.78.71,1.78a9,9,0,0,0,5,5l1.78.71-1.78.71a9.06,9.06,0,0,0-5,5L140,20.63Z"/><path id="cloud-2" class="cls-2" d="M119.19,96.64h-.69a8,8,0,0,1,0-16h.09a12,12,0,0,1,23.9,1,8.34,8.34,0,0,1,7.36,8c0,3.27-2.42,6.94-5.28,6.94H124.68"/></svg>