<svg id="Layer_1" data-name="Layer 1" xmlns="http://www.w3.org/2000/svg" viewBox="0 0 236 125.89"><defs><style>.cls-1{fill:#f3f7fd;}.cls-2{fill:#fff;}.cls-2,.cls-3,.cls-4{stroke:#7c9dd2;}.cls-2,.cls-4,.cls-5,.cls-8{stroke-linecap:round;}.cls-2,.cls-3,.cls-5,.cls-6{stroke-miterlimit:10;}.cls-2,.cls-3,.cls-4,.cls-5,.cls-8{stroke-width:2.5px;}.cls-3,.cls-4,.cls-5,.cls-6,.cls-8{fill:none;}.cls-4,.cls-8{stroke-linejoin:round;}.cls-5,.cls-6,.cls-8{stroke:#a7c1e6;}.cls-6{stroke-width:2px;}.cls-7{fill:#a7c1e6;}</style></defs><path id="Background" class="cls-1" d="M210.28,98a7,7,0,1,1,7,7A7,7,0,0,1,210.28,98Zm-156,7a7,7,0,0,1,0-14h-39a7,7,0,0,1,0-14h40a7,7,0,0,0,0-14h-25a7,7,0,0,1,0-14h40a7,7,0,0,1,0-14h57a7,7,0,0,1,0,14h64a7,7,0,0,1,0,14h22a7,7,0,0,1,0,14h-19a7,7,0,0,0,0,14h6a7,7,0,0,1,0,14Z"/><path id="Shape" class="cls-2" d="M156.28,111h-73a22.17,22.17,0,0,1-15.56-6.3,21.17,21.17,0,0,1-.49-29.92c.16-.17.33-.33.49-.49A22.12,22.12,0,0,1,83.28,68c.5,0,1,0,1.53,0a35.06,35.06,0,0,1-.53-6,34,34,0,0,1,66.24-10.83,29.54,29.54,0,0,1,3.26-.17,30.59,30.59,0,0,1,21.56,8.78,29.83,29.83,0,0,1,6.54,9.54A29.32,29.32,0,0,1,184.28,81a29.76,29.76,0,0,1-8.12,20.42,30.53,30.53,0,0,1-19.88,9.55Z"/><circle id="Oval" class="cls-3" cx="118.78" cy="91.45" r="5.5"/><path id="Line" class="cls-4" d="M103.28,80l7-5.5-7-5.23"/><path id="Line-2" class="cls-4" d="M134.28,80l-7-5.5,7-5.23"/><path id="Oval-2" class="cls-5" d="M128.28,38a19,19,0,0,1,13.44,13.29"/><circle id="Oval-3" class="cls-6" cx="149.28" cy="17.95" r="3"/><circle id="Oval-4" class="cls-7" cx="180.28" cy="33.95" r="3"/><path id="Line_5" data-name="Line 5" class="cls-8" d="M161.28,33l-4.12,4.11L161.28,33,157,28.7,161.28,33l4.24-4.25L161.28,33l4.11,4.11Z"/><path id="Line_4" data-name="Line 4" class="cls-8" d="M65.68,49.54l-3,3,3-3-3-3,3,3,3-3-3,3,3,3Z"/><circle id="Oval-5" class="cls-7" cx="76.28" cy="36.95" r="3"/></svg>