<svg id="Layer_1" data-name="Layer 1" xmlns="http://www.w3.org/2000/svg" viewBox="0 0 236 136.03"><defs><style>.cls-1,.cls-2{fill:#f3f7fd;}.cls-2,.cls-3,.cls-4,.cls-6{stroke:#7c9dd2;}.cls-2,.cls-3,.cls-4,.cls-5,.cls-6,.cls-9{stroke-miterlimit:10;}.cls-10,.cls-2,.cls-3,.cls-4,.cls-5,.cls-6,.cls-9{stroke-width:2.5px;}.cls-3{fill:#fff;}.cls-10,.cls-3,.cls-4,.cls-5,.cls-9{stroke-linecap:round;}.cls-10,.cls-4,.cls-5,.cls-6,.cls-9{fill:none;}.cls-10,.cls-5{stroke:#a7c1e6;}.cls-7{fill:#e8f0fa;}.cls-8{fill:#7c9dd2;}.cls-9{stroke:#fff;}.cls-10{stroke-linejoin:round;}</style></defs><path id="Background" class="cls-1" d="M77.84,94.69a7,7,0,0,1,0-14h-39a7,7,0,0,1,0-14h40a7,7,0,0,0,0-14h-25a7,7,0,0,1,0-14h40a7,7,0,0,1,0-14h98a7,7,0,1,1,0,14h-40a7,7,0,0,1,0,14h22a7,7,0,0,1,0,14H163.66c-4.87,0-8.82,3.14-8.82,7s6,7,6,7a7,7,0,0,1,0,14Zm107-35a7,7,0,1,1,7,7A7,7,0,0,1,184.84,59.69Z"/><g id="Search"><circle id="Oval" class="cls-2" cx="105.34" cy="59.19" r="33.5"/><path id="Oval-2" class="cls-3" d="M100,85.19a35.75,35.75,0,0,0,5.37.5,26.54,26.54,0,1,0-19.82-8.9"/><path id="Oval-3" class="cls-4" d="M88.63,79.77a26.59,26.59,0,0,0,7.2,4.17"/><path id="Oval-4" class="cls-5" d="M105.84,40.69a19,19,0,0,0-19,19v0"/><path id="Path_4" data-name="Path 4" class="cls-6" d="M132.84,85.69l6,6"/><g id="Rectangle"><path class="cls-7" d="M152.38,110.08a4.82,4.82,0,0,1-3.43-1.42L137.87,97.58a4.85,4.85,0,1,1,6.85-6.86l11.09,11.09a4.85,4.85,0,0,1-3.43,8.27Z"/><path class="cls-8" d="M141.3,90.55a3.6,3.6,0,0,0-2.55,6.14l11.09,11.09a3.6,3.6,0,0,0,5.08-5.09L143.84,91.61a3.57,3.57,0,0,0-2.54-1.06m0-2.5a6.08,6.08,0,0,1,4.31,1.79l11.08,11.09a6.1,6.1,0,0,1-8.62,8.62L137,98.46a6.1,6.1,0,0,1,4.32-10.41Z"/></g><path id="Line" class="cls-9" d="M142.84,92.69l11,11"/></g><path id="Line_8" data-name="Line 8" class="cls-10" d="M150.84,59.47Zm19.28-7.78Zm-22,0Z"/><path id="Line_8-2" data-name="Line 8-2" class="cls-10" d="M60.84,81.47ZM47.16,72.69Zm-10,0Z"/></svg>