<?xml version="1.0" encoding="utf-8"?>
<!-- Generator: Adobe Illustrator 25.0.0, SVG Export Plug-In . SVG Version: 6.00 Build 0)  -->
<svg version="1.1" id="Layer_1" xmlns="http://www.w3.org/2000/svg" xmlns:xlink="http://www.w3.org/1999/xlink" x="0px" y="0px"
	 viewBox="0 0 236 125.89" style="enable-background:new 0 0 236 125.89;" xml:space="preserve">
<style type="text/css">
	.st0{fill:#F3F7FD;}
	.st1{fill:#FFFFFF;stroke:#7C9DD2;stroke-width:2.5;stroke-linecap:round;stroke-miterlimit:10;}
	.st2{fill:none;stroke:#A7C1E6;stroke-width:2.5;stroke-linecap:round;stroke-miterlimit:10;}
	.st3{fill:none;stroke:#7C9DD2;stroke-width:2.5;stroke-linecap:round;stroke-miterlimit:10;}
	.st4{fill:#7C9DD2;}
</style>
<path id="Background" class="st0" d="M212,91.45c0-3.87,3.13-7,7-7s7,3.13,7,7c0,3.87-3.13,7-7,7S212,95.31,212,91.45z M56,98.45
	c-3.87,0-7-3.13-7-7c0-3.87,3.13-7,7-7H17c-3.87,0-7-3.13-7-7c0-3.87,3.13-7,7-7h40c3.87,0,7-3.13,7-7s-3.13-7-7-7H32
	c-3.87,0-7-3.13-7-7s3.13-7,7-7h40c-3.87,0-7-3.13-7-7s3.13-7,7-7h57c3.87,0,7,3.13,7,7s-3.13,7-7,7h64c3.87,0,7,3.13,7,7
	s-3.13,7-7,7h22c3.87,0,7,3.13,7,7s-3.13,7-7,7h-19c-3.87,0-7,3.13-7,7c0,3.87,3.13,7,7,7h6c3.87,0,7,3.13,7,7c0,3.87-3.13,7-7,7H56
	z"/>
<path id="Shape" class="st1" d="M158,104.45H85c-5.81,0.03-11.4-2.24-15.56-6.3c-8.4-8.13-8.62-21.52-0.49-29.92
	c0.16-0.17,0.32-0.33,0.49-0.49c4.16-4.06,9.75-6.32,15.56-6.29c0.51,0,1.02,0.02,1.54,0.05c-0.36-2-0.54-4.02-0.54-6.05
	c0-18.78,15.22-34,34-34c7.21,0,14.23,2.29,20.05,6.54c5.69,4.15,9.95,9.96,12.19,16.64c1.08-0.11,2.17-0.17,3.26-0.17
	c4.07-0.01,8.11,0.79,11.87,2.36c3.62,1.5,6.91,3.68,9.69,6.43c2.78,2.72,5,5.96,6.54,9.54c1.59,3.69,2.4,7.66,2.4,11.68
	c0,7.59-2.91,14.9-8.12,20.42c-5.2,5.55-12.29,8.96-19.88,9.56V104.45z"/>
<path id="Oval" class="st2" d="M130,33.45c6.52,1.74,11.63,6.79,13.44,13.29"/>
<path id="Oval-2" class="st3" d="M101,65.45c0,3.87,3.13,7,7,7c3.87,0,7-3.13,7-7"/>
<path id="Oval-3" class="st3" d="M130,65.45c0,3.87,3.13,7,7,7s7-3.13,7-7"/>
<path id="Line" class="st3" d="M115,84.45h14.5"/>
<path id="Zz" class="st4" d="M66.37,51.45v-1.63l6.66-8.06h-6.14v-1.73h8.69v1.52l-6.66,8.18h6.82v1.73H66.37z M49.51,40.45V38.2
	l9.15-11.09h-8.45v-2.38h11.95v2.09l-9.15,11.24h9.37v2.38H49.51z"/>
</svg>
