<?xml version="1.0" encoding="UTF-8" ?>
<!DOCTYPE svg PUBLIC "-//W3C//DTD SVG 1.1//EN" "http://www.w3.org/Graphics/SVG/1.1/DTD/svg11.dtd">
<svg width="450pt" height="289pt" viewBox="0 0 450 289" version="1.1" xmlns="http://www.w3.org/2000/svg">
<g id="#0346fcff">
<path fill="#0346fc" opacity="1.00" d=" M 0.00 0.00 L 23.98 0.00 C 38.24 15.40 53.60 29.72 68.18 44.81 C 71.18 47.80 73.95 51.35 77.99 52.99 C 81.93 51.70 84.88 48.59 87.80 45.80 C 97.88 35.54 108.09 25.42 118.25 15.25 C 123.28 10.35 128.28 5.39 132.79 0.00 L 151.42 0.00 C 156.10 4.18 160.29 8.85 164.69 13.32 C 167.47 16.10 170.08 19.25 173.64 21.08 C 175.10 22.13 176.44 20.42 177.63 19.71 C 184.73 13.61 190.57 6.17 197.62 0.00 L 208.53 0.00 C 203.93 4.24 199.97 9.12 195.38 13.38 C 191.37 17.16 187.65 21.23 184.42 25.70 C 194.00 35.74 203.78 45.60 213.75 55.25 C 222.25 63.58 230.35 72.31 239.12 80.35 C 246.57 74.79 252.60 67.67 259.25 61.25 C 269.31 51.30 279.13 41.12 289.38 31.38 C 291.11 29.55 292.94 27.64 293.76 25.21 C 292.31 22.47 290.05 20.29 287.89 18.10 C 281.86 12.28 275.70 6.54 270.42 0.00 L 281.98 0.00 C 288.50 6.99 295.00 14.00 302.15 20.36 C 309.55 14.25 316.39 7.45 322.46 0.00 L 345.41 0.00 C 348.20 2.40 350.70 5.11 353.27 7.74 C 365.17 19.84 377.40 31.61 389.14 43.87 C 391.18 45.86 393.29 47.94 396.00 49.01 C 399.79 47.43 402.48 44.16 405.33 41.33 C 418.66 27.35 432.94 14.30 445.92 0.00 L 450.00 0.00 L 450.00 8.90 C 444.97 12.87 440.06 16.99 435.73 21.73 C 431.77 26.08 426.48 29.51 424.00 35.00 C 426.45 40.52 431.76 43.93 435.72 48.27 C 440.09 53.03 444.96 57.28 450.00 61.31 L 450.00 89.38 C 447.25 86.67 444.14 84.37 441.06 82.05 C 437.11 85.42 433.30 88.97 429.71 92.71 C 417.11 105.69 403.92 118.09 391.52 131.26 C 396.95 138.19 403.63 143.96 409.74 150.26 C 419.68 160.31 429.85 170.15 439.64 180.35 C 442.67 183.54 446.41 185.89 450.00 188.38 L 450.00 199.49 C 445.03 200.68 440.86 203.74 437.67 207.67 C 432.80 213.46 426.18 217.75 422.20 224.25 C 423.18 228.75 427.15 231.67 430.20 234.81 C 436.51 240.39 441.33 248.33 450.00 250.51 L 450.00 260.05 C 439.96 269.25 430.27 278.84 421.21 289.00 L 408.43 289.00 C 402.86 281.80 395.93 275.88 389.72 269.27 C 387.55 267.22 385.36 264.66 382.25 264.22 C 380.30 265.16 378.69 266.66 377.15 268.15 C 370.40 275.07 363.52 281.87 356.99 289.00 L 348.23 289.00 C 351.99 284.53 355.97 280.24 360.30 276.31 C 363.18 273.51 366.43 270.81 368.01 267.01 C 366.56 263.41 363.60 260.76 360.92 258.07 C 355.18 252.58 349.65 246.86 343.74 241.54 C 336.63 245.99 331.16 252.41 325.20 258.20 C 322.45 260.94 319.97 263.94 317.55 266.97 C 320.71 270.95 324.28 274.57 328.10 277.92 C 331.95 281.27 335.08 285.32 338.59 289.00 L 327.59 289.00 C 322.14 284.59 318.38 278.30 312.34 274.60 C 311.02 273.39 309.61 274.66 308.42 275.38 C 303.19 279.11 299.61 284.57 295.03 289.00 L 286.60 289.00 C 290.15 284.78 293.83 280.66 297.99 277.02 C 300.40 274.73 303.17 272.59 304.64 269.53 C 305.54 268.07 304.41 266.61 303.65 265.40 C 301.13 261.94 297.75 259.25 294.76 256.23 C 290.14 251.62 285.60 246.91 280.75 242.53 C 271.40 250.30 263.17 259.31 254.74 268.05 C 260.71 275.60 267.76 282.20 274.54 289.00 L 266.94 289.00 C 261.65 283.25 256.57 277.22 250.12 272.70 C 244.19 277.77 239.17 283.77 233.39 289.00 L 223.16 289.00 C 231.03 279.63 240.22 271.51 248.70 262.71 C 255.27 255.89 262.59 249.75 268.27 242.12 C 258.61 231.02 248.23 220.56 237.42 210.58 C 231.32 205.00 226.17 198.50 220.22 192.78 C 209.15 181.84 198.06 170.93 187.22 159.77 C 184.76 157.77 181.45 153.70 178.07 156.06 C 176.84 156.79 175.76 157.72 174.71 158.69 C 159.19 174.50 143.46 190.12 127.76 205.76 C 124.41 209.30 119.91 212.24 118.24 217.01 C 118.93 220.36 121.48 222.86 123.73 225.27 C 130.27 231.73 136.87 238.13 143.35 244.66 C 152.55 254.12 162.46 262.86 171.55 272.42 C 177.13 277.76 182.27 283.52 187.70 289.00 L 153.20 289.00 C 156.68 284.88 160.93 281.37 163.80 276.77 C 161.72 272.01 157.34 268.84 153.93 265.09 C 149.22 259.96 144.37 254.96 138.89 250.65 C 133.54 254.66 128.88 259.45 124.24 264.24 C 120.63 267.96 116.15 271.15 113.97 275.99 C 116.61 281.09 121.05 284.94 125.01 289.00 L 115.99 289.00 C 110.92 284.09 106.92 277.97 100.91 274.10 C 99.64 272.89 98.13 274.24 96.95 274.90 C 91.51 278.75 87.76 284.40 83.02 289.00 L 71.34 289.00 C 76.00 284.78 80.15 280.04 84.82 275.82 C 87.69 272.93 91.12 270.19 92.49 266.22 C 91.09 263.24 88.63 260.96 86.34 258.66 C 79.91 252.69 74.22 245.90 67.13 240.66 C 58.39 248.89 49.89 257.38 41.66 266.12 C 48.14 274.49 56.11 281.52 63.54 289.00 L 54.95 289.00 C 49.22 283.74 44.97 276.84 38.33 272.62 C 36.79 271.21 35.17 273.02 33.83 273.81 C 28.18 278.35 23.95 284.38 18.37 289.00 L 7.29 289.00 C 20.93 274.75 34.97 260.89 48.97 246.99 C 52.66 243.31 56.93 240.01 59.45 235.36 C 60.83 233.54 58.68 231.75 57.73 230.29 C 52.31 224.30 46.47 218.66 40.13 213.65 C 26.40 226.33 14.00 240.39 0.00 252.79 L 0.00 239.02 C 4.20 234.88 8.73 231.07 12.77 226.77 C 18.99 220.25 25.96 214.41 31.34 207.13 C 21.30 196.09 10.22 186.07 0.00 175.20 L 0.00 164.23 C 6.11 168.66 10.24 175.55 17.00 179.05 C 20.36 177.66 22.84 174.87 25.34 172.34 C 30.98 166.34 37.05 160.75 42.60 154.66 C 38.43 148.18 32.05 143.70 27.09 137.90 C 24.14 134.48 20.72 131.51 17.11 128.80 C 11.05 133.65 5.10 138.72 0.00 144.59 L 0.00 101.58 C 11.76 111.94 22.12 123.71 33.38 134.59 C 37.79 139.22 42.44 143.67 47.76 147.28 C 59.49 137.21 69.34 125.19 80.87 114.89 C 86.77 109.79 91.70 103.71 97.42 98.43 C 99.49 96.32 102.01 94.24 102.69 91.22 C 99.72 86.08 94.79 82.49 90.77 78.22 C 76.38 64.28 62.68 49.66 48.27 35.74 C 42.71 29.62 36.71 23.96 30.71 18.29 C 26.27 14.18 22.74 8.91 17.35 5.96 C 15.90 4.91 14.57 6.62 13.40 7.33 C 8.66 11.48 4.29 16.04 0.00 20.64 L 0.00 0.00 M 327.18 7.17 C 322.35 12.21 317.27 17.01 312.58 22.19 C 314.61 25.47 316.90 28.62 319.69 31.31 C 330.85 42.15 341.64 53.36 352.84 64.17 C 358.20 69.21 362.93 74.96 368.98 79.25 C 374.63 74.16 379.83 68.59 385.33 63.33 C 386.63 61.77 388.63 60.30 388.81 58.16 C 388.08 56.65 386.94 55.40 385.82 54.19 C 371.06 39.61 356.41 24.92 341.79 10.21 C 339.05 7.64 336.71 4.15 333.00 2.99 C 330.61 3.57 328.92 5.56 327.18 7.17 M 140.59 4.50 C 136.76 6.94 133.98 10.63 130.75 13.76 C 126.87 17.89 122.39 21.47 118.84 25.90 C 118.08 27.07 116.71 28.69 118.04 29.96 C 121.44 34.81 126.21 38.46 130.26 42.74 C 134.20 46.48 137.53 50.98 142.16 53.93 C 145.35 52.86 147.48 50.07 149.81 47.81 C 154.46 42.80 159.51 38.18 164.30 33.30 C 165.62 31.66 167.89 29.64 166.86 27.31 C 165.10 23.86 161.95 21.44 159.28 18.73 C 154.96 14.72 151.10 10.25 146.78 6.24 C 145.14 4.81 142.75 2.88 140.59 4.50 M 304.58 30.49 C 299.67 33.85 296.12 38.77 291.75 42.76 C 288.05 46.67 283.32 49.94 281.11 55.00 C 282.53 58.58 285.55 61.14 288.20 63.80 C 292.34 67.66 296.18 71.82 300.19 75.82 C 302.10 77.56 304.12 79.59 306.82 79.91 C 312.57 76.10 316.65 70.33 321.75 65.75 C 324.92 62.29 329.34 59.53 331.01 55.00 C 330.05 51.73 327.06 49.59 324.81 47.19 C 319.60 42.40 314.91 37.09 309.77 32.24 C 308.36 31.13 306.46 29.13 304.58 30.49 M 162.69 45.70 C 160.88 47.59 158.91 49.54 158.10 52.10 C 158.37 54.79 160.90 56.53 162.62 58.39 C 166.92 62.10 170.30 66.69 174.29 70.70 C 185.92 81.05 197.06 91.99 207.18 103.83 C 208.87 105.51 210.60 107.48 213.03 108.02 C 215.28 107.77 216.97 106.02 218.62 104.63 C 224.07 99.33 229.73 94.17 234.17 87.96 C 227.84 80.92 220.85 74.52 214.25 67.74 C 202.10 55.76 190.30 43.42 177.92 31.69 C 172.23 35.66 167.64 40.90 162.69 45.70 M 98.25 46.25 C 94.05 51.14 87.95 54.72 85.37 60.80 C 87.01 63.95 89.72 66.33 92.19 68.81 C 98.24 74.56 103.87 80.74 110.09 86.32 C 116.19 82.10 120.94 76.36 126.26 71.26 C 129.31 67.98 133.43 65.31 135.08 61.01 C 132.90 55.89 127.98 52.68 124.50 48.50 C 120.16 44.21 116.72 38.47 110.88 36.09 C 105.41 37.23 102.24 42.73 98.25 46.25 M 403.79 53.78 C 402.81 55.06 401.20 56.80 402.48 58.43 C 404.78 62.06 408.28 64.69 411.24 67.75 C 415.50 71.82 419.09 76.60 423.71 80.29 C 425.09 81.15 426.81 82.86 428.42 81.50 C 433.86 77.64 438.22 72.42 442.26 67.16 C 434.60 57.91 425.47 50.07 416.92 41.67 C 412.14 45.23 407.65 49.23 403.79 53.78 M 148.55 60.45 C 144.67 63.22 141.98 67.30 138.39 70.41 C 134.22 74.59 129.11 78.09 126.16 83.31 C 125.18 86.91 129.11 89.41 131.18 91.82 C 137.88 97.86 143.50 105.09 150.91 110.32 C 157.49 104.43 163.38 97.84 169.81 91.81 C 172.00 89.65 174.34 87.55 175.87 84.85 C 175.19 82.05 172.71 80.19 170.83 78.17 C 165.48 73.19 160.50 67.84 155.30 62.70 C 153.53 61.13 151.00 58.75 148.55 60.45 M 335.55 61.47 C 329.86 64.59 326.51 70.50 321.76 74.76 C 318.45 78.41 313.71 81.24 311.96 86.00 C 312.96 89.27 315.92 91.42 318.20 93.81 C 324.53 99.55 329.85 106.40 336.90 111.31 C 344.18 104.80 350.83 97.64 357.83 90.83 C 359.33 89.28 360.85 87.70 361.97 85.84 C 360.90 82.92 358.46 80.83 356.33 78.68 C 351.13 73.87 346.35 68.64 341.29 63.70 C 339.72 62.43 337.74 60.13 335.55 61.47 M 272.55 62.48 C 266.82 66.70 262.51 72.50 257.23 77.23 C 254.35 80.32 250.40 82.88 248.99 87.00 C 250.28 90.92 254.00 93.37 256.73 96.28 C 261.39 100.62 265.58 105.42 270.23 109.77 C 271.51 110.67 272.86 112.58 274.60 111.58 C 279.76 109.05 283.09 104.06 287.24 100.23 C 291.06 96.04 295.99 92.72 298.83 87.74 C 298.83 87.37 298.82 86.63 298.82 86.26 C 296.69 82.22 292.85 79.49 289.75 76.25 C 285.24 72.09 281.45 67.15 276.53 63.44 C 275.39 62.82 273.81 61.57 272.55 62.48 M 373.73 83.72 C 371.00 86.64 367.30 89.08 366.00 93.00 C 366.54 95.40 368.57 97.08 370.17 98.83 C 374.94 103.39 379.61 108.05 384.19 112.82 C 386.40 114.90 388.64 117.46 391.81 117.93 C 394.12 116.62 395.96 114.68 397.82 112.82 C 403.54 106.87 409.38 101.04 415.33 95.33 C 417.13 93.51 419.09 91.65 419.94 89.17 C 418.20 86.29 415.67 84.03 413.30 81.69 C 407.08 75.79 401.30 69.42 394.91 63.68 C 386.97 69.38 380.88 77.14 373.73 83.72 M 180.54 90.48 C 175.70 93.92 172.08 98.74 167.76 102.76 C 163.90 106.83 159.17 110.25 156.36 115.20 C 157.97 119.64 162.10 122.45 165.24 125.76 C 169.96 130.05 173.90 135.18 178.93 139.11 C 180.85 140.95 183.45 139.51 185.13 138.13 C 190.03 134.05 194.14 129.15 198.68 124.70 C 201.44 121.65 205.04 119.10 206.65 115.21 C 203.94 110.47 199.47 107.14 195.74 103.25 C 191.61 99.38 188.04 94.91 183.65 91.33 C 182.77 90.85 181.51 89.57 180.54 90.48 M 117.43 92.32 C 113.71 94.08 111.09 97.39 108.22 100.23 C 104.38 104.38 100.07 108.07 96.24 112.22 C 94.82 113.86 92.88 116.25 94.50 118.41 C 98.00 123.51 103.13 127.19 107.25 131.75 C 110.94 135.18 113.94 139.78 118.80 141.64 C 124.13 138.55 127.77 133.37 132.24 129.24 C 136.06 125.16 140.86 121.80 143.57 116.81 C 142.88 113.83 140.30 111.82 138.32 109.68 C 133.15 104.85 128.33 99.67 123.30 94.70 C 121.70 93.37 119.72 91.16 117.43 92.32 M 235.25 98.24 C 221.47 112.13 207.66 126.00 193.75 139.75 C 191.09 142.53 187.69 145.01 186.44 148.80 C 188.69 152.95 192.52 155.90 195.77 159.23 C 207.78 171.21 219.77 183.22 231.77 195.23 C 234.81 198.16 237.39 201.81 241.27 203.70 C 241.63 203.70 242.36 203.70 242.72 203.70 C 246.58 201.78 249.16 198.14 252.22 195.21 C 265.73 181.72 279.16 168.15 292.77 154.76 C 294.43 152.84 296.72 150.84 296.75 148.13 C 296.05 145.55 294.04 143.63 292.27 141.74 C 280.64 130.37 269.22 118.78 257.71 107.29 C 252.73 102.14 247.31 97.45 241.84 92.84 C 239.55 94.53 237.30 96.27 235.25 98.24 M 302.93 93.87 C 297.21 98.46 292.64 104.30 287.20 109.20 C 284.64 111.95 281.09 114.29 279.96 118.00 C 282.19 123.33 287.53 126.51 291.27 130.74 C 295.81 134.74 299.21 140.33 304.81 142.94 C 314.26 135.68 322.39 126.79 330.34 117.94 C 324.79 110.16 317.19 104.23 310.82 97.17 C 308.72 95.38 305.90 91.40 302.93 93.87 M 358.34 100.38 C 352.31 103.77 348.34 109.70 343.25 114.25 C 340.08 117.71 335.65 120.47 333.97 125.00 C 336.30 130.52 341.90 133.82 345.76 138.24 C 350.18 142.10 353.47 147.69 359.00 150.01 C 363.54 148.35 366.29 143.92 369.75 140.75 C 374.33 135.65 380.10 131.57 383.92 125.81 C 383.15 121.71 379.51 119.06 376.79 116.20 C 371.71 111.61 367.39 106.23 362.11 101.87 C 360.98 101.28 359.68 99.70 358.34 100.38 M 149.20 122.57 C 145.71 124.01 143.35 127.15 140.71 129.71 C 136.22 134.57 131.20 138.90 126.73 143.78 C 125.66 145.22 123.52 147.10 125.06 148.96 C 128.57 154.01 133.61 157.74 137.76 162.25 C 141.39 165.62 144.30 170.09 148.97 172.12 C 154.89 169.79 158.36 164.06 163.04 160.06 C 167.04 156.08 172.36 152.68 174.06 147.02 C 172.92 143.53 169.74 141.27 167.29 138.70 C 162.03 133.95 157.54 128.39 152.10 123.84 C 151.20 123.40 150.30 122.06 149.20 122.57 M 85.40 123.47 C 82.32 124.81 80.08 127.43 77.74 129.74 C 71.56 136.23 65.07 142.41 58.74 148.76 C 56.83 150.88 53.84 153.99 56.13 156.89 C 60.43 163.17 66.95 167.42 71.98 173.05 C 76.61 178.42 82.19 182.85 87.03 188.02 C 92.41 193.96 98.57 199.15 103.86 205.18 C 105.81 207.08 107.84 209.63 110.80 209.70 C 113.38 208.46 115.29 206.26 117.29 204.28 C 124.44 196.77 131.95 189.60 139.27 182.26 C 140.28 180.84 142.44 179.36 141.49 177.41 C 139.74 173.47 136.15 170.80 133.22 167.78 C 122.00 156.67 110.88 145.45 99.71 134.29 C 96.34 131.00 93.28 127.33 89.40 124.60 C 88.23 123.92 86.80 122.85 85.40 123.47 M 317.22 140.22 C 311.94 146.04 305.33 150.77 301.47 157.77 C 308.19 164.97 315.36 171.72 322.18 178.82 C 323.89 180.17 326.02 183.02 328.42 181.51 C 332.78 178.60 335.95 174.30 339.73 170.74 C 343.75 166.40 348.71 162.85 351.91 157.81 C 351.58 155.12 349.56 153.10 347.82 151.20 C 343.82 147.19 339.66 143.34 335.79 139.20 C 333.14 136.56 330.58 133.53 327.00 132.14 C 322.98 133.73 320.21 137.26 317.22 140.22 M 383.60 138.58 C 379.56 141.09 376.69 145.03 373.28 148.28 C 357.90 163.57 342.60 178.93 327.26 194.26 C 324.42 197.33 320.40 199.86 319.12 204.00 C 320.29 207.93 324.06 210.36 326.75 213.25 C 340.63 227.04 354.47 240.87 368.18 254.84 C 370.25 256.55 372.50 259.69 375.56 258.56 C 379.34 256.94 381.74 253.39 384.46 250.47 C 393.60 239.97 404.59 231.30 413.97 221.03 C 419.67 214.71 426.09 209.11 431.92 202.92 C 435.00 199.51 439.45 196.80 440.76 192.17 C 438.37 188.06 434.48 185.16 431.22 181.79 C 417.73 168.27 404.15 154.84 390.78 141.21 C 388.91 139.50 386.29 136.96 383.60 138.58 M 49.20 161.48 C 43.46 164.73 39.21 170.01 34.63 174.66 C 31.20 178.60 26.86 181.75 24.02 186.18 C 24.96 189.70 28.28 191.82 30.63 194.37 C 33.30 196.70 35.54 199.91 39.00 201.06 C 43.35 199.48 46.07 195.41 49.38 192.38 C 54.21 187.19 59.86 182.65 63.94 176.82 C 63.08 172.75 59.53 170.06 56.86 167.15 C 54.50 165.09 52.39 162.18 49.20 161.48 M 293.61 164.81 C 289.86 166.83 287.24 170.31 284.24 173.24 C 280.23 177.56 275.67 181.35 271.77 185.77 C 270.81 187.03 269.22 188.81 270.50 190.40 C 276.42 198.41 284.10 204.88 291.24 211.75 C 292.54 212.68 293.94 214.51 295.74 213.85 C 298.35 212.58 300.29 210.33 302.32 208.31 C 308.25 201.99 314.69 196.17 320.51 189.75 C 317.74 185.82 314.31 182.44 310.76 179.23 C 306.04 174.94 302.20 169.72 297.14 165.79 C 296.08 165.14 294.88 163.85 293.61 164.81 M 68.34 185.32 C 61.98 190.26 57.02 196.69 51.18 202.18 C 49.24 204.19 46.96 206.10 46.04 208.84 C 50.60 215.21 56.97 220.00 62.25 225.75 C 66.26 229.42 69.47 234.13 74.26 236.86 C 77.24 237.20 79.25 234.06 81.33 232.33 C 87.59 225.52 94.81 219.59 100.25 212.05 C 91.64 202.55 82.93 193.07 73.22 184.69 C 71.70 183.31 69.68 184.19 68.34 185.32 M 253.65 203.65 C 251.57 205.92 248.90 207.97 247.94 210.99 C 250.57 216.92 256.46 220.57 260.72 225.28 C 264.82 228.82 267.86 234.00 273.00 236.07 C 279.41 232.83 283.84 226.57 288.32 221.08 C 282.75 214.86 276.55 209.25 270.81 203.19 C 268.33 200.71 265.94 198.00 262.80 196.35 C 259.03 197.69 256.49 201.01 253.65 203.65 M 300.75 221.75 C 296.63 226.32 291.31 229.93 288.12 235.26 C 287.77 239.33 291.96 241.89 294.37 244.63 C 300.65 250.07 305.47 257.19 312.75 261.43 C 321.68 253.56 330.66 245.63 338.00 236.20 C 334.09 231.09 329.56 226.51 324.80 222.20 C 320.74 218.56 317.47 214.00 312.84 211.04 C 307.80 213.24 304.72 218.15 300.75 221.75 M 85.18 239.18 C 83.59 240.99 80.62 243.62 82.88 246.07 C 86.65 250.93 91.57 254.75 95.74 259.26 C 99.40 262.56 102.26 267.24 107.00 269.02 C 111.35 267.48 113.97 263.28 117.20 260.21 C 122.26 254.84 128.17 250.25 132.32 244.08 C 127.10 238.18 121.09 233.02 116.07 226.93 C 113.31 223.56 109.90 220.81 106.19 218.57 C 98.96 225.21 92.28 232.41 85.18 239.18 M 411.23 234.23 C 405.93 239.26 401.06 244.73 395.68 249.68 C 393.58 251.91 390.82 253.93 389.98 257.00 C 391.06 260.48 394.27 262.74 396.70 265.30 C 402.63 270.90 408.11 276.96 414.18 282.43 C 418.31 279.95 422.03 276.84 425.28 273.28 C 429.44 268.77 434.27 264.88 438.05 260.01 C 438.79 258.72 440.51 257.18 439.27 255.68 C 436.24 250.86 431.49 247.48 427.73 243.27 C 423.81 239.55 420.55 234.83 415.60 232.41 C 413.85 231.39 412.51 233.32 411.23 234.23 Z" />
</g>
<g id="#1a57ffff">
<path fill="#1a57ff" opacity="1.00" d=" M 23.98 0.00 L 132.79 0.00 C 128.28 5.39 123.28 10.35 118.25 15.25 C 108.09 25.42 97.88 35.54 87.80 45.80 C 84.88 48.59 81.93 51.70 77.99 52.99 C 73.95 51.35 71.18 47.80 68.18 44.81 C 53.60 29.72 38.24 15.40 23.98 0.00 Z" />
<path fill="#1a57ff" opacity="1.00" d=" M 151.42 0.00 L 197.62 0.00 C 190.57 6.17 184.73 13.61 177.63 19.71 C 176.44 20.42 175.10 22.13 173.64 21.08 C 170.08 19.25 167.47 16.10 164.69 13.32 C 160.29 8.85 156.10 4.18 151.42 0.00 Z" />
<path fill="#1a57ff" opacity="1.00" d=" M 208.53 0.00 L 270.42 0.00 C 275.70 6.54 281.86 12.28 287.89 18.10 C 290.05 20.29 292.31 22.47 293.76 25.21 C 292.94 27.64 291.11 29.55 289.38 31.38 C 279.13 41.12 269.31 51.30 259.25 61.25 C 252.60 67.67 246.57 74.79 239.12 80.35 C 230.35 72.31 222.25 63.58 213.75 55.25 C 203.78 45.60 194.00 35.74 184.42 25.70 C 187.65 21.23 191.37 17.16 195.38 13.38 C 199.97 9.12 203.93 4.24 208.53 0.00 Z" />
<path fill="#1a57ff" opacity="1.00" d=" M 281.98 0.00 L 322.46 0.00 C 316.39 7.45 309.55 14.25 302.15 20.36 C 295.00 14.00 288.50 6.99 281.98 0.00 Z" />
<path fill="#1a57ff" opacity="1.00" d=" M 345.41 0.00 L 445.92 0.00 C 432.94 14.30 418.66 27.35 405.33 41.33 C 402.48 44.16 399.79 47.43 396.00 49.01 C 393.29 47.94 391.18 45.86 389.14 43.87 C 377.40 31.61 365.17 19.84 353.27 7.74 C 350.70 5.11 348.20 2.40 345.41 0.00 Z" />
<path fill="#1a57ff" opacity="1.00" d=" M 327.18 7.17 C 328.92 5.56 330.61 3.57 333.00 2.99 C 336.71 4.15 339.05 7.64 341.79 10.21 C 356.41 24.92 371.06 39.61 385.82 54.19 C 386.94 55.40 388.08 56.65 388.81 58.16 C 388.63 60.30 386.63 61.77 385.33 63.33 C 379.83 68.59 374.63 74.16 368.98 79.25 C 362.93 74.96 358.20 69.21 352.84 64.17 C 341.64 53.36 330.85 42.15 319.69 31.31 C 316.90 28.62 314.61 25.47 312.58 22.19 C 317.27 17.01 322.35 12.21 327.18 7.17 Z" />
<path fill="#1a57ff" opacity="1.00" d=" M 140.59 4.50 C 142.75 2.88 145.14 4.81 146.78 6.24 C 151.10 10.25 154.96 14.72 159.28 18.73 C 161.95 21.44 165.10 23.86 166.86 27.31 C 167.89 29.64 165.62 31.66 164.30 33.30 C 159.51 38.18 154.46 42.80 149.81 47.81 C 147.48 50.07 145.35 52.86 142.16 53.93 C 137.53 50.98 134.20 46.48 130.26 42.74 C 126.21 38.46 121.44 34.81 118.04 29.96 C 116.71 28.69 118.08 27.07 118.84 25.90 C 122.39 21.47 126.87 17.89 130.75 13.76 C 133.98 10.63 136.76 6.94 140.59 4.50 Z" />
<path fill="#1a57ff" opacity="1.00" d=" M 13.40 7.33 C 14.57 6.62 15.90 4.91 17.35 5.96 C 22.74 8.91 26.27 14.18 30.71 18.29 C 36.71 23.96 42.71 29.62 48.27 35.74 C 62.68 49.66 76.38 64.28 90.77 78.22 C 94.79 82.49 99.72 86.08 102.69 91.22 C 102.01 94.24 99.49 96.32 97.42 98.43 C 91.70 103.71 86.77 109.79 80.87 114.89 C 69.34 125.19 59.49 137.21 47.76 147.28 C 42.44 143.67 37.79 139.22 33.38 134.59 C 22.12 123.71 11.76 111.94 0.00 101.58 L 0.00 20.64 C 4.29 16.04 8.66 11.48 13.40 7.33 Z" />
<path fill="#1a57ff" opacity="1.00" d=" M 435.73 21.73 C 440.06 16.99 444.97 12.87 450.00 8.90 L 450.00 61.31 C 444.96 57.28 440.09 53.03 435.72 48.27 C 431.76 43.93 426.45 40.52 424.00 35.00 C 426.48 29.51 431.77 26.08 435.73 21.73 Z" />
<path fill="#1a57ff" opacity="1.00" d=" M 304.58 30.49 C 306.46 29.13 308.36 31.13 309.77 32.24 C 314.91 37.09 319.60 42.40 324.81 47.19 C 327.06 49.59 330.05 51.73 331.01 55.00 C 329.34 59.53 324.92 62.29 321.75 65.75 C 316.65 70.33 312.57 76.10 306.82 79.91 C 304.12 79.59 302.10 77.56 300.19 75.82 C 296.18 71.82 292.34 67.66 288.20 63.80 C 285.55 61.14 282.53 58.58 281.11 55.00 C 283.32 49.94 288.05 46.67 291.75 42.76 C 296.12 38.77 299.67 33.85 304.58 30.49 Z" />
<path fill="#1a57ff" opacity="1.00" d=" M 162.69 45.70 C 167.64 40.90 172.23 35.66 177.92 31.69 C 190.30 43.42 202.10 55.76 214.25 67.74 C 220.85 74.52 227.84 80.92 234.17 87.96 C 229.73 94.17 224.07 99.33 218.62 104.63 C 216.97 106.02 215.28 107.77 213.03 108.02 C 210.60 107.48 208.87 105.51 207.18 103.83 C 197.06 91.99 185.92 81.05 174.29 70.70 C 170.30 66.69 166.92 62.10 162.62 58.39 C 160.90 56.53 158.37 54.79 158.10 52.10 C 158.91 49.54 160.88 47.59 162.69 45.70 Z" />
<path fill="#1a57ff" opacity="1.00" d=" M 98.25 46.25 C 102.24 42.73 105.41 37.23 110.88 36.09 C 116.72 38.47 120.16 44.21 124.50 48.50 C 127.98 52.68 132.90 55.89 135.08 61.01 C 133.43 65.31 129.31 67.98 126.26 71.26 C 120.94 76.36 116.19 82.10 110.09 86.32 C 103.87 80.74 98.24 74.56 92.19 68.81 C 89.72 66.33 87.01 63.95 85.37 60.80 C 87.95 54.72 94.05 51.14 98.25 46.25 Z" />
<path fill="#1a57ff" opacity="1.00" d=" M 335.55 61.47 C 337.74 60.13 339.72 62.43 341.29 63.70 C 346.35 68.64 351.13 73.87 356.33 78.68 C 358.46 80.83 360.90 82.92 361.97 85.84 C 360.85 87.70 359.33 89.28 357.83 90.83 C 350.83 97.64 344.18 104.80 336.90 111.31 C 329.85 106.40 324.53 99.55 318.20 93.81 C 315.92 91.42 312.96 89.27 311.96 86.00 C 313.71 81.24 318.45 78.41 321.76 74.76 C 326.51 70.50 329.86 64.59 335.55 61.47 Z" />
<path fill="#1a57ff" opacity="1.00" d=" M 272.55 62.48 C 273.81 61.57 275.39 62.82 276.53 63.44 C 281.45 67.15 285.24 72.09 289.75 76.25 C 292.85 79.49 296.69 82.22 298.82 86.26 C 298.82 86.63 298.83 87.37 298.83 87.74 C 295.99 92.72 291.06 96.04 287.24 100.23 C 283.09 104.06 279.76 109.05 274.60 111.58 C 272.86 112.58 271.51 110.67 270.23 109.77 C 265.58 105.42 261.39 100.62 256.73 96.28 C 254.00 93.37 250.28 90.92 248.99 87.00 C 250.40 82.88 254.35 80.32 257.23 77.23 C 262.51 72.50 266.82 66.70 272.55 62.48 Z" />
<path fill="#1a57ff" opacity="1.00" d=" M 441.06 82.05 C 444.14 84.37 447.25 86.67 450.00 89.38 L 450.00 188.38 C 446.41 185.89 442.67 183.54 439.64 180.35 C 429.85 170.15 419.68 160.31 409.74 150.26 C 403.63 143.96 396.95 138.19 391.52 131.26 C 403.92 118.09 417.11 105.69 429.71 92.71 C 433.30 88.97 437.11 85.42 441.06 82.05 Z" />
<path fill="#1a57ff" opacity="1.00" d=" M 180.54 90.48 C 181.51 89.57 182.77 90.85 183.65 91.33 C 188.04 94.91 191.61 99.38 195.74 103.25 C 199.47 107.14 203.94 110.47 206.65 115.21 C 205.04 119.10 201.44 121.65 198.68 124.70 C 194.14 129.15 190.03 134.05 185.13 138.13 C 183.45 139.51 180.85 140.95 178.93 139.11 C 173.90 135.18 169.96 130.05 165.24 125.76 C 162.10 122.45 157.97 119.64 156.36 115.20 C 159.17 110.25 163.90 106.83 167.76 102.76 C 172.08 98.74 175.70 93.92 180.54 90.48 Z" />
<path fill="#1a57ff" opacity="1.00" d=" M 117.43 92.32 C 119.72 91.16 121.70 93.37 123.30 94.70 C 128.33 99.67 133.15 104.85 138.32 109.68 C 140.30 111.82 142.88 113.83 143.57 116.81 C 140.86 121.80 136.06 125.16 132.24 129.24 C 127.77 133.37 124.13 138.55 118.80 141.64 C 113.94 139.78 110.94 135.18 107.25 131.75 C 103.13 127.19 98.00 123.51 94.50 118.41 C 92.88 116.25 94.82 113.86 96.24 112.22 C 100.07 108.07 104.38 104.38 108.22 100.23 C 111.09 97.39 113.71 94.08 117.43 92.32 Z" />
<path fill="#1a57ff" opacity="1.00" d=" M 235.25 98.24 C 237.30 96.27 239.55 94.53 241.84 92.84 C 247.31 97.45 252.73 102.14 257.71 107.29 C 269.22 118.78 280.64 130.37 292.27 141.74 C 294.04 143.63 296.05 145.55 296.75 148.13 C 296.72 150.84 294.43 152.84 292.77 154.76 C 279.16 168.15 265.73 181.72 252.22 195.21 C 249.16 198.14 246.58 201.78 242.72 203.70 C 242.36 203.70 241.63 203.70 241.27 203.70 C 237.39 201.81 234.81 198.16 231.77 195.23 C 219.77 183.22 207.78 171.21 195.77 159.23 C 192.52 155.90 188.69 152.95 186.44 148.80 C 187.69 145.01 191.09 142.53 193.75 139.75 C 207.66 126.00 221.47 112.13 235.25 98.24 M 241.45 154.62 C 243.12 160.16 247.84 164.00 251.46 168.28 C 255.31 164.51 259.37 160.61 261.56 155.59 C 263.92 149.64 259.23 142.47 252.92 141.90 C 246.07 140.83 239.59 147.86 241.45 154.62 Z" />
<path fill="#1a57ff" opacity="1.00" d=" M 149.20 122.57 C 150.30 122.06 151.20 123.40 152.10 123.84 C 157.54 128.39 162.03 133.95 167.29 138.70 C 169.74 141.27 172.92 143.53 174.06 147.02 C 172.36 152.68 167.04 156.08 163.04 160.06 C 158.36 164.06 154.89 169.79 148.97 172.12 C 144.30 170.09 141.39 165.62 137.76 162.25 C 133.61 157.74 128.57 154.01 125.06 148.96 C 123.52 147.10 125.66 145.22 126.73 143.78 C 131.20 138.90 136.22 134.57 140.71 129.71 C 143.35 127.15 145.71 124.01 149.20 122.57 Z" />
<path fill="#1a57ff" opacity="1.00" d=" M 85.40 123.47 C 86.80 122.85 88.23 123.92 89.40 124.60 C 93.28 127.33 96.34 131.00 99.71 134.29 C 110.88 145.45 122.00 156.67 133.22 167.78 C 136.15 170.80 139.74 173.47 141.49 177.41 C 142.44 179.36 140.28 180.84 139.27 182.26 C 131.95 189.60 124.44 196.77 117.29 204.28 C 115.29 206.26 113.38 208.46 110.80 209.70 C 107.84 209.63 105.81 207.08 103.86 205.18 C 98.57 199.15 92.41 193.96 87.03 188.02 C 82.19 182.85 76.61 178.42 71.98 173.05 C 66.95 167.42 60.43 163.17 56.13 156.89 C 53.84 153.99 56.83 150.88 58.74 148.76 C 65.07 142.41 71.56 136.23 77.74 129.74 C 80.08 127.43 82.32 124.81 85.40 123.47 Z" />
<path fill="#1a57ff" opacity="1.00" d=" M 0.00 144.59 C 5.10 138.72 11.05 133.65 17.11 128.80 C 20.72 131.51 24.14 134.48 27.09 137.90 C 32.05 143.70 38.43 148.18 42.60 154.66 C 37.05 160.75 30.98 166.34 25.34 172.34 C 22.84 174.87 20.36 177.66 17.00 179.05 C 10.24 175.55 6.11 168.66 0.00 164.23 L 0.00 144.59 Z" />
<path fill="#1a57ff" opacity="1.00" d=" M 317.22 140.22 C 320.21 137.26 322.98 133.73 327.00 132.14 C 330.58 133.53 333.14 136.56 335.79 139.20 C 339.66 143.34 343.82 147.19 347.82 151.20 C 349.56 153.10 351.58 155.12 351.91 157.81 C 348.71 162.85 343.75 166.40 339.73 170.74 C 335.95 174.30 332.78 178.60 328.42 181.51 C 326.02 183.02 323.89 180.17 322.18 178.82 C 315.36 171.72 308.19 164.97 301.47 157.77 C 305.33 150.77 311.94 146.04 317.22 140.22 Z" />
<path fill="#1a57ff" opacity="1.00" d=" M 383.60 138.58 C 386.29 136.96 388.91 139.50 390.78 141.21 C 404.15 154.84 417.73 168.27 431.22 181.79 C 434.48 185.16 438.37 188.06 440.76 192.17 C 439.45 196.80 435.00 199.51 431.92 202.92 C 426.09 209.11 419.67 214.71 413.97 221.03 C 404.59 231.30 393.60 239.97 384.46 250.47 C 381.74 253.39 379.34 256.94 375.56 258.56 C 372.50 259.69 370.25 256.55 368.18 254.84 C 354.47 240.87 340.63 227.04 326.75 213.25 C 324.06 210.36 320.29 207.93 319.12 204.00 C 320.40 199.86 324.42 197.33 327.26 194.26 C 342.60 178.93 357.90 163.57 373.28 148.28 C 376.69 145.03 379.56 141.09 383.60 138.58 Z" />
<path fill="#1a57ff" opacity="1.00" d=" M 178.07 156.06 C 181.45 153.70 184.76 157.77 187.22 159.77 C 198.06 170.93 209.15 181.84 220.22 192.78 C 226.17 198.50 231.32 205.00 237.42 210.58 C 248.23 220.56 258.61 231.02 268.27 242.12 C 262.59 249.75 255.27 255.89 248.70 262.71 C 240.22 271.51 231.03 279.63 223.16 289.00 L 187.70 289.00 C 182.27 283.52 177.13 277.76 171.55 272.42 C 162.46 262.86 152.55 254.12 143.35 244.66 C 136.87 238.13 130.27 231.73 123.73 225.27 C 121.48 222.86 118.93 220.36 118.24 217.01 C 119.91 212.24 124.41 209.30 127.76 205.76 C 143.46 190.12 159.19 174.50 174.71 158.69 C 175.76 157.72 176.84 156.79 178.07 156.06 Z" />
<path fill="#1a57ff" opacity="1.00" d=" M 68.34 185.32 C 69.68 184.19 71.70 183.31 73.22 184.69 C 82.93 193.07 91.64 202.55 100.25 212.05 C 94.81 219.59 87.59 225.52 81.33 232.33 C 79.25 234.06 77.24 237.20 74.26 236.86 C 69.47 234.13 66.26 229.42 62.25 225.75 C 56.97 220.00 50.60 215.21 46.04 208.84 C 46.96 206.10 49.24 204.19 51.18 202.18 C 57.02 196.69 61.98 190.26 68.34 185.32 Z" />
<path fill="#1a57ff" opacity="1.00" d=" M 300.75 221.75 C 304.72 218.15 307.80 213.24 312.84 211.04 C 317.47 214.00 320.74 218.56 324.80 222.20 C 329.56 226.51 334.09 231.09 338.00 236.20 C 330.66 245.63 321.68 253.56 312.75 261.43 C 305.47 257.19 300.65 250.07 294.37 244.63 C 291.96 241.89 287.77 239.33 288.12 235.26 C 291.31 229.93 296.63 226.32 300.75 221.75 Z" />
<path fill="#1a57ff" opacity="1.00" d=" M 0.00 252.79 C 14.00 240.39 26.40 226.33 40.13 213.65 C 46.47 218.66 52.31 224.30 57.73 230.29 C 58.68 231.75 60.83 233.54 59.45 235.36 C 56.93 240.01 52.66 243.31 48.97 246.99 C 34.97 260.89 20.93 274.75 7.29 289.00 L 0.00 289.00 L 0.00 252.79 Z" />
<path fill="#1a57ff" opacity="1.00" d=" M 411.23 234.23 C 412.51 233.32 413.85 231.39 415.60 232.41 C 420.55 234.83 423.81 239.55 427.73 243.27 C 431.49 247.48 436.24 250.86 439.27 255.68 C 440.51 257.18 438.79 258.72 438.05 260.01 C 434.27 264.88 429.44 268.77 425.28 273.28 C 422.03 276.84 418.31 279.95 414.18 282.43 C 408.11 276.96 402.63 270.90 396.70 265.30 C 394.27 262.74 391.06 260.48 389.98 257.00 C 390.82 253.93 393.58 251.91 395.68 249.68 C 401.06 244.73 405.93 239.26 411.23 234.23 Z" />
<path fill="#1a57ff" opacity="1.00" d=" M 41.66 266.12 C 49.89 257.38 58.39 248.89 67.13 240.66 C 74.22 245.90 79.91 252.69 86.34 258.66 C 88.63 260.96 91.09 263.24 92.49 266.22 C 91.12 270.19 87.69 272.93 84.82 275.82 C 80.15 280.04 76.00 284.78 71.34 289.00 L 63.54 289.00 C 56.11 281.52 48.14 274.49 41.66 266.12 Z" />
<path fill="#1a57ff" opacity="1.00" d=" M 325.20 258.20 C 331.16 252.41 336.63 245.99 343.74 241.54 C 349.65 246.86 355.18 252.58 360.92 258.07 C 363.60 260.76 366.56 263.41 368.01 267.01 C 366.43 270.81 363.18 273.51 360.30 276.31 C 355.97 280.24 351.99 284.53 348.23 289.00 L 338.59 289.00 C 335.08 285.32 331.95 281.27 328.10 277.92 C 324.28 274.57 320.71 270.95 317.55 266.97 C 319.97 263.94 322.45 260.94 325.20 258.20 Z" />
<path fill="#1a57ff" opacity="1.00" d=" M 254.74 268.05 C 263.17 259.31 271.40 250.30 280.75 242.53 C 285.60 246.91 290.14 251.62 294.76 256.23 C 297.75 259.25 301.13 261.94 303.65 265.40 C 304.41 266.61 305.54 268.07 304.64 269.53 C 303.17 272.59 300.40 274.73 297.99 277.02 C 293.83 280.66 290.15 284.78 286.60 289.00 L 274.54 289.00 C 267.76 282.20 260.71 275.60 254.74 268.05 Z" />
<path fill="#1a57ff" opacity="1.00" d=" M 124.24 264.24 C 128.88 259.45 133.54 254.66 138.89 250.65 C 144.37 254.96 149.22 259.96 153.93 265.09 C 157.34 268.84 161.72 272.01 163.80 276.77 C 160.93 281.37 156.68 284.88 153.20 289.00 L 125.01 289.00 C 121.05 284.94 116.61 281.09 113.97 275.99 C 116.15 271.15 120.63 267.96 124.24 264.24 Z" />
<path fill="#1a57ff" opacity="1.00" d=" M 421.21 289.00 C 430.27 278.84 439.96 269.25 450.00 260.05 L 450.00 289.00 L 421.21 289.00 Z" />
<path fill="#1a57ff" opacity="1.00" d=" M 308.42 275.38 C 309.61 274.66 311.02 273.39 312.34 274.60 C 318.38 278.30 322.14 284.59 327.59 289.00 L 295.03 289.00 C 299.61 284.57 303.19 279.11 308.42 275.38 Z" />
</g>
<g id="#1a57feff">
<path fill="#1a57fe" opacity="1.00" d=" M 403.79 53.78 C 407.65 49.23 412.14 45.23 416.92 41.67 C 425.47 50.07 434.60 57.91 442.26 67.16 C 438.22 72.42 433.86 77.64 428.42 81.50 C 426.81 82.86 425.09 81.15 423.71 80.29 C 419.09 76.60 415.50 71.82 411.24 67.75 C 408.28 64.69 404.78 62.06 402.48 58.43 C 401.20 56.80 402.81 55.06 403.79 53.78 Z" />
<path fill="#1a57fe" opacity="1.00" d=" M 148.55 60.45 C 151.00 58.75 153.53 61.13 155.30 62.70 C 160.50 67.84 165.48 73.19 170.83 78.17 C 172.71 80.19 175.19 82.05 175.87 84.85 C 174.34 87.55 172.00 89.65 169.81 91.81 C 163.38 97.84 157.49 104.43 150.91 110.32 C 143.50 105.09 137.88 97.86 131.18 91.82 C 129.11 89.41 125.18 86.91 126.16 83.31 C 129.11 78.09 134.22 74.59 138.39 70.41 C 141.98 67.30 144.67 63.22 148.55 60.45 Z" />
<path fill="#1a57fe" opacity="1.00" d=" M 373.73 83.72 C 380.88 77.14 386.97 69.38 394.91 63.68 C 401.30 69.42 407.08 75.79 413.30 81.69 C 415.67 84.03 418.20 86.29 419.94 89.17 C 419.09 91.65 417.13 93.51 415.33 95.33 C 409.38 101.04 403.54 106.87 397.82 112.82 C 395.96 114.68 394.12 116.62 391.81 117.93 C 388.64 117.46 386.40 114.90 384.19 112.82 C 379.61 108.05 374.94 103.39 370.17 98.83 C 368.57 97.08 366.54 95.40 366.00 93.00 C 367.30 89.08 371.00 86.64 373.73 83.72 Z" />
<path fill="#1a57fe" opacity="1.00" d=" M 302.93 93.87 C 305.90 91.40 308.72 95.38 310.82 97.17 C 317.19 104.23 324.79 110.16 330.34 117.94 C 322.39 126.79 314.26 135.68 304.81 142.94 C 299.21 140.33 295.81 134.74 291.27 130.74 C 287.53 126.51 282.19 123.33 279.96 118.00 C 281.09 114.29 284.64 111.95 287.20 109.20 C 292.64 104.30 297.21 98.46 302.93 93.87 Z" />
<path fill="#1a57fe" opacity="1.00" d=" M 358.34 100.38 C 359.68 99.70 360.98 101.28 362.11 101.87 C 367.39 106.23 371.71 111.61 376.79 116.20 C 379.51 119.06 383.15 121.71 383.92 125.81 C 380.10 131.57 374.33 135.65 369.75 140.75 C 366.29 143.92 363.54 148.35 359.00 150.01 C 353.47 147.69 350.18 142.10 345.76 138.24 C 341.90 133.82 336.30 130.52 333.97 125.00 C 335.65 120.47 340.08 117.71 343.25 114.25 C 348.34 109.70 352.31 103.77 358.34 100.38 Z" />
<path fill="#1a57fe" opacity="1.00" d=" M 49.20 161.48 C 52.39 162.18 54.50 165.09 56.86 167.15 C 59.53 170.06 63.08 172.75 63.94 176.82 C 59.86 182.65 54.21 187.19 49.38 192.38 C 46.07 195.41 43.35 199.48 39.00 201.06 C 35.54 199.91 33.30 196.70 30.63 194.37 C 28.28 191.82 24.96 189.70 24.02 186.18 C 26.86 181.75 31.20 178.60 34.63 174.66 C 39.21 170.01 43.46 164.73 49.20 161.48 Z" />
<path fill="#1a57fe" opacity="1.00" d=" M 293.61 164.81 C 294.88 163.85 296.08 165.14 297.14 165.79 C 302.20 169.72 306.04 174.94 310.76 179.23 C 314.31 182.44 317.74 185.82 320.51 189.75 C 314.69 196.17 308.25 201.99 302.32 208.31 C 300.29 210.33 298.35 212.58 295.74 213.85 C 293.94 214.51 292.54 212.68 291.24 211.75 C 284.10 204.88 276.42 198.41 270.50 190.40 C 269.22 188.81 270.81 187.03 271.77 185.77 C 275.67 181.35 280.23 177.56 284.24 173.24 C 287.24 170.31 289.86 166.83 293.61 164.81 Z" />
<path fill="#1a57fe" opacity="1.00" d=" M 0.00 175.20 C 10.22 186.07 21.30 196.09 31.34 207.13 C 25.96 214.41 18.99 220.25 12.77 226.77 C 8.73 231.07 4.20 234.88 0.00 239.02 L 0.00 175.20 Z" />
<path fill="#1a57fe" opacity="1.00" d=" M 253.65 203.65 C 256.49 201.01 259.03 197.69 262.80 196.35 C 265.94 198.00 268.33 200.71 270.81 203.19 C 276.55 209.25 282.75 214.86 288.32 221.08 C 283.84 226.57 279.41 232.83 273.00 236.07 C 267.86 234.00 264.82 228.82 260.72 225.28 C 256.46 220.57 250.57 216.92 247.94 210.99 C 248.90 207.97 251.57 205.92 253.65 203.65 Z" />
<path fill="#1a57fe" opacity="1.00" d=" M 437.67 207.67 C 440.86 203.74 445.03 200.68 450.00 199.49 L 450.00 250.51 C 441.33 248.33 436.51 240.39 430.20 234.81 C 427.15 231.67 423.18 228.75 422.20 224.25 C 426.18 217.75 432.80 213.46 437.67 207.67 Z" />
<path fill="#1a57fe" opacity="1.00" d=" M 85.18 239.18 C 92.28 232.41 98.96 225.21 106.19 218.57 C 109.90 220.81 113.31 223.56 116.07 226.93 C 121.09 233.02 127.10 238.18 132.32 244.08 C 128.17 250.25 122.26 254.84 117.20 260.21 C 113.97 263.28 111.35 267.48 107.00 269.02 C 102.26 267.24 99.40 262.56 95.74 259.26 C 91.57 254.75 86.65 250.93 82.88 246.07 C 80.62 243.62 83.59 240.99 85.18 239.18 Z" />
<path fill="#1a57fe" opacity="1.00" d=" M 377.15 268.15 C 378.69 266.66 380.30 265.16 382.25 264.22 C 385.36 264.66 387.55 267.22 389.72 269.27 C 395.93 275.88 402.86 281.80 408.43 289.00 L 356.99 289.00 C 363.52 281.87 370.40 275.07 377.15 268.15 Z" />
<path fill="#1a57fe" opacity="1.00" d=" M 33.83 273.81 C 35.17 273.02 36.79 271.21 38.33 272.62 C 44.97 276.84 49.22 283.74 54.95 289.00 L 18.37 289.00 C 23.95 284.38 28.18 278.35 33.83 273.81 Z" />
<path fill="#1a57fe" opacity="1.00" d=" M 96.95 274.90 C 98.13 274.24 99.64 272.89 100.91 274.10 C 106.92 277.97 110.92 284.09 115.99 289.00 L 83.02 289.00 C 87.76 284.40 91.51 278.75 96.95 274.90 Z" />
<path fill="#1a57fe" opacity="1.00" d=" M 233.39 289.00 C 239.17 283.77 244.19 277.77 250.12 272.70 C 256.57 277.22 261.65 283.25 266.94 289.00 L 233.39 289.00 Z" />
</g>
<g id="#f5fcfcff">
<path fill="#f5fcfc" opacity="1.00" d=" M 241.45 154.62 C 239.59 147.86 246.07 140.83 252.92 141.90 C 259.23 142.47 263.92 149.64 261.56 155.59 C 259.37 160.61 255.31 164.51 251.46 168.28 C 247.84 164.00 243.12 160.16 241.45 154.62 M 249.46 148.38 C 246.75 149.83 246.43 154.29 249.07 155.98 C 251.83 158.02 256.71 155.78 255.94 152.08 C 256.29 148.54 252.19 147.30 249.46 148.38 Z" />
</g>
<g id="#1f58f1ff">
<path fill="#1f58f1" opacity="1.00" d=" M 249.46 148.38 C 252.19 147.30 256.29 148.54 255.94 152.08 C 256.71 155.78 251.83 158.02 249.07 155.98 C 246.43 154.29 246.75 149.83 249.46 148.38 Z" />
</g>
</svg>
