<?xml version="1.0" encoding="utf-8"?>
<!-- Generator: Adobe Illustrator 25.0.0, SVG Export Plug-In . SVG Version: 6.00 Build 0)  -->
<svg version="1.1" id="Layer_1" xmlns="http://www.w3.org/2000/svg" xmlns:xlink="http://www.w3.org/1999/xlink" x="0px" y="0px"
	 viewBox="0 0 500 300" style="enable-background:new 0 0 500 300;" xml:space="preserve">
<style type="text/css">
	.st0{fill:none;stroke:#D2F7FF;stroke-width:0.5;stroke-linecap:round;stroke-linejoin:round;}
	.st1{fill:#D2F7FF;}
	.st2{font-family:'CourierNewPSMT';}
	.st3{font-size:6.1px;}
	.st4{fill:none;stroke:#D2F7FF;stroke-width:0.5;stroke-miterlimit:10;}
	.st5{fill:none;stroke:#D2F7FF;stroke-miterlimit:10;}
	.st6{fill:none;stroke:#D2F7FF;stroke-width:3;stroke-miterlimit:10;}
	.st7{fill:none;stroke:#D2F7FF;stroke-linecap:round;stroke-linejoin:round;}
	.st8{fill:none;stroke:#D2F7FF;stroke-linecap:round;stroke-linejoin:round;stroke-dasharray:1.01,2.02;}
	.st9{fill:none;stroke:#D2F7FF;stroke-linecap:round;stroke-linejoin:round;stroke-dasharray:0.99,1.99;}
	.st10{fill:none;stroke:#D2F7FF;stroke-width:0.5;stroke-linecap:round;stroke-linejoin:round;stroke-dasharray:2,2;}
</style>
<line class="st0" x1="437.9" y1="263.1" x2="443.3" y2="263.1"/>
<line class="st0" x1="431.4" y1="273.7" x2="431.4" y2="268.2"/>
<line class="st0" x1="431.4" y1="49.8" x2="431.4" y2="44.3"/>
<line class="st0" x1="406.9" y1="49.8" x2="406.9" y2="44.3"/>
<line class="st0" x1="385.3" y1="49.8" x2="385.3" y2="44.3"/>
<line class="st0" x1="363.3" y1="49.8" x2="363.3" y2="44.3"/>
<line class="st0" x1="341.6" y1="49.8" x2="341.6" y2="44.3"/>
<line class="st0" x1="315.5" y1="49.8" x2="315.5" y2="44.3"/>
<line class="st0" x1="289.8" y1="49.8" x2="289.8" y2="44.3"/>
<line class="st0" x1="267.7" y1="49.8" x2="267.7" y2="44.3"/>
<line class="st0" x1="245.3" y1="49.8" x2="245.3" y2="44.3"/>
<line class="st0" x1="223.6" y1="49.8" x2="223.6" y2="44.3"/>
<line class="st0" x1="202.2" y1="49.8" x2="202.2" y2="44.3"/>
<line class="st0" x1="171.8" y1="10.8" x2="171.8" y2="5.3"/>
<line class="st0" x1="174.1" y1="11.9" x2="178" y2="8.1"/>
<line class="st0" x1="198.4" y1="37" x2="202.2" y2="33.2"/>
<line class="st0" x1="128.2" y1="10.8" x2="128.2" y2="5.3"/>
<line class="st0" x1="127.2" y1="11.9" x2="123.4" y2="8.1"/>
<line class="st0" x1="102.5" y1="35.7" x2="98.6" y2="31.9"/>
<line class="st0" x1="431.4" y1="288.5" x2="431.4" y2="283.1"/>
<line class="st0" x1="76.4" y1="288.5" x2="76.4" y2="283.1"/>
<line class="st0" x1="316" y1="273.7" x2="316" y2="268.2"/>
<line class="st0" x1="281.3" y1="273.7" x2="281.3" y2="268.2"/>
<line class="st0" x1="236.4" y1="273.7" x2="236.4" y2="268.2"/>
<line class="st0" x1="202.2" y1="273.7" x2="202.2" y2="268.2"/>
<line class="st0" x1="179.1" y1="273.7" x2="179.1" y2="268.2"/>
<line class="st0" x1="157.1" y1="273.7" x2="157.1" y2="268.2"/>
<line class="st0" x1="134.3" y1="273.7" x2="134.3" y2="268.2"/>
<line class="st0" x1="76.4" y1="273.7" x2="76.4" y2="268.2"/>
<line class="st0" x1="70.3" y1="262.5" x2="64.8" y2="262.5"/>
<line class="st0" x1="70.3" y1="234.9" x2="64.8" y2="234.9"/>
<line class="st0" x1="70.3" y1="213.2" x2="64.8" y2="213.2"/>
<line class="st0" x1="70.3" y1="202.1" x2="64.8" y2="202.1"/>
<line class="st0" x1="67.3" y1="180.4" x2="61.8" y2="180.4"/>
<line class="st0" x1="70.3" y1="135.2" x2="64.8" y2="135.2"/>
<line class="st0" x1="70.3" y1="113.6" x2="64.8" y2="113.6"/>
<line class="st0" x1="70.3" y1="102.4" x2="64.8" y2="102.4"/>
<line class="st0" x1="70.3" y1="81" x2="64.8" y2="81"/>
<line class="st0" x1="70.3" y1="57.4" x2="64.8" y2="57.4"/>
<line class="st0" x1="437.9" y1="209.3" x2="443.3" y2="209.3"/>
<line class="st0" x1="437.9" y1="186.8" x2="443.3" y2="186.8"/>
<line class="st0" x1="437.9" y1="163" x2="443.3" y2="163"/>
<line class="st0" x1="437.9" y1="141.4" x2="443.3" y2="141.4"/>
<line class="st0" x1="437.9" y1="91.6" x2="443.3" y2="91.6"/>
<line class="st0" x1="437.9" y1="69.9" x2="443.3" y2="69.9"/>
<line class="st0" x1="437.9" y1="56.2" x2="443.3" y2="56.2"/>
<line class="st0" x1="456" y1="263.1" x2="461.4" y2="263.1"/>
<line class="st0" x1="456" y1="56.2" x2="461.4" y2="56.2"/>
<text transform="matrix(6.123234e-17 1 -1 6.123234e-17 446.9395 232.21)" class="st1 st2 st3">200</text>
<text transform="matrix(1 0 0 1 369.75 277.32)" class="st1 st2 st3">480</text>
<text transform="matrix(1 0 0 1 393.46 42.43)" class="st1 st2 st3">80</text>
<text transform="matrix(1 0 0 1 371.64 42.43)" class="st1 st2 st3">80</text>
<text transform="matrix(1 0 0 1 349.82 42.43)" class="st1 st2 st3">80</text>
<text transform="matrix(1 0 0 1 275.86 42.43)" class="st1 st2 st3">80</text>
<text transform="matrix(1 0 0 1 231.43 42.43)" class="st1 st2 st3">80</text>
<text transform="matrix(1 0 0 1 324.59 42.43)" class="st1 st2 st3">100</text>
<text transform="matrix(1 0 0 1 298.66 42.43)" class="st1 st2 st3">100</text>
<text transform="matrix(1 0 0 1 210.25 42.43)" class="st1 st2 st3">80</text>
<text transform="matrix(0.7071 0.7071 -0.7071 0.7071 188.4796 16.95)" class="st1 st2 st3">100</text>
<text transform="matrix(0.7071 -0.7071 0.7071 0.7071 107.27 24.2499)" class="st1 st2 st3">100</text>
<text transform="matrix(1 0 0 1 146.05 5.35)" class="st1 st2 st3">160</text>
<text transform="matrix(1 0 0 1 253.6 42.43)" class="st1 st2 st3">80</text>
<text transform="matrix(1 0 0 1 414.97 42.43)" class="st1 st2 st3">100</text>
<text transform="matrix(1 0 0 1 294.69 277.32)" class="st1 st2 st3">140</text>
<text transform="matrix(1 0 0 1 212.66 277.32)" class="st1 st2 st3">140</text>
<text transform="matrix(1 0 0 1 185.76 277.32)" class="st1 st2 st3">100</text>
<text transform="matrix(1 0 0 1 140.54 277.32)" class="st1 st2 st3">100</text>
<text transform="matrix(1 0 0 1 101.4 277.32)" class="st1 st2 st3">240</text>
<text transform="matrix(6.123234e-17 -1 1 6.123234e-17 62.69 252.6396)" class="st1 st2 st3">120</text>
<text transform="matrix(6.123234e-17 -1 1 6.123234e-17 62.69 226.6797)" class="st1 st2 st3">80</text>
<text transform="matrix(6.123234e-17 -1 1 6.123234e-17 62.69 193.8896)" class="st1 st2 st3">80</text>
<text transform="matrix(6.123234e-17 -1 1 6.123234e-17 62.69 127.0303)" class="st1 st2 st3">80</text>
<text transform="matrix(6.123234e-17 -1 1 6.123234e-17 62.69 94.3701)" class="st1 st2 st3">80</text>
<text transform="matrix(6.123234e-17 -1 1 6.123234e-17 62.69 73.1904)" class="st1 st2 st3">100</text>
<text transform="matrix(6.123234e-17 -1 1 6.123234e-17 62.69 110.6396)" class="st1 st2 st3">40</text>
<text transform="matrix(6.123234e-17 -1 1 6.123234e-17 62.69 161.79)" class="st1 st2 st3">180</text>
<text transform="matrix(6.123234e-17 -1 1 6.123234e-17 62.69 210.2803)" class="st1 st2 st3">40</text>
<text transform="matrix(1 0 0 1 165.2 277.32)" class="st1 st2 st3">80</text>
<text transform="matrix(1 0 0 1 254.9 277.32)" class="st1 st2 st3">200</text>
<text transform="matrix(1 0 0 1 248.63 294.12)" class="st1 st2 st3">1480</text>
<text transform="matrix(6.123234e-17 1 -1 6.123234e-17 446.9395 195.37)" class="st1 st2 st3">80</text>
<text transform="matrix(6.123234e-17 1 -1 6.123234e-17 446.9395 171.99)" class="st1 st2 st3">80</text>
<text transform="matrix(6.123234e-17 1 -1 6.123234e-17 446.9395 149.32)" class="st1 st2 st3">80</text>
<text transform="matrix(6.123234e-17 1 -1 6.123234e-17 464.9395 155.71)" class="st1 st2 st3">780</text>
<text transform="matrix(6.123234e-17 1 -1 6.123234e-17 446.9395 78.12)" class="st1 st2 st3">80</text>
<text transform="matrix(6.123234e-17 1 -1 6.123234e-17 446.9395 60.2)" class="st1 st2 st3">60</text>
<text transform="matrix(6.123234e-17 1 -1 6.123234e-17 446.9395 112.52)" class="st1 st2 st3">200</text>
<line class="st4" x1="458.7" y1="261.1" x2="458.7" y2="58"/>
<path class="st1" d="M458.7,260.6l-0.9-0.5l0,0l0.6,1.5l0.3,1.5c0.1-0.5,0.2-1,0.3-1.5l0.6-1.5l0,0L458.7,260.6z"/>
<polygon class="st1" points="458.7,56.2 459.7,58.7 458.7,58.1 457.7,58.7 "/>
<line class="st4" x1="78.5" y1="285.8" x2="429.6" y2="285.8"/>
<path class="st1" d="M78.9,285.8l0.6-0.9l0,0l-1.5,0.6l-1.5,0.3l1.5,0.3l1.5,0.6l0,0L78.9,285.8z"/>
<polygon class="st1" points="431.4,285.8 428.9,286.8 429.5,285.8 428.9,284.8 "/>
<rect x="78.2" y="59.2" class="st5" width="18.2" height="18.4"/>
<path class="st5" d="M86.7,64.4c0,1.7-1.4,3-3.1,2.9c-1.7,0-3-1.4-2.9-3c0-1.6,1.3-2.9,2.9-2.9C85.3,61.4,86.7,62.7,86.7,64.4z"/>
<path class="st5" d="M85.1,64.4c0,0.8-0.7,1.5-1.5,1.5s-1.5-0.7-1.5-1.5c0-0.8,0.7-1.5,1.5-1.5c0,0,0,0,0,0
	C84.4,62.9,85.1,63.6,85.1,64.4z"/>
<path class="st5" d="M86.7,72.4c0,1.7-1.3,3-3,3c-1.7,0-3-1.3-3-3c0-1.6,1.3-3,2.9-3C85.3,69.4,86.7,70.7,86.7,72.4
	C86.7,72.4,86.7,72.4,86.7,72.4z"/>
<path class="st5" d="M85.1,72.4c0,0.8-0.7,1.5-1.5,1.5c-0.8,0-1.5-0.7-1.5-1.5c0-0.8,0.7-1.5,1.5-1.5c0,0,0,0,0,0
	C84.5,70.9,85.1,71.6,85.1,72.4z"/>
<circle class="st5" cx="91.5" cy="64.4" r="3.1"/>
<path class="st5" d="M93,64.4c0,0.8-0.7,1.5-1.5,1.5S90,65.3,90,64.4c0-0.8,0.7-1.5,1.5-1.5c0,0,0,0,0,0C92.3,62.9,93,63.6,93,64.4z
	"/>
<path class="st5" d="M94.6,72.4c0,1.7-1.3,3-3,3s-3-1.3-3-3s1.3-3,3-3S94.6,70.8,94.6,72.4z"/>
<path class="st5" d="M93,72.4c0,0.8-0.7,1.5-1.5,1.5c-0.8,0-1.5-0.7-1.5-1.5c0-0.8,0.7-1.5,1.5-1.5c0,0,0,0,0,0
	C92.3,70.9,93,71.6,93,72.4z"/>
<line class="st6" x1="202.2" y1="78.4" x2="202.2" y2="192.1"/>
<line class="st6" x1="316" y1="175.2" x2="316" y2="261.4"/>
<line class="st6" x1="431.4" y1="141.4" x2="431.4" y2="91.6"/>
<line class="st6" x1="431.4" y1="186.8" x2="431.4" y2="163"/>
<polyline class="st6" points="280.9,261.4 431.4,261.4 431.4,208.4 "/>
<line class="st6" x1="179.1" y1="261.4" x2="237" y2="261.4"/>
<polyline class="st6" points="76.4,234.9 76.4,261.4 157.4,261.4 "/>
<line class="st6" x1="76.4" y1="202.1" x2="76.4" y2="213.2"/>
<line class="st6" x1="76.4" y1="135.2" x2="76.4" y2="180.4"/>
<line class="st6" x1="76.4" y1="102.4" x2="76.4" y2="113.6"/>
<polyline class="st6" points="110.3,33.8 105.4,38.6 105.5,58.2 76.4,58.2 76.4,80.8 "/>
<polyline class="st6" points="139.3,15 129,15 122.8,21.2 "/>
<polyline class="st6" points="177.4,21.2 171.2,15 161,15 "/>
<polyline class="st6" points="223.6,78.4 194.8,78.4 194.8,38.6 190,33.8 "/>
<line class="st6" x1="267.7" y1="78.4" x2="245.3" y2="78.4"/>
<polyline class="st6" points="341.6,56.2 317.5,56.2 317.5,78.4 289.4,78.4 "/>
<line class="st6" x1="385.3" y1="56.2" x2="363.3" y2="56.2"/>
<polyline class="st6" points="431.4,69.9 431.4,56.2 406.9,56.2 "/>
<rect x="429.7" y="141.4" class="st5" width="3.5" height="21.7"/>
<rect x="429.7" y="186.8" class="st5" width="3.5" height="21.7"/>
<rect x="429.7" y="69.9" class="st5" width="3.5" height="21.7"/>
<rect x="385.3" y="54.5" class="st5" width="21.7" height="3.5"/>
<rect x="341.6" y="54.5" class="st5" width="21.7" height="3.5"/>
<rect x="267.7" y="76.7" class="st5" width="21.7" height="3.5"/>
<rect x="223.6" y="76.7" class="st5" width="21.7" height="3.5"/>
<rect x="139.3" y="13.3" class="st5" width="21.7" height="3.5"/>
<rect x="74.7" y="80.8" class="st5" width="3.5" height="21.7"/>
<rect x="74.7" y="113.6" class="st5" width="3.5" height="21.7"/>
<rect x="74.7" y="180.4" class="st5" width="3.5" height="21.7"/>
<rect x="74.7" y="213.2" class="st5" width="3.5" height="21.7"/>
<rect x="157.4" y="259.6" class="st5" width="21.7" height="3.5"/>
<rect x="181.8" y="18.7" transform="matrix(0.7071 -0.7071 0.7071 0.7071 34.2569 137.8815)" class="st5" width="3.5" height="17.8"/>
<rect x="107.6" y="25.9" transform="matrix(0.7071 -0.7071 0.7071 0.7071 14.5948 90.4468)" class="st5" width="17.8" height="3.5"/>
<path class="st5" d="M356.3,174.9c0,0,0.2,20.4-22.3,21.7v-21.7"/>
<line class="st7" x1="333.1" y1="174.9" x2="333.6" y2="174.9"/>
<line class="st8" x1="335.6" y1="174.9" x2="355.8" y2="174.9"/>
<line class="st7" x1="356.8" y1="174.9" x2="357.3" y2="174.9"/>
<path class="st5" d="M239.1,175.2c0,0,0.2-20.4-22.3-21.7v21.7"/>
<line class="st7" x1="215.9" y1="175.2" x2="216.4" y2="175.2"/>
<line class="st8" x1="218.4" y1="175.2" x2="238.6" y2="175.2"/>
<line class="st7" x1="239.6" y1="175.2" x2="240.1" y2="175.2"/>
<path class="st5" d="M158,145.6c0,0-0.2-20.4,22.3-21.7v21.7"/>
<line class="st7" x1="181.3" y1="145.6" x2="180.8" y2="145.6"/>
<line class="st8" x1="178.8" y1="145.6" x2="158.6" y2="145.6"/>
<line class="st7" x1="157.6" y1="145.6" x2="157.1" y2="145.6"/>
<path class="st5" d="M144.5,178c0,0-20.4-0.2-21.7,22.3h21.7"/>
<line class="st7" x1="144.5" y1="201.3" x2="144.5" y2="200.8"/>
<line class="st8" x1="144.5" y1="198.8" x2="144.5" y2="178.6"/>
<line class="st7" x1="144.5" y1="177.6" x2="144.5" y2="177.1"/>
<path class="st5" d="M158.4,213.2c0,0-0.2,20.4,22.3,21.7v-21.7"/>
<line class="st7" x1="181.6" y1="213.2" x2="181.1" y2="213.2"/>
<line class="st8" x1="179.1" y1="213.2" x2="158.9" y2="213.2"/>
<line class="st7" x1="157.9" y1="213.2" x2="157.4" y2="213.2"/>
<path class="st5" d="M258.9,261.4c0,0,0.2-20.4-22.4-21.7v21.7"/>
<path class="st5" d="M258.9,261.4c0,0-0.2-20.4,22.4-21.7v21.7"/>
<line class="st7" x1="235.4" y1="261.4" x2="235.9" y2="261.4"/>
<line class="st9" x1="237.9" y1="261.4" x2="281.7" y2="261.4"/>
<line class="st7" x1="282.7" y1="261.4" x2="283.2" y2="261.4"/>
<line class="st6" x1="334" y1="175.2" x2="238.5" y2="175.2"/>
<line class="st6" x1="429.8" y1="175.2" x2="355.7" y2="175.2"/>
<line class="st6" x1="216.8" y1="175.2" x2="202.2" y2="175.2"/>
<line class="st6" x1="202.2" y1="146" x2="180" y2="146"/>
<line class="st6" x1="158.4" y1="146" x2="76.4" y2="146"/>
<polyline class="st6" points="202.2,262.5 202.2,213.2 180,213.2 "/>
<polyline class="st6" points="158.4,213.2 134.3,213.2 134.3,261.4 "/>
<line class="st6" x1="144.5" y1="213.2" x2="144.5" y2="200.3"/>
<line class="st6" x1="144.5" y1="178.6" x2="144.5" y2="146"/>
<path class="st5" d="M370.8,204.7h16.9c0.6,0,1,0.4,1,1v2.6c0,0.6-0.4,1-1,1h-16.9c-0.6,0-1-0.4-1-1v-2.6
	C369.8,205.1,370.2,204.7,370.8,204.7z"/>
<path class="st5" d="M370.8,249.4h16.9c0.6,0,1,0.4,1,1v2.6c0,0.6-0.4,1-1,1h-16.9c-0.6,0-1-0.4-1-1v-2.6
	C369.8,249.8,370.2,249.4,370.8,249.4z"/>
<path class="st5" d="M372.3,209.3h11c0.6,0,1,0.4,1,1v11.4c0,0.6-0.4,1-1,1h-11c-0.6,0-1-0.4-1-1v-11.4
	C371.3,209.7,371.8,209.3,372.3,209.3z"/>
<path class="st5" d="M385.3,209.3h2.4c0.6,0,1,0.4,1,1v11.4c0,0.6-0.4,1-1,1h-2.4c-0.6,0-1-0.4-1-1v-11.4
	C384.3,209.7,384.8,209.3,385.3,209.3z"/>
<path class="st5" d="M372.3,222.6h11c0.6,0,1,0.4,1,1V235c0,0.6-0.4,1-1,1h-11c-0.6,0-1-0.4-1-1v-11.4
	C371.3,223.1,371.8,222.6,372.3,222.6z"/>
<path class="st5" d="M385.3,222.6h2.4c0.6,0,1,0.4,1,1V235c0,0.6-0.4,1-1,1h-2.4c-0.6,0-1-0.4-1-1v-11.4
	C384.3,223.1,384.8,222.6,385.3,222.6z"/>
<path class="st5" d="M372.3,236h11c0.6,0,1,0.4,1,1v11.4c0,0.6-0.4,1-1,1h-11c-0.6,0-1-0.4-1-1V237C371.3,236.5,371.8,236,372.3,236
	z"/>
<path class="st5" d="M385.3,236h2.4c0.6,0,1,0.4,1,1v11.4c0,0.6-0.4,1-1,1h-2.4c-0.6,0-1-0.4-1-1V237
	C384.3,236.5,384.8,236,385.3,236z"/>
<path class="st5" d="M336.7,137.1h16.9c0.6,0,1,0.4,1,1v2.6c0,0.6-0.4,1-1,1h-16.9c-0.6,0-1-0.4-1-1v-2.6
	C335.7,137.5,336.2,137.1,336.7,137.1z"/>
<path class="st5" d="M336.7,92.4h16.9c0.6,0,1,0.4,1,1V96c0,0.6-0.4,1-1,1h-16.9c-0.6,0-1-0.4-1-1v-2.6
	C335.7,92.8,336.2,92.4,336.7,92.4z"/>
<path class="st5" d="M341.1,123.7h11c0.6,0,1,0.4,1,1v11.4c0,0.6-0.4,1-1,1h-11c-0.6,0-1-0.4-1-1v-11.4
	C340.1,124.2,340.5,123.7,341.1,123.7z"/>
<path class="st5" d="M336.7,123.7h2.4c0.6,0,1,0.4,1,1v11.4c0,0.6-0.4,1-1,1h-2.4c-0.6,0-1-0.4-1-1v-11.4
	C335.7,124.2,336.2,123.7,336.7,123.7z"/>
<path class="st5" d="M341.1,110.3h11c0.6,0,1,0.4,1,1v11.4c0,0.6-0.4,1-1,1h-11c-0.6,0-1-0.4-1-1v-11.4
	C340.1,110.8,340.5,110.3,341.1,110.3z"/>
<path class="st5" d="M336.7,110.3h2.4c0.6,0,1,0.4,1,1v11.4c0,0.6-0.4,1-1,1h-2.4c-0.6,0-1-0.4-1-1v-11.4
	C335.7,110.8,336.2,110.3,336.7,110.3z"/>
<path class="st5" d="M341.1,96.9h11c0.6,0,1,0.4,1,1v11.4c0,0.6-0.4,1-1,1h-11c-0.6,0-1-0.4-1-1V97.9
	C340.1,97.4,340.5,96.9,341.1,96.9z"/>
<path class="st5" d="M336.7,96.9h2.4c0.6,0,1,0.4,1,1v11.4c0,0.6-0.4,1-1,1h-2.4c-0.6,0-1-0.4-1-1V97.9
	C335.7,97.4,336.2,96.9,336.7,96.9z"/>
<path class="st5" d="M363.6,68.9h2.6c0.6,0,1,0.4,1,1v16.9c0,0.6-0.4,1-1,1h-2.6c-0.6,0-1-0.4-1-1V69.9
	C362.6,69.4,363,68.9,363.6,68.9z"/>
<path class="st5" d="M408.3,68.9h2.6c0.6,0,1,0.4,1,1v16.9c0,0.6-0.4,1-1,1h-2.6c-0.6,0-1-0.4-1-1V69.9
	C407.3,69.4,407.7,68.9,408.3,68.9z"/>
<path class="st5" d="M368.2,73.3h11.4c0.6,0,1,0.4,1,1v11c0,0.6-0.4,1-1,1h-11.4c-0.6,0-1-0.4-1-1v-11
	C367.2,73.8,367.6,73.3,368.2,73.3z"/>
<path class="st5" d="M368.2,68.9h11.4c0.6,0,1,0.4,1,1v2.4c0,0.6-0.4,1-1,1h-11.4c-0.6,0-1-0.4-1-1v-2.4
	C367.2,69.4,367.6,68.9,368.2,68.9z"/>
<path class="st5" d="M381.5,73.3h11.4c0.6,0,1,0.4,1,1v11c0,0.6-0.4,1-1,1h-11.4c-0.6,0-1-0.4-1-1v-11
	C380.5,73.8,381,73.3,381.5,73.3z"/>
<path class="st5" d="M381.5,68.9h11.4c0.6,0,1,0.4,1,1v2.4c0,0.6-0.4,1-1,1h-11.4c-0.6,0-1-0.4-1-1v-2.4
	C380.5,69.4,381,68.9,381.5,68.9z"/>
<path class="st5" d="M394.9,73.3h11.4c0.6,0,1,0.4,1,1v11c0,0.6-0.4,1-1,1h-11.4c-0.6,0-1-0.4-1-1v-11
	C393.9,73.8,394.4,73.3,394.9,73.3z"/>
<path class="st5" d="M394.9,68.9h11.4c0.6,0,1,0.4,1,1v2.4c0,0.6-0.4,1-1,1h-11.4c-0.6,0-1-0.4-1-1v-2.4
	C393.9,69.4,394.4,68.9,394.9,68.9z"/>
<rect x="424.1" y="213.2" class="st5" width="6.5" height="12.1"/>
<rect x="424.1" y="225.3" class="st5" width="6.5" height="12.1"/>
<rect x="424.1" y="237.3" class="st5" width="6.5" height="12.1"/>
<rect x="319.3" y="210.9" class="st5" width="3.6" height="36.9"/>
<polyline class="st5" points="268.6,175.2 268.6,192.1 299.4,192.1 299.4,221.6 316,221.6 "/>
<line class="st4" x1="299.4" y1="218.3" x2="316" y2="218.3"/>
<line class="st4" x1="299.4" y1="214.7" x2="316" y2="214.7"/>
<line class="st4" x1="299.4" y1="211.1" x2="316" y2="211.1"/>
<line class="st4" x1="299.4" y1="207.5" x2="316" y2="207.5"/>
<line class="st4" x1="299.4" y1="203.9" x2="316" y2="203.9"/>
<line class="st4" x1="299.4" y1="200.4" x2="316" y2="200.4"/>
<line class="st4" x1="299.4" y1="196.8" x2="316" y2="196.8"/>
<line class="st4" x1="299.4" y1="193.2" x2="316" y2="193.2"/>
<line class="st4" x1="297.5" y1="192.1" x2="297.5" y2="175.4"/>
<line class="st4" x1="294" y1="192.1" x2="294" y2="175.4"/>
<line class="st4" x1="290.4" y1="192.1" x2="290.4" y2="175.4"/>
<line class="st4" x1="286.8" y1="192.1" x2="286.8" y2="175.4"/>
<line class="st4" x1="283.2" y1="192.1" x2="283.2" y2="175.4"/>
<line class="st4" x1="279.6" y1="192.1" x2="279.6" y2="175.4"/>
<line class="st4" x1="276" y1="192.1" x2="276" y2="175.4"/>
<line class="st4" x1="272.4" y1="192.1" x2="272.4" y2="175.4"/>
<polyline class="st5" points="306.8,227.4 306.8,184 265.6,184 "/>
<path class="st1" d="M308.6,227.4c0,1-0.8,1.9-1.9,1.9c-1,0-1.9-0.8-1.9-1.9c0-1,0.8-1.9,1.9-1.9S308.6,226.4,308.6,227.4
	C308.6,227.4,308.6,227.4,308.6,227.4z"/>
<polygon class="st1" points="266.3,181.5 262,184 266.3,186.5 "/>
<rect x="190.5" y="219.8" class="st5" width="10.4" height="14.4"/>
<path class="st5" d="M195.8,221.4c1.6,0,2.9,2.5,2.9,5.6s-1.3,5.6-2.9,5.6s-2.9-2.5-2.9-5.6S194.2,221.4,195.8,221.4z"/>
<rect x="190.5" y="236.6" class="st5" width="10.4" height="14.4"/>
<path class="st5" d="M195.8,238.3c1.6,0,2.9,2.5,2.9,5.6s-1.3,5.6-2.9,5.6s-2.9-2.5-2.9-5.6S194.2,238.3,195.8,238.3z"/>
<path class="st5" d="M135.6,240.3h3.4c0.6,0,1,0.4,1,1v7.3c0,0.6-0.4,1-1,1h-3.4c-0.6,0-1-0.4-1-1v-7.3
	C134.6,240.7,135,240.3,135.6,240.3z"/>
<path class="st5" d="M137,246c-0.6,0-1.1-0.5-1.1-1.1s0.5-1.1,1.1-1.1c0.6,0,1.1,0.5,1.1,1.1l0,0C138.1,245.5,137.6,246,137,246z"/>
<path class="st5" d="M140,241.4h5c0,0,4.4,0,4.4,3.5c0,3-3.8,3.4-4.3,3.4H140"/>
<path class="st5" d="M145.1,246.9c-1.7,0-3.1-0.9-3.1-2.1s1.4-2.1,3.1-2.1s3.1,0.9,3.1,2.1S146.8,246.9,145.1,246.9z"/>
<rect x="80.9" y="147.1" class="st5" width="16.8" height="6.4"/>
<rect x="97.7" y="147.1" class="st5" width="16.8" height="6.4"/>
<rect x="80.9" y="244.5" class="st5" width="13.9" height="12.5"/>
<rect x="84.8" y="254.8" class="st5" width="8.2" height="2.3"/>
<rect x="97.6" y="244.5" class="st5" width="13.9" height="12.5"/>
<rect x="101.4" y="254.8" class="st5" width="8.2" height="2.3"/>
<rect x="78.2" y="86.4" class="st5" width="12.5" height="26.1"/>
<path class="st5" d="M82.6,96h4c0.6,0,1,0.4,1,1v4c0,0.6-0.4,1-1,1h-4c-0.6,0-1-0.4-1-1v-4C81.6,96.4,82,96,82.6,96z"/>
<path class="st5" d="M82.6,103.6h4c0.6,0,1,0.4,1,1v4c0,0.6-0.4,1-1,1h-4c-0.6,0-1-0.4-1-1v-4C81.6,104.1,82,103.6,82.6,103.6z"/>
<line class="st5" x1="81.9" y1="88.1" x2="81.9" y2="94.2"/>
<line class="st5" x1="83.2" y1="88.1" x2="83.2" y2="94.2"/>
<line class="st5" x1="84.6" y1="88.1" x2="84.6" y2="94.2"/>
<line class="st5" x1="85.9" y1="88.1" x2="85.9" y2="94.2"/>
<line class="st5" x1="87.3" y1="88.1" x2="87.3" y2="94.2"/>
<rect x="78.2" y="112.5" class="st5" width="12.5" height="15.9"/>
<rect x="78.2" y="128.4" class="st5" width="12.5" height="15.9"/>
<rect x="78.2" y="77.6" class="st5" width="14.3" height="8.8"/>
<path class="st5" d="M162.9,48.3c0,7.1-5.8,12.9-12.9,12.9c-7.1,0-12.9-5.8-12.9-12.9c0-7.1,5.8-12.9,12.9-12.9
	C157.1,35.5,162.9,41.2,162.9,48.3C162.9,48.3,162.9,48.3,162.9,48.3z"/>
<rect x="147.2" y="27.5" class="st5" width="5.6" height="5.6"/>
<rect x="146.4" y="25.6" class="st5" width="7.2" height="1.9"/>
<rect x="147.2" y="63.6" class="st5" width="5.6" height="5.6"/>
<rect x="146.4" y="69.2" class="st5" width="7.2" height="1.9"/>
<rect x="129.2" y="45.5" class="st5" width="5.6" height="5.6"/>
<rect x="127.3" y="44.8" class="st5" width="1.9" height="7.2"/>
<rect x="165.3" y="45.5" class="st5" width="5.6" height="5.6"/>
<rect x="170.9" y="44.8" class="st5" width="1.9" height="7.2"/>
<rect x="123.5" y="82" class="st5" width="15.3" height="45.6"/>
<path class="st5" d="M148.2,115.8c0,1.9-1.5,3.3-3.4,3.3c-1.9,0-3.4-1.5-3.3-3.4c0-1.9,1.5-3.3,3.4-3.3c0,0,0,0,0,0
	C146.7,112.5,148.2,114,148.2,115.8C148.2,115.8,148.2,115.8,148.2,115.8z"/>
<path class="st5" d="M148.2,104.8c0,1.9-1.5,3.3-3.4,3.3c-1.9,0-3.4-1.5-3.3-3.4c0-1.9,1.5-3.3,3.4-3.3c0,0,0,0,0,0
	C146.7,101.4,148.2,102.9,148.2,104.8C148.2,104.8,148.2,104.8,148.2,104.8z"/>
<path class="st5" d="M148.2,93.8c0,1.9-1.5,3.3-3.4,3.3c-1.9,0-3.4-1.5-3.3-3.4c0-1.9,1.5-3.3,3.4-3.3c0,0,0,0,0,0
	C146.7,90.4,148.2,91.9,148.2,93.8C148.2,93.7,148.2,93.7,148.2,93.8z"/>
<path class="st5" d="M120.8,115.8c0,1.9-1.5,3.3-3.3,3.3s-3.3-1.5-3.3-3.3c0-1.9,1.5-3.3,3.3-3.3l0,0
	C119.3,112.5,120.8,114,120.8,115.8z"/>
<path class="st5" d="M120.8,104.8c0,1.9-1.5,3.3-3.3,3.3s-3.3-1.5-3.3-3.3c0-1.9,1.5-3.3,3.3-3.3l0,0
	C119.3,101.4,120.8,102.9,120.8,104.8z"/>
<path class="st5" d="M120.8,93.8c0,1.9-1.5,3.3-3.3,3.3s-3.3-1.5-3.3-3.3c0-1.9,1.5-3.3,3.3-3.3l0,0
	C119.3,90.4,120.8,91.9,120.8,93.8z"/>
<path class="st5" d="M399.8,116.6c0,6.9-5.6,12.6-12.5,12.6c-6.9,0-12.6-5.6-12.6-12.5c0-6.9,5.6-12.6,12.5-12.6c0,0,0,0,0,0
	C394.2,104,399.8,109.6,399.8,116.6z"/>
<path class="st5" d="M352.7,80.8c0,3.4-2.7,6.1-6.1,6.1c-3.4,0-6.1-2.7-6.1-6.1s2.7-6.1,6.1-6.1l0,0C350,74.6,352.7,77.4,352.7,80.8
	z"/>
<rect x="424.1" y="95.8" class="st5" width="5.6" height="39.9"/>
<path class="st5" d="M278.8,117c0,6.6-5.3,11.9-11.9,11.9l0,0h-20.6c-6.6,0-11.9-5.3-11.9-11.9v0l0,0c0-6.6,5.3-11.9,11.9-11.9h20.6
	C273.4,105.1,278.8,110.4,278.8,117L278.8,117z"/>
<path class="st5" d="M248.8,94h4.8c0.6,0,1,0.4,1,1v5.2c0,0.6-0.4,1-1,1h-4.8c-0.6,0-1-0.4-1-1V95C247.8,94.4,248.3,94,248.8,94z"/>
<path class="st5" d="M259.4,94h4.8c0.6,0,1,0.4,1,1v5.2c0,0.6-0.4,1-1,1h-4.8c-0.6,0-1-0.4-1-1V95C258.4,94.4,258.9,94,259.4,94z"/>
<path class="st5" d="M248.8,132.6h4.8c0.6,0,1,0.4,1,1v5.2c0,0.6-0.4,1-1,1h-4.8c-0.6,0-1-0.4-1-1v-5.2
	C247.8,133.1,248.3,132.6,248.8,132.6z"/>
<path class="st5" d="M259.4,132.6h4.8c0.6,0,1,0.4,1,1v5.2c0,0.6-0.4,1-1,1h-4.8c-0.6,0-1-0.4-1-1v-5.2
	C258.4,133.1,258.9,132.6,259.4,132.6z"/>
<path class="st5" d="M283.6,113.6h5.2c0.6,0,1,0.4,1,1v4.8c0,0.6-0.4,1-1,1h-5.2c-0.6,0-1-0.4-1-1v-4.8
	C282.6,114.1,283,113.6,283.6,113.6z"/>
<path class="st5" d="M224.6,113.6h5.2c0.6,0,1,0.4,1,1v4.8c0,0.6-0.4,1-1,1h-5.2c-0.6,0-1-0.4-1-1v-4.8
	C223.6,114.1,224,113.6,224.6,113.6z"/>
<line class="st0" x1="440.6" y1="263.1" x2="440.6" y2="56.2"/>
<line class="st0" x1="76.4" y1="271" x2="431.4" y2="271"/>
<line class="st0" x1="67.6" y1="57.4" x2="67.6" y2="262.5"/>
<polyline class="st0" points="202.2,47.1 315.5,47.1 431.4,47.1 "/>
<line class="st0" x1="128.2" y1="8.1" x2="171.8" y2="8.1"/>
<line class="st0" x1="176.1" y1="10" x2="200.7" y2="34.7"/>
<line class="st0" x1="125.3" y1="10" x2="101" y2="34.3"/>
<polyline class="st10" points="360.4,179.9 421.4,179.9 421.4,255.9 325.1,255.9 325.1,179.9 330.4,179.9 "/>
<rect x="150.3" y="152.2" class="st10" width="45.5" height="54.6"/>
<rect x="208.1" y="183.7" class="st10" width="55.4" height="51.2"/>
<rect x="209.5" y="86.3" class="st10" width="119.3" height="61.8"/>
</svg>
